<?xml version="1.0" encoding="UTF-8"?>
<svg width="40px" height="40px" viewBox="0 0 40 40" version="1.1" xmlns="http://www.w3.org/2000/svg" xmlns:xlink="http://www.w3.org/1999/xlink">
    <!-- Generator: Sketch 55.1 (78136) - https://sketchapp.com -->
    <title>particle-corner-left</title>
    <desc>Created with Sketch.</desc>
    <g id="particle-corner-left" stroke="none" stroke-width="1" fill="none" fill-rule="evenodd">
        <path d="M5,10 L35,10 C37.7614237,10 40,7.76142375 40,5 C40,2.23857625 37.7614237,0 35,0 L5,0 C2.23857625,0 0,2.23857625 0,5 C0,7.76142375 2.23857625,10 5,10 Z" id="Line" fill="#A6CE39" fill-rule="nonzero"></path>
        <path d="M-10,25 L20,25 C22.7614237,25 25,22.7614237 25,20 C25,17.2385763 22.7614237,15 20,15 L-10,15 C-12.7614237,15 -15,17.2385763 -15,20 C-15,22.7614237 -12.7614237,25 -10,25 Z" id="Line" fill="#58B0E3" fill-rule="nonzero" transform="translate(5.000000, 20.000000) rotate(90.000000) translate(-5.000000, -20.000000) "></path>
        <path d="M1.46446609,1.46446609 C2.36928813,0.559644063 3.61928813,0 5,0 C7.76142375,0 10,2.23857625 10,5 L10,10 L5,10 C2.23857625,10 0,7.76142375 0,5 C0,3.61928813 0.559644063,2.36928813 1.46446609,1.46446609 Z" id="Path" fill="#398E32" fill-rule="nonzero"></path>
    </g>
</svg>