<?xml version="1.0" encoding="UTF-8"?>
<svg width="40px" height="40px" viewBox="0 0 40 40" version="1.1" xmlns="http://www.w3.org/2000/svg" xmlns:xlink="http://www.w3.org/1999/xlink">
    <!-- Generator: Sketch 55.1 (78136) - https://sketchapp.com -->
    <title>particle-plus</title>
    <desc>Created with Sketch.</desc>
    <g id="particle-plus" stroke="none" stroke-width="1" fill="none" fill-rule="evenodd">
        <path d="M15,15 L5,15 C2.23857625,15 0,17.2385763 0,20 C0,22.7614237 2.23857625,25 5,25 L25,25 L25,5 C25,2.23857625 22.7614237,5.68434189e-14 20,5.68434189e-14 C17.2385763,5.68434189e-14 15,2.23857625 15,5 L15,15 Z" id="Line" fill="#A6CE39" fill-rule="nonzero"></path>
        <path d="M30,30 L20,30 C17.2385763,30 15,32.2385763 15,35 C15,37.7614237 17.2385763,40 20,40 L40,40 L40,20 C40,17.2385763 37.7614237,15 35,15 C32.2385763,15 30,17.2385763 30,20 L30,30 Z" id="Line" fill="#58B0E3" fill-rule="nonzero" transform="translate(27.500000, 27.500000) rotate(-180.000000) translate(-27.500000, -27.500000) "></path>
        <path d="M25,15 L25,25 L15,25 L15,15 L25,15 Z" id="Combined-Shape" fill="#398E32" fill-rule="nonzero"></path>
    </g>
</svg>