<?xml version="1.0" encoding="UTF-8"?>
<svg width="500px" height="499px" viewBox="0 0 500 499" version="1.1" xmlns="http://www.w3.org/2000/svg" xmlns:xlink="http://www.w3.org/1999/xlink">
    <!-- Generator: Sketch 55.1 (78136) - https://sketchapp.com -->
    <title>partner-logos-nestle</title>
    <desc>Created with Sketch.</desc>
    <g id="partner-logos-nestle" stroke="none" stroke-width="1" fill="none" fill-rule="evenodd">
        <path d="M294.126719,51.263648 C297.352796,51.263648 300.174566,48.8440364 300.174566,45.6154945 C300.174566,42.3881492 297.352796,39.9685376 294.126719,39.9685376 C290.900643,39.9685376 288.480786,42.3881492 288.480786,45.6154945 C288.480786,48.8440364 290.900643,51.263648 294.126719,51.263648" id="Fill-37" fill="#00529C"></path>
        <path d="M216.303035,41.1775057 C219.124805,41.1775057 221.141552,38.7590909 221.141552,36.3370861 C221.141552,33.514206 219.124805,31.4966664 216.303035,31.4966664 C213.480069,31.4966664 211.463322,33.514206 211.463322,36.3370861 C211.463322,38.7590909 213.480069,41.1775057 216.303035,41.1775057" id="Fill-39" fill="#00529C"></path>
        <path d="M157.833059,160.583539 L155.414399,158.162731 C162.268466,151.70804 169.123729,142.026004 170.334255,136.377851 C171.139279,130.730894 179.205069,131.9407 177.592628,137.588853 C175.574686,145.252153 166.703872,154.127652 157.833059,160.583539" id="Fill-41" fill="#00529C"></path>
        <path d="M108.235212,43.1956436 C96.1395183,48.4393319 94.5258819,60.944248 102.993585,68.6075477 C113.073729,77.4830465 130.413442,69.8185501 128.799805,55.7005597 C142.510332,56.5070969 151.382341,41.9846412 149.365595,32.3026053 C155.413442,27.0601137 155.817748,15.7650034 148.559375,11.3278523 C140.494781,6.48623596 133.236408,8.10050695 128.396695,17.3780777 C115.896695,16.5715405 103.799805,26.2523798 108.235212,43.1956436 L102.589279,40.7748355 C94.928992,24.2360369 108.235212,7.69723836 124.767509,11.7299242 C128.396695,3.66335587 140.494781,-4.8076777 154.205308,3.26008728 C164.688561,9.71477793 167.108418,26.6568451 155.817748,34.7234134 C161.059375,50.0524062 150.173011,62.9617875 134.042628,61.3475165 C132.027078,81.516929 113.478035,83.9377372 100.978035,74.6601664 C94.1227719,69.0120129 91.2998054,61.7507851 90.0892791,56.1038283 C88.4768389,50.0524062 88.4768389,44.8099146 82.8332982,38.7584926 C78.3966953,34.3201448 70.332102,34.3201448 70.332102,34.3201448 C70.332102,19.7988858 57.0246858,6.48623596 40.0892791,12.9409266 C34.0414322,7.69723836 26.3787528,7.29277313 21.1383221,13.7474638 C18.3141594,17.3780777 16.2986092,27.0601137 25.9744465,31.4972647 C25.5737288,44.8099146 35.6538724,53.2809482 50.5737288,52.0699458 C50.9768389,58.927905 58.6383221,65.7858643 65.8966953,66.5924014 L65.4935853,70.2230153 C58.2340159,69.4152815 54.2029154,71.8372863 49.3632025,77.8863151 C32.0246858,77.0797779 19.9277958,85.1487396 20.3309059,97.6536556 C8.23281974,99.6699986 5.81415945,112.578183 12.6682264,119.436142 C19.5246858,126.292905 29.6060255,123.470025 33.2340159,115.403457 C45.7352121,117.821871 56.6227719,108.947569 57.0246858,98.8634614 C68.3153556,98.8634614 73.5581786,94.0230417 75.5737288,83.5344686 L79.6060255,83.9377372 C80.8153556,95.2328475 75.5737288,106.124689 61.8632025,104.914883 C61.4600925,118.630802 48.5569824,125.890833 36.0569824,121.452485 C30.4110494,132.345524 17.1036331,136.37821 6.21846567,125.890833 C-4.67029031,115.806725 -0.637993661,98.4601928 13.4756427,94.0230417 C13.4756427,80.7115885 23.5569824,68.2054758 42.5091355,73.0458954 C42.5091355,73.0458954 44.9277958,66.99567 50.9768389,66.5924014 C46.9445422,64.9781304 44.1215757,62.9617875 43.3153556,58.5246364 C28.7986092,61.7507851 16.7029154,48.4393319 19.9277958,35.1278787 C7.02348959,28.2699194 6.62157572,15.3605381 13.0725327,7.69723836 C19.9277958,-0.370526626 31.2184657,-1.98479761 40.8954992,6.48623596 C58.2340159,-2.79253142 77.1873652,8.90704412 75.9768389,28.2699194 C88.074925,27.4633822 95.332102,37.5474902 93.7196618,48.4393319 C95.7352121,43.5989122 98.1550685,41.5813727 102.589279,40.7748355 L108.235212,43.1956436 Z" id="Fill-43" fill="#00529C"></path>
        <path d="M137.672293,19.7992448 L140.494064,21.8155878 C134.849327,33.9172352 125.172293,46.0188827 116.70459,53.2801105 L113.477317,50.4560338 C119.527557,40.7739978 132.02636,24.6396645 137.672293,19.7992448" id="Fill-45" fill="#00529C"></path>
        <path d="M54.6060255,84.3419631 L56.2184657,87.5681117 C49.3632025,94.426071 36.4600925,104.108107 29.2029154,107.737524 L26.783059,104.510179 C33.2340159,97.2489511 46.137126,87.972577 54.6060255,84.3419631" id="Fill-47" fill="#00529C"></path>
        <path d="M71.138681,49.6498556 L67.9126044,53.6825415 C58.638681,47.6323161 40.492748,31.4967861 36.4604513,25.445364 L39.2822216,22.6224839 C48.1542312,27.059635 65.0884417,42.3886278 71.138681,49.6498556" id="Fill-49" fill="#00529C"></path>
        <path d="M54.203035,203.745603 C55.4123652,208.990488 54.203035,215.039517 59.0415518,220.68767 C60.653992,222.706406 69.9279154,234.806857 76.7831786,240.858279 C67.5092551,244.488893 49.3633221,252.152193 36.4602121,253.766464 C33.6384417,254.169732 30.8142791,255.782807 28.3956188,257.397078 C26.7831786,260.219958 25.1707384,265.061574 24.3633221,270.709728 C23.9602121,274.742413 23.9602121,279.179565 23.9602121,283.616716 C23.9602121,287.650598 25.9745661,300.559979 30.411169,309.029816 C34.8465757,317.502047 39.2819824,321.537126 44.5248054,323.956737 C45.7353317,323.552272 48.153992,323.1502 51.7831786,323.1502 C61.4602121,322.745735 69.1228915,328.393888 72.7520781,332.831039 C73.9602121,334.848579 76.7831786,335.251847 80.0092551,335.251847 C88.0738484,335.251847 96.9446618,332.427771 105.010451,329.200425 C107.026002,327.99062 111.864518,324.361202 116.704231,320.729392 C121.945858,316.695509 149.365714,293.298752 161.462604,287.650598 C167.914758,290.877943 178.398011,295.315094 189.285571,295.315094 C189.688681,295.315094 191.704231,295.718363 194.124088,294.911826 C197.350164,294.106485 201.786767,292.895483 207.4327,291.684481 C217.108537,289.669334 228.399207,288.053867 232.028394,288.053867 C240.899207,288.458332 267.109734,288.8616 273.561887,288.8616 C280.012844,288.8616 289.287963,288.458332 292.915954,288.053867 C298.561887,286.037524 311.063083,282.810178 322.756863,277.56649 C334.449447,272.322802 359.047533,254.977466 363.079829,250.942387 C365.09538,249.329313 367.112126,247.311773 368.322652,245.699895 C368.724566,244.892162 369.127676,244.488893 369.127676,244.084428 C369.127676,243.681159 368.724566,226.739092 368.724566,226.739092 C368.724566,226.739092 374.773609,220.284401 377.193466,217.86479 L377.193466,217.058253 C375.984136,213.829711 375.176719,203.342334 375.579829,192.853761 L369.933896,190.029684 C369.530786,202.939066 364.692269,214.234176 360.256863,221.495404 C351.386049,222.706406 334.047533,227.948898 327.99849,235.210126 L331.627676,236.017859 C337.272413,232.789317 343.321456,230.772975 350.579829,230.772975 C356.627676,230.772975 359.450643,232.386049 359.450643,234.00032 C359.450643,235.210126 358.241313,238.033006 357.837006,239.244008 C357.435092,240.050545 357.031982,241.66362 355.821456,242.470157 C347.353753,251.748924 338.078633,259.414617 326.384853,265.868111 C318.72337,270.305262 311.063083,273.129339 299.772413,276.759953 C296.143226,277.56649 291.303514,278.776296 288.480547,279.987298 C284.04514,279.987298 261.464997,279.179565 248.157581,279.179565 C234.85136,279.179565 207.4327,281.197104 198.963801,283.213447 C194.931504,284.424449 193.722174,286.037524 189.285571,286.037524 C180.817868,286.037524 169.527198,281.600373 162.673131,278.373027 C161.462604,278.373027 159.042748,279.58403 156.624088,280.793835 C151.785571,283.213447 140.898011,298.54244 134.445858,293.703217 C131.220978,300.559979 117.107341,306.610205 112.671935,313.466967 C113.073848,310.240819 118.719781,286.844061 119.122892,282.003641 C119.122892,281.197104 119.527198,280.390567 118.719781,279.58403 C113.881265,271.1118 99.3645183,265.868111 91.299925,264.25384 C89.2843748,263.851768 88.0738484,263.4485 86.4614083,263.044035 L73.5582982,259.414617 L61.8633221,263.044035 L75.5738484,265.463646 L58.2341355,277.163222 C61.4602121,275.953416 80.0092551,270.709728 81.2185853,270.305262 C82.8334178,269.900797 84.8489681,269.498725 86.8645183,270.305262 C89.6874848,271.1118 96.542748,272.72607 100.978155,274.337948 C103.398011,275.146879 107.429112,279.58403 108.638442,282.003641 C109.042748,283.213447 109.042748,285.232183 109.445858,290.071406 C109.445858,292.895483 109.042748,297.332634 108.235332,300.559979 C106.218585,309.029816 102.187485,315.485704 100.978155,317.904118 C99.3645183,321.133857 97.3477719,322.342466 94.9291116,323.1502 C91.299925,325.166543 86.4614083,325.974277 81.6228915,326.376349 C77.9937049,326.376349 75.5738484,325.974277 73.9602121,323.956737 C69.5248054,317.502047 57.8310255,311.451821 46.1372456,313.871433 C38.8788724,309.434282 31.6216953,295.315094 31.6216953,284.021181 C31.6216953,277.163222 34.8465757,266.272576 36.8633221,261.026495 C48.557102,259.414617 72.3477719,250.539118 83.6384417,245.29543 C86.0582982,245.29543 92.9123652,242.874622 99.3645183,242.874622 C114.687485,242.874622 130.010451,256.186075 139.284375,265.463646 C140.898011,263.044035 143.719781,259.011349 151.785571,259.011349 C162.673131,259.011349 169.124088,269.095457 171.947054,279.179565 L177.591791,275.146879 C176.785571,269.498725 173.559494,263.044035 169.124088,258.203615 C165.494901,254.574198 158.237724,251.345656 152.591791,251.345656 C148.962604,251.345656 145.736528,252.152193 143.316671,252.152193 C135.656384,252.152193 132.429112,248.521579 126.382461,244.488893 C120.332222,240.455011 108.638442,234.00032 100.171935,234.00032 C94.9291116,234.00032 92.5092551,236.017859 88.0738484,236.017859 C81.6228915,236.017859 79.203035,233.595855 76.3800685,229.563169 C74.7676283,227.948898 68.3154752,222.301941 66.703035,219.881133 C65.4925087,218.268059 63.8800685,213.023174 63.0738484,210.200294 L54.203035,203.745603 Z" id="Fill-51" fill="#00529C"></path>
        <path d="M63.0738484,210.199815 C65.0893987,212.217354 66.703035,214.233697 69.1228915,216.25004 C71.5415518,217.864311 74.3633221,219.477386 76.7831786,221.091657 C80.8154752,223.108 85.2508819,225.528808 89.2843748,227.143079 C93.3166714,227.948419 98.1551882,228.352884 102.589399,228.352884 C109.042748,228.352884 116.704231,227.143079 123.155188,230.369227 C127.591791,231.983498 127.591791,236.823918 131.220978,238.033724 C136.462604,240.050067 150.978155,240.454532 159.042748,240.454532 C175.173131,240.454532 192.511647,238.438189 202.996097,236.017381 L198.157581,230.369227 C190.898011,231.58023 169.930308,234.001038 160.253274,234.001038 C146.947054,234.001038 134.042748,231.58023 134.042748,226.335345 C134.042748,222.301462 138.075045,216.654506 146.138442,216.654506 C154.607341,216.654506 167.512844,221.898194 169.930308,222.705928 C172.348968,223.108 173.156384,223.108 174.770021,222.301462 L179.608537,219.881851 C173.156384,216.654506 150.171935,208.990009 142.107341,208.990009 C138.478155,208.990009 136.058298,209.392081 133.639638,212.619426 C130.817868,216.654506 122.348968,220.285119 109.445858,220.285119 C102.187485,220.285119 91.7042312,218.670848 89.6874848,217.864311 C85.653992,216.25004 77.9937049,211.812889 73.1551882,208.182275 C66.703035,203.745124 61.057102,198.501436 57.4279154,192.451211 C56.2185853,190.83694 55.4123652,188.8194 55.4123652,186.803057 C55.4123652,185.189983 56.2185853,183.97898 56.2185853,182.769175 C57.4279154,184.382249 58.6384417,185.593251 60.2508819,186.803057 C67.1049489,193.661016 77.1874848,198.501436 87.6695422,200.517779 C90.896815,201.325513 93.3166714,201.728781 96.5415518,201.728781 C100.976958,201.728781 105.010451,199.307973 107.833418,196.888362 L103.398011,192.046745 C102.187485,192.451211 99.3645183,192.451211 97.7520781,192.451211 C82.4291116,192.451211 63.0738484,182.769175 58.6384417,171.070796 C58.2341355,169.859793 57.4279154,169.457721 58.2341355,168.245522 C58.6384417,167.036913 59.0415518,165.02057 59.4446618,163.003031 C60.2508819,163.809568 62.2664322,165.422642 64.2843748,167.036913 C69.9279154,170.667527 80.8154752,175.507947 83.2341355,177.121021 C88.4769585,175.507947 92.5092551,173.491604 95.7353317,171.878529 C98.9626044,170.264259 103.398011,168.649988 108.235332,168.649988 C119.527198,168.649988 132.429112,175.104678 144.527198,181.1561 L152.591791,177.928755 C141.704231,170.264259 118.719781,159.775685 105.816671,159.775685 C98.1551882,159.775685 90.896815,165.422642 85.653992,165.422642 C79.6061451,165.422642 61.8633221,156.54834 61.8633221,149.288309 C61.8633221,143.640155 73.1551882,140.414007 92.1061451,138.39527 C88.8800685,142.833618 85.653992,148.077306 82.8334178,152.918923 L87.6695422,155.741803 C116.704231,113.385438 147.350164,85.9547981 172.753274,69.0127309 C182.027198,62.9613089 184.043944,59.3318916 187.268825,52.8760043 C195.333418,36.3372057 202.996097,24.2367549 215.899207,24.2367549 C221.947054,24.2367549 226.786767,27.4629036 230.414758,31.4967861 L239.689877,34.3196662 L230.012844,40.7743568 L239.689877,44.809436 C227.188681,48.4388532 209.850164,60.9437693 202.592987,79.0968388 C189.285571,79.5013041 182.833418,90.7964144 178.398011,99.6707165 C175.173131,106.124211 170.737724,108.546215 163.478155,112.98217 L108.235332,151.70792 L115.896815,152.918923 L167.108537,118.63152 C177.188681,111.772364 182.027198,106.527479 184.447054,102.090328 C188.883657,92.4094887 194.124088,85.1482609 204.204231,85.1482609 C209.043944,85.1482609 214.286767,87.5690691 218.722174,91.6017549 L227.592987,94.4258316 L217.914758,100.47845 L225.979351,105.317673 C202.592987,112.578901 188.076241,129.520968 179.608537,161.793225 L185.656384,163.003031 C188.883657,152.514458 192.108537,142.833618 197.350164,133.958119 C211.060691,133.958119 224.770021,133.554851 238.480547,133.554851 C274.369303,133.554851 304.20782,135.169122 320.337006,139.606273 L314.692269,129.925434 C297.352557,126.698088 272.35136,125.488282 238.480547,125.488282 C226.786767,125.488282 215.496097,125.891551 203.802317,125.891551 C211.463801,118.227055 221.947054,111.369095 238.480547,106.527479 L226.786767,100.073985 L239.689877,92.8127573 L221.947054,86.3592633 C219.125284,83.5339899 215.092987,80.7111098 210.253274,79.5013041 C215.899207,62.1547717 235.25447,52.0694671 253.802317,45.2115079 L240.899207,39.9678197 L253.802317,32.7077885 L233.64203,26.2519012 C228.399207,20.2028724 223.560691,17.377599 215.496097,17.377599 C196.947054,17.377599 189.285571,33.5143257 181.624088,47.6323161 C177.994901,55.2968125 175.575045,58.5241578 168.720978,62.9613089 C154.607341,72.2400763 136.058298,86.7625319 118.719781,104.915601 C109.848968,98.4597141 90.896815,79.0968388 86.0582982,68.6082657 C84.0415518,71.0290739 82.0260016,76.6772273 82.0260016,76.6772273 C84.0415518,78.6935703 105.816671,100.47845 113.881265,110.158093 C113.478155,110.561362 112.671935,111.369095 112.268825,112.175633 C103.398011,113.789904 80.8154752,116.209515 73.1551882,114.998513 L69.1228915,122.664206 C74.7676283,122.260937 96.9446618,119.435664 106.622892,119.032395 C103.799925,122.260937 100.976958,125.891551 98.1551882,129.520968 C69.1228915,132.748314 50.1707384,138.799736 50.1707384,149.288309 C50.1707384,150.900187 50.5738484,152.918923 50.5738484,154.935266 C50.5738484,159.372417 48.9602121,160.985491 45.7353317,163.003031 C43.7173891,164.212836 43.7173891,165.422642 44.5248054,166.633645 C45.3322216,167.84345 49.7676283,174.298141 49.7676283,175.507947 C49.7676283,177.928755 47.7496858,179.945098 46.1372456,181.961441 C44.5248054,183.576908 44.5248054,183.97898 45.7353317,185.995323 L54.203035,203.745124 L63.0738484,210.199815 Z" id="Fill-53" fill="#00529C"></path>
        <path d="M419.934973,111.369215 C418.322533,112.982289 416.710092,115.403098 415.097652,117.420637 L410.661049,110.96475 C425.984016,90.3920688 467.113203,80.7112295 491.308179,78.6936899 L491.308179,67.8030448 C488.082102,68.6083854 484.856025,69.8181911 481.631145,70.6259249 C477.597652,71.4324621 473.566552,72.6434645 470.340475,72.2401959 C466.710092,72.2401959 463.887126,71.0291935 462.677796,69.0128506 C459.451719,64.5756995 462.677796,57.7177403 473.162246,51.2630496 L464.694542,44.0018218 C458.242389,52.4728554 452.194542,61.7504261 445.742389,66.995311 C439.694542,72.2401959 433.645499,74.6598074 428.806982,71.0291935 C425.984016,69.0128506 425.177796,68.2063134 424.77349,62.9614285 C425.177796,55.2969321 429.613203,43.5985532 433.645499,35.9352535 L423.968466,34.7230544 C422.353633,46.42263 417.516313,56.1034693 412.274686,64.1712343 C406.225643,74.2553422 398.161049,81.5177667 389.693346,87.1635269 L384.047413,81.9222319 C390.902676,77.8871528 399.371576,71.4324621 405.016313,62.5581599 C411.871576,52.0695868 417.516313,39.1602055 417.516313,27.8662918 L445.742389,30.2871 C441.710092,35.5307882 435.259136,47.2291671 432.839279,55.2969321 C431.628753,59.7340832 431.628753,63.3658938 433.242389,64.5756995 C436.064159,66.5920424 441.306982,62.9614285 446.548609,57.7177403 C453.806982,49.6499753 461.066552,37.9503998 463.887126,33.9165173 L484.856025,50.859781 C475.582102,55.7002007 466.710092,61.3471575 468.323729,64.5756995 C469.937365,67.3985796 475.984016,66.5920424 482.436169,64.5756995 C487.678992,62.9614285 493.324925,60.5406204 497.760332,57.7177403 L497.760332,85.5516492 C487.678992,85.5516492 470.743585,87.5679921 454.613203,92.4096084 C458.646695,97.6532966 469.533059,99.6708362 476.388322,100.879445 L473.162246,123.469666 C455.419423,115.806366 441.710092,111.772484 419.934973,111.369215 L427.193346,104.914524 C442.920619,105.316596 459.049805,110.158213 467.920619,114.595364 L469.129949,106.12433 C461.066552,104.914524 450.984016,100.477373 446.548609,95.2336851 C439.694542,97.6532966 432.839279,100.879445 427.193346,104.914524 L419.934973,111.369215 Z" id="Fill-55" fill="#00529C"></path>
        <path d="M335.256743,183.172443 L341.708896,168.649988 C334.852437,160.583419 327.19215,150.498115 320.336887,139.606273 L314.69215,129.925434 C301.384734,104.915601 306.224447,92.8127573 299.369183,81.517647 C293.318944,72.6433448 265.094064,78.2903017 260.657461,79.0968388 L268.72325,65.7853856 L252.594064,66.9951914 L266.303394,50.8596614 C267.915834,48.4388532 268.318944,46.8257789 269.932581,41.1776254 C272.351241,32.3033233 279.609614,17.7808676 301.384734,17.7808676 C325.175403,17.7808676 332.838083,37.1449396 342.91703,45.6159731 C355.015116,55.2968125 370.338083,68.6082657 384.047413,81.9221122 L389.693346,87.1646038 C396.950523,94.4258316 403.806982,102.090328 410.661049,110.96463 L415.097652,117.420517 C444.129949,159.372417 479.614399,239.646798 495.743585,276.356206 C496.952915,279.98682 498.162246,283.616237 499.372772,286.44151 C488.486408,280.390088 476.791432,273.130057 464.291432,264.657827 L457.437365,259.817407 C453.001958,256.590062 448.565356,253.362717 444.129949,250.136568 L436.871576,244.083949 C432.436169,240.8578 427.999566,237.227187 423.968466,233.596573 L438.484016,317.099496 C439.291432,322.343184 443.726839,321.536647 446.952915,317.099496 C450.177796,312.662345 451.791432,311.451342 450.177796,305.803189 L436.871576,244.083949 L444.129949,250.136568 L457.033059,302.172575 C458.242389,307.014191 460.259136,308.627266 465.905069,308.627266 C471.548609,309.030534 472.356025,307.014191 471.548609,303.383577 L457.437365,259.817407 L464.291432,264.657827 L477.597652,303.786846 C481.226839,313.872151 477.597652,315.081956 471.548609,315.081956 C465.905069,315.081956 460.259136,313.467685 457.033059,315.485225 C453.806982,317.904836 449.774686,323.55299 444.531863,328.39341 C440.500762,332.830561 434.048609,332.024023 432.839279,323.55299 L416.710092,227.143079 C406.628753,217.864311 396.548609,208.182275 387.6766,198.098167 C384.047413,196.485093 379.612006,194.466357 375.57971,192.854479 L369.933777,190.029206 C367.515116,188.8194 365.902676,188.417328 365.49837,188.014059 C361.062963,193.256551 356.627557,199.307973 351.78904,203.341856 C349.369183,205.762664 347.353633,206.97247 343.724447,206.97247 C342.51392,206.97247 340.902676,206.97247 339.69215,206.165932 C338.078514,205.359395 336.869183,203.745124 335.256743,201.325513 C334.047413,199.711242 332.433777,197.29163 330.821336,194.870822 C327.59526,189.62833 324.367987,182.769175 321.143107,177.52429 C317.918226,171.474064 314.69215,167.036913 314.287844,166.230376 C313.884734,165.02057 312.272293,163.809568 312.272293,163.809568 C310.256743,166.230376 309.046217,171.474064 309.046217,174.70141 L303.40148,172.68387 C303.80459,168.649988 305.41703,163.406299 306.627557,160.985491 C306.627557,158.967952 304.2077,156.145071 302.190954,156.145071 C299.369183,156.145071 296.546217,158.967952 295.335691,164.616105 L289.287844,167.441378 C289.690954,158.162611 292.91703,148.077306 302.190954,148.077306 C309.449327,148.077306 314.287844,153.72546 317.51392,158.967952 C321.143107,164.212836 332.838083,179.945098 335.256743,183.172443 L339.69215,188.8194 C340.49837,192.451211 342.11081,194.466357 342.91703,195.677359 C344.530667,198.098167 346.143107,198.098167 348.562963,195.677359 C349.77349,194.870822 352.99837,192.046745 356.627557,188.417328 C359.451719,185.592055 362.272293,181.558172 363.48282,179.945098 C366.708896,181.154904 373.161049,184.382249 377.99837,186.398592 C356.627557,159.775685 335.659853,127.503429 326.78904,105.719745 C323.158657,96.4421746 330.41703,93.6192945 333.643107,102.494793 C343.321336,126.698088 371.144303,169.859793 391.708896,192.451211 C415.097652,218.26758 458.242389,256.186793 486.469662,271.111321 C482.436169,263.043556 477.194542,251.749642 470.743585,238.438189 C436.467269,219.074117 402.193346,183.576908 386.064159,152.918923 L392.918226,153.72546 C407.839279,180.349563 443.726839,215.847968 465.097652,225.932076 C445.742389,184.786714 420.338083,132.748314 400.98282,110.561362 C376.38593,82.7274528 349.77349,60.9437693 336.869183,50.0531242 C324.367987,38.7580139 319.127557,25.0420954 301.384734,25.0420954 C286.464877,25.0420954 278.400284,35.9351338 275.577317,46.4225103 C274.772293,48.8433185 274.369183,50.0531242 273.158657,52.0694671 L265.900284,60.5416974 L281.22325,58.928623 L272.351241,71.0290739 C272.351241,71.0290739 296.143107,65.7853856 304.61081,77.0804959 C313.48282,89.1809468 307.836887,102.898062 322.756743,129.925434 C329.2077,141.623812 344.933777,162.599762 350.1766,167.441378 L339.69215,188.8194 L335.256743,183.172443 Z" id="Fill-57" fill="#00529C"></path>
        <path d="M100.574566,186.803296 L96.9453795,184.382488 C98.962126,182.769414 102.993226,179.945337 107.026719,178.332263 C109.042269,177.524529 111.462126,177.12126 113.07337,177.12126 C117.106863,177.12126 120.736049,178.735531 123.963322,180.751874 C129.203753,183.577148 135.252796,186.803296 140.091313,186.803296 C141.704949,186.803296 143.316193,186.398831 145.332939,186.398831 C150.172652,186.398831 154.608059,188.417567 157.026719,188.417567 C158.640356,188.417567 159.446576,187.206565 160.657102,185.592294 C163.075762,181.96168 166.703753,179.1388 171.139159,177.524529 C175.574566,175.508186 181.624805,174.701649 187.672652,174.701649 C192.914279,174.701649 197.349686,175.508186 199.769542,175.911455 C199.769542,175.911455 196.140356,180.348606 195.334136,181.558412 C190.092509,181.558412 180.817389,181.155143 174.769542,183.577148 C170.737246,185.189025 169.527915,187.609834 169.527915,190.43391 C169.527915,194.871061 174.769542,196.888601 180.011169,198.500479 C183.640356,199.308212 187.269542,199.711481 190.092509,199.711481 C194.123609,199.711481 201.381982,198.09721 208.641552,196.485332 C217.512365,194.871061 225.576958,192.45145 227.996815,191.643716 L231.222892,197.29187 C221.544662,200.518018 211.463322,203.745364 202.189399,205.359635 C196.946576,206.570637 192.108059,207.375977 187.672652,207.375977 C180.011169,207.375977 171.946576,204.149829 165.494423,200.922483 C159.849686,198.500479 155.011169,195.677599 150.172652,195.677599 C145.332939,195.677599 140.494423,197.29187 136.05782,200.11475 C133.640356,201.325752 126.785092,206.166172 120.736049,208.58698 C115.897533,210.200054 112.268346,211.40986 107.428633,211.40986 C103.397533,211.40986 100.574566,210.603323 98.5578197,208.990248 L105.817389,204.551901 C107.026719,205.359635 108.637963,205.762903 109.44538,205.762903 C110.655906,205.762903 111.86404,205.359635 114.688203,204.149829 C116.299447,203.745364 118.719303,202.132289 120.332939,201.325752 C123.15471,199.308212 123.963322,198.09721 125.171456,197.29187 C127.591313,195.677599 128.397533,193.25679 125.574566,190.837179 C123.963322,189.627373 122.752796,188.417567 121.139159,187.206565 C118.317389,185.592294 116.703753,184.382488 111.86404,184.382488 C106.623609,184.382488 102.590116,185.592294 100.574566,186.803296" id="Fill-59" fill="#00529C"></path>
        <path d="M202.995619,189.627852 C202.995619,189.627852 198.559016,188.416849 197.349686,188.416849 C200.173848,184.38177 204.204949,181.155622 207.027915,179.138082 C213.076958,175.1042 219.124805,172.684588 228.801839,172.281319 C231.222892,171.878051 236.463322,171.473586 239.287485,171.473586 C242.109255,171.878051 246.544662,171.878051 250.576958,172.684588 C253.399925,173.087857 256.222892,173.89559 258.642748,174.297662 C259.852078,174.700931 264.690595,174.700931 266.304231,174.297662 C273.158298,173.087857 281.222892,170.667048 285.256384,168.24624 L286.867628,174.700931 C277.996815,179.541351 267.915475,183.978502 258.239638,183.978502 C253.803035,183.978502 248.562604,183.57643 243.722892,183.171965 C235.658298,182.366624 228.398729,181.155622 225.980069,181.155622 C219.124805,181.155622 209.448968,184.38177 202.995619,189.627852" id="Fill-61" fill="#00529C"></path>
        <path d="M196.543944,225.528209 L188.076241,221.495523 C199.768825,215.84737 217.511647,209.797145 225.174327,208.587339 C232.4327,207.376336 240.899207,206.569799 245.73892,204.955528 C248.157581,210.602485 252.592987,216.249442 258.64203,216.249442 C261.061887,216.249442 264.691073,214.636368 268.72337,213.023293 C273.158777,211.00695 277.191073,208.990607 279.609734,208.182874 C282.02959,206.971871 289.691073,203.745723 296.546336,200.518377 C298.964997,199.308571 305.819064,196.081226 306.22337,196.081226 L310.658777,198.500838 C309.449447,204.150188 307.02959,211.410219 304.61093,216.653907 C303.80471,218.671447 302.594183,220.284521 301.787963,221.495523 C299.772413,223.51067 296.546336,226.739212 292.512844,229.563288 C288.077437,232.789437 282.4327,236.017979 276.786767,239.244128 C272.35136,241.663739 267.915954,244.489013 263.077437,246.504159 L261.061887,242.067008 C267.915954,238.033125 275.173131,233.192706 281.62648,228.352286 C284.44825,226.335943 287.272413,223.915135 289.287963,221.898792 C290.900403,220.68779 291.70782,219.476787 292.512844,218.268178 C294.52959,215.84737 297.755667,210.199217 298.561887,207.779605 C295.73892,208.990607 286.061887,213.82983 281.62648,215.84737 C276.383657,218.671447 268.319064,222.706526 263.480547,225.126137 C260.255667,226.739212 257.028394,227.545749 254.609734,227.545749 C249.366911,227.545749 246.94825,223.915135 245.73892,221.495523 C242.512844,215.84737 239.286767,215.444101 230.011647,215.444101 C219.528394,215.039636 205.012844,219.476787 196.543944,225.528209" id="Fill-63" fill="#00529C"></path>
        <path d="M246.141911,198.904106 C246.141911,198.904106 244.931384,194.063687 244.125164,192.047344 C244.125164,192.047344 245.738801,191.644075 247.754351,191.644075 C250.577317,191.644075 258.641911,192.450612 261.867987,192.450612 C273.964877,192.450612 278.400284,188.818802 282.02947,185.592653 C285.255547,182.769773 288.481624,180.348965 296.546217,180.348965 C303.80459,180.348965 312.272293,183.173041 314.69215,184.381651 L314.287844,191.240806 C310.659853,189.223267 305.82014,188.013461 301.384734,188.013461 C298.561767,188.013461 295.738801,188.013461 293.72325,189.223267 C291.7077,190.434269 290.094064,192.047344 288.078514,193.660418 C286.061767,195.274689 283.239997,196.887763 279.2077,198.500838 C275.577317,200.115109 270.738801,200.922842 263.480427,200.922842 C254.206504,200.922842 248.963681,199.308571 246.141911,198.904106" id="Fill-65" fill="#00529C"></path>
        <path d="M168.721336,249.329073 L174.367269,246.908265 C179.205786,248.925805 186.866073,251.346613 192.108896,251.346613 C195.333777,251.346613 197.753633,250.136807 199.769183,249.329073 C201.38282,248.52134 220.333777,239.243769 229.608896,236.01762 C232.433059,234.806618 235.657939,234.403349 236.868466,234.403349 C239.287126,234.403349 239.287126,235.209886 240.093346,236.420889 C241.706982,239.243769 255.819423,259.011109 257.028753,260.220915 C268.723729,256.589105 280.820619,251.346613 287.674686,244.891922 C294.934255,238.033963 300.980906,229.965001 307.029949,223.511507 C309.046695,221.090699 311.868466,219.074356 313.078992,218.267819 C319.126839,215.040474 338.078992,214.637205 345.740475,215.040474 L341.305069,221.495165 C327.191432,221.495165 319.529949,223.108239 315.901958,225.52785 C314.691432,226.738853 312.272772,229.159661 310.256025,231.983738 C305.416313,238.033963 300.174686,246.504997 298.159136,248.118071 C302.191432,250.943344 306.628035,253.362956 313.884016,253.362956 C325.578992,253.362956 334.047892,246.101728 338.483298,242.067846 L342.514399,244.084188 C339.692628,248.118071 336.062246,251.748685 332.031145,254.573958 C327.191432,257.800107 321.143585,260.220915 317.918705,261.026256 C311.063442,259.817647 296.142389,256.589105 292.513203,256.185836 C279.610092,261.430721 258.239279,269.900558 251.384016,271.919294 C250.174686,272.322563 248.562246,272.725831 246.545499,272.725831 C240.899566,273.130296 233.238083,273.130296 225.97971,272.725831 C221.141193,272.725831 216.302676,272.725831 213.884016,272.322563 L207.431863,265.867872 C213.0766,267.077678 215.093346,267.077678 220.333777,267.077678 C232.433059,267.077678 240.496456,265.061335 242.915116,264.658066 C245.334973,263.851529 245.739279,262.640527 244.931863,260.622987 C243.722533,257.800107 242.110092,254.573958 239.287126,251.346613 C237.67349,249.732342 234.447413,246.908265 233.238083,246.101728 C231.624447,244.891922 230.012006,244.488654 225.17349,246.101728 C221.141193,247.311534 207.833777,254.573958 202.18904,257.800107 C199.367269,259.011109 196.947413,259.817647 192.108896,258.606644 C186.462963,257.396838 173.559853,252.556419 168.721336,249.329073" id="Fill-67" fill="#00529C"></path>
        <path d="M205.414877,102.494913 C207.833537,102.494913 210.253394,100.074105 210.253394,97.6532966 C210.253394,94.8304165 207.833537,92.812877 205.414877,92.812877 C202.593107,92.812877 200.57636,94.8304165 200.57636,97.6532966 C200.57636,100.074105 202.593107,102.494913 205.414877,102.494913" id="Fill-69" fill="#00529C"></path>
        <path d="M388.079949,381.239065 C388.079949,377.608451 384.855069,374.381106 380.822772,374.381106 L370.741432,374.381106 C366.709136,374.381106 363.483059,377.608451 363.483059,381.239065 L363.886169,489.347355 C363.886169,492.977969 366.709136,496.204118 370.741432,496.204118 L380.822772,496.204118 C384.855069,496.204118 388.079949,492.977969 388.079949,489.347355 L388.079949,381.239065 Z" id="Fill-71" fill="#00529C"></path>
        <path d="M400.983179,384.465573 L400.983179,389.305993 C400.983179,391.725604 402.596815,393.339875 405.016671,393.339875 L475.984375,393.339875 C479.210451,393.339875 482.034614,390.516995 482.034614,387.288453 L482.034614,378.817419 C482.034614,375.590074 479.210451,372.363925 475.984375,372.767194 C475.984375,372.767194 407.435332,379.625153 405.016671,380.027225 C402.596815,380.027225 400.983179,382.045961 400.983179,384.465573" id="Fill-73" fill="#00529C"></path>
        <path d="M343.321576,496.204357 C325.578753,496.204357 314.691193,482.892904 314.691193,467.96718 L314.691193,424.805475 L309.449566,424.805475 C307.02971,424.805475 304.611049,422.384667 304.611049,419.963859 L304.611049,412.702631 C304.611049,409.879751 307.02971,407.862211 309.449566,407.862211 L314.691193,407.862211 L314.691193,381.239305 C314.691193,377.608691 317.514159,374.380149 321.546456,374.380149 L331.627796,374.380149 C335.256982,374.380149 338.078753,377.608691 338.078753,381.239305 L338.078753,407.862211 L353.804829,407.862211 C356.627796,407.862211 358.644542,409.879751 358.644542,412.702631 L358.644542,419.963859 C358.644542,422.384667 356.627796,424.805475 353.804829,424.805475 L338.078753,424.805475 L338.078753,464.741031 C338.078753,472.404331 342.917269,478.052484 351.386169,478.052484 L352.998609,478.052484 C355.821576,478.052484 358.241432,480.070024 358.241432,483.297369 L358.241432,490.960669 C358.241432,493.785942 355.821576,496.204357 352.998609,496.204357 L343.321576,496.204357 Z" id="Fill-75" fill="#00529C"></path>
        <path d="M157.430069,440.940287 C158.237485,430.854982 167.108298,423.191682 177.591552,423.191682 C188.479112,423.191682 197.349925,430.854982 198.559255,440.940287 L157.430069,440.940287 Z M222.351121,450.622323 C222.351121,427.627637 208.641791,404.635344 177.591552,404.635344 C148.962365,404.635344 133.236289,427.225565 133.236289,450.622323 C133.236289,475.630958 150.172892,497.81791 177.994662,497.81791 C196.946815,497.81791 215.495858,488.137071 219.125045,471.598272 C219.528155,469.581929 217.914518,466.354584 215.092748,466.354584 L201.382222,466.354584 C198.963561,466.354584 196.946815,467.56439 195.737485,469.581929 C191.703992,475.228886 186.060451,478.052963 177.994662,478.052963 C165.898968,478.052963 157.833179,468.774196 157.026958,458.286819 L214.688442,458.286819 C219.931265,458.286819 222.351121,455.462742 222.351121,450.622323 L222.351121,450.622323 Z" id="Fill-77" fill="#00529C"></path>
        <path d="M419.533179,440.940287 C420.338203,430.854982 429.209016,423.191682 439.693466,423.191682 C450.581025,423.191682 459.451839,430.854982 460.259255,440.940287 L419.533179,440.940287 Z M484.453035,450.622323 C484.453035,427.627637 470.743705,404.635344 439.693466,404.635344 C411.064279,404.635344 395.338203,427.225565 395.338203,450.622323 C395.338203,475.630958 412.274805,497.81791 440.097772,497.81791 C459.049925,497.81791 477.597772,488.137071 481.226958,471.598272 C481.631265,469.581929 480.016432,466.354584 477.194662,466.354584 L463.484136,466.354584 C461.066671,466.354584 459.049925,467.56439 457.838203,469.581929 C453.807102,475.228886 448.162365,478.052963 439.693466,478.052963 C427.999686,478.052963 419.935092,468.774196 419.128872,458.286819 L476.791552,458.286819 C482.034375,458.286819 484.453035,455.462742 484.453035,450.622323 L484.453035,450.622323 Z" id="Fill-79" fill="#00529C"></path>
        <path d="M295.335691,375.590074 L109.042628,375.590074 C104.607222,375.590074 101.381145,379.221885 101.381145,383.25457 L101.783059,456.672189 C101.783059,456.672189 61.8632025,384.062304 59.8476523,380.43169 C57.8309059,376.801076 53.3954992,373.573731 47.7507623,373.573731 L32.4277958,373.573731 C27.9923891,373.573731 24.7675087,377.205542 24.7675087,381.239424 L24.7675087,488.541177 C24.7675087,492.978328 27.9923891,496.204477 32.4277958,496.204477 L42.1048293,496.204477 C46.540236,496.204477 49.7675087,492.978328 49.7675087,488.541177 L49.3632025,413.509288 C49.3632025,413.509288 89.6873652,486.523638 91.7041116,489.346518 C93.7196618,493.381597 97.7519585,496.204477 103.397892,496.204477 L117.510332,496.204477 C121.945738,496.204477 125.171815,492.978328 125.171815,488.541177 L125.171815,393.74434 L295.335691,393.74434 C298.158657,393.74434 300.578514,391.322335 300.578514,388.499455 L300.578514,380.834959 C300.578514,378.010882 298.158657,375.590074 295.335691,375.590074" id="Fill-81" fill="#00529C"></path>
        <path d="M265.093825,422.384188 C273.158418,422.384188 279.207461,425.208265 281.626121,430.45315 C282.432341,432.873958 284.449088,433.27603 287.272054,433.27603 L298.561528,433.27603 C300.173968,433.27603 302.595021,431.662955 302.595021,429.240951 C302.595021,416.332766 286.867748,404.635584 265.093825,404.635584 C242.512485,404.635584 227.592628,415.527425 227.592628,432.469493 C227.592628,445.782142 238.077078,453.446639 250.577078,457.076056 C256.626121,458.287059 266.707461,460.70667 271.545978,462.320941 C276.383298,463.530747 281.223011,465.143821 281.223011,469.580972 C281.223011,476.843397 273.964638,478.85974 265.496935,478.85974 C257.835451,478.85974 250.173968,475.631198 248.158418,469.984241 C246.947892,466.758092 244.529231,466.354823 241.303155,466.354823 L230.012485,466.354823 C227.996935,466.354823 225.577078,468.371166 225.577078,470.791975 L225.577078,472.405049 C225.577078,484.909965 242.512485,497.81815 265.900045,497.81815 C282.029231,497.81815 305.013681,490.961387 305.013681,469.177704 C305.013681,456.268322 296.545978,447.39402 282.432341,443.763406 C277.190714,442.552404 264.287604,438.924183 261.464638,438.519718 C256.223011,436.906644 251.384494,435.292373 251.384494,431.25849 C251.384494,424.401728 257.432341,422.384188 265.093825,422.384188" id="Fill-83" fill="#00529C"></path>
    </g>
</svg>