<?xml version="1.0" encoding="utf-8"?>
<!-- Generator: Adobe Illustrator 19.2.1, SVG Export Plug-In . SVG Version: 6.00 Build 0)  -->
<svg version="1.1" id="layer" xmlns="http://www.w3.org/2000/svg" xmlns:xlink="http://www.w3.org/1999/xlink" x="0px" y="0px"
	 viewBox="0 0 652 652" style="enable-background:new 0 0 652 652;" xml:space="preserve">
<style type="text/css">
	.st0{fill:#009394;}
	.st1{fill:#243446;}
</style>
<g>
	<path class="st0" d="M64.2,259.7c0-24.1,19.6-43.7,43.7-43.7s43.7,19.6,43.7,43.7H64.2z M64.2,347.2c0,24.1,19.6,43.7,43.7,43.7
		s43.7-19.6,43.7-43.7H64.2z M103.8,303.3c-22.2-2.1-39.6-20.8-39.6-43.5c-24.1,0-43.7,19.6-43.7,43.8c0,24.1,19.6,43.7,43.7,43.7
		c0-22.8,17.4-41.5,39.6-43.5V303.3z M112.1,303.7c22.2,2.1,39.6,20.8,39.6,43.5c24.2,0,43.7-19.6,43.7-43.7
		c0-24.2-19.6-43.8-43.7-43.8c0,22.8-17.4,41.5-39.6,43.5V303.7z"/>
	<path class="st1" d="M564.8,347.8h-19.3v-88h19.3V347.8z M537,263.2c-6.5-3.3-14.2-5.1-22-5.1c-28.9,0-48.7,22-48.7,46.9
		c0,24.2,20.5,45.4,48.4,45.4c8,0,15.3-2.2,22.4-5.1V325c-5.3,5.5-13.6,8.9-21.8,8.9c-18,0-28.9-14.5-28.9-29.2
		c0-15.1,10.5-29.8,29.1-29.8c8.2,0,16.4,3.1,21.6,8.9V263.2 M392.1,275.1v-15.4h-51.4v88h51.4v-15.1h-32v-21.9h30.7v-15.4h-30.7
		v-20.2H392.1 M565.5,299.8l32.5,48h22.4l-33-48l28.8-40h-22.3L565.5,299.8z M419.8,274.1c0,0,11.6,0,12.3,0
		c6.4,0.7,11.4,6.1,11.4,12.7c0,7-5.7,12.8-12.8,12.8h-0.2c-0.8,0-4.7,0.1-5.6,0.1h-2.4l-2.2,0l32.1,48.1h21.8l-26.8-37.9
		c11.1-3.8,15.7-13.2,15.7-23.9c0-14.4-11.7-26.1-26.1-26.1c-0.5,0-36.7,0-36.7,0v88h19.3V274.1z M284.5,348.8l27.2-63.4v62.5h19
		v-88h-28.1l-18,45.1l-18.1-45.1h-28.1v88h18.9v-62.5L284.5,348.8L284.5,348.8z M235.6,426.4h6l4.6-11h19.5l4.5,11h6.4l-17-42.1
		h-6.2L235.6,426.4z M256.2,390.1l7.7,20.6H248L256.2,390.1z M282.5,426.4h5.5v-16.9c0-5.9,3.7-8.7,7.6-8.7c1.9,0,3.8,0.6,5.2,2
		c1.4,1.3,1.6,3.1,1.6,5v18.6h5.6v-19.9c0-9-8-10-10.6-10c-6.6,0-8.8,4.1-9.4,5.3l-0.1-4.7h-5.5l0.1,3.4V426.4z M317.4,390.4h6.6v-6
		h-6.6V390.4z M318,426.4h5.5v-29.3H318V426.4z M334.1,426.4h5.5v-16.6c0-1.9,0.1-4.3,1.3-5.9c0.6-0.9,2.7-3.2,6.4-3.2
		c4.3,0,6.4,2.8,6.4,6.4v19.4h5.5V410c0-1.3,0-4.5,1.3-6.3c0.8-1,2.7-3.1,6.2-3.1c2.8,0,4.7,1.2,5.6,2.6c0.5,0.7,1,1.9,1,4.4v18.8
		h5.5v-19.6c0-8.6-6.5-10.4-10.7-10.4c-6.5,0-8.9,3.8-9.9,5.5c-1.1-2.2-3.1-5.5-9.6-5.5c-2.5,0-6.5,0.4-9.3,5v-4.3H334l0.1,3.9
		V426.4z M412,426.4c-0.4-3-0.5-6.9-0.5-7.3l0.2-14c0-1.3-0.1-2.7-1-4.5c-1.6-3-6.1-4.3-10.4-4.3c-3.1,0-7.2,0.7-9.4,3.1
		c-1.7,2-1.9,4-2,5.5h5.5c0.1-1.2,0.4-5,5.9-5c1.6,0,4,0.5,5.1,1.9c1,1.3,1,2.9,1,6.5c-1.7-0.1-2.6-0.2-4-0.2c-2.3,0-7,0.2-10.1,1.9
		c-4.3,2.5-5.1,6.2-5.1,8.6c0,4.8,3.6,8.6,10.3,8.6c2.4,0,6.4-0.5,9-5.3c0,1.5,0.1,2.9,0.5,4.4H412z M406.4,412.2
		c-0.1,4.1-0.2,5.7-1.4,7.7c-1.3,2-3.4,3.1-6.2,3.1c-4.9,0-6.1-3.2-6.1-5.1c0-5.9,8.3-5.9,10.6-5.9
		C404.6,412,405.4,412.1,406.4,412.2 M421.7,426.4h5.5v-42h-5.5V426.4z M454.1,384.3v42.1h5.8v-19h20v19h5.8v-42.1h-5.8v18.1h-20
		v-18.1H454.1z M520.5,412.8c0.1-4.8,0.4-16.4-12.7-16.4c-1.7,0-5.2,0.2-8,2.2c-4.6,3.2-5.8,8-5.8,13.8c0,9.3,4.4,15,13.6,15
		c5.9,0,8.8-2.4,10.1-3.9c2.1-2.3,2.3-4.7,2.5-6.1h-5.5c-0.5,4.2-3.3,6.1-6.9,6.1c-6,0-8.5-4.5-8.4-10.6H520.5z M499.7,408.9
		c0.1-6.5,4.4-8.6,8-8.6c6.8,0,7.3,5.8,7.2,8.6H499.7z M551.4,426.4c-0.4-3-0.5-6.9-0.5-7.3l0.2-14c0-1.3-0.1-2.7-1-4.5
		c-1.6-3-6.1-4.3-10.4-4.3c-3.1,0-7.2,0.7-9.4,3.1c-1.7,2-1.9,4-2,5.5h5.5c0.1-1.2,0.3-5,5.9-5c1.6,0,4,0.5,5.1,1.9
		c1.1,1.3,1.1,2.9,1.1,6.5c-1.7-0.1-2.6-0.2-4-0.2c-2.3,0-7,0.2-10.1,1.9c-4.3,2.5-5.1,6.2-5.1,8.6c0,4.8,3.6,8.6,10.3,8.6
		c2.5,0,6.4-0.5,9-5.3c0,1.5,0.1,2.9,0.5,4.4H551.4z M545.8,412.2c-0.1,4.1-0.2,5.7-1.4,7.7c-1.3,2-3.4,3.1-6.2,3.1
		c-4.9,0-6.1-3.2-6.1-5.1c0-5.9,8.3-5.9,10.6-5.9C544,412,544.8,412.1,545.8,412.2 M560.4,426.4h5.5v-42h-5.5V426.4z M571.3,401.1
		h5.2v19.5c0,4.8,2.4,6.2,7.4,6.2c2,0,3.6-0.2,4.5-0.3v-4.3c-0.5,0.1-1.5,0.3-2.6,0.3c-3.9,0-3.9-2.4-3.9-3.9v-17.5h6.5v-4H582v-7.9
		l-5.4,1.7v6.1h-5.2V401.1z M595.2,426.4h5.5v-15.5c0-1.8,0-4.5,0.9-6.2c0.8-1.4,2.8-3.9,6.9-3.9c6.3,0,6.3,5.6,6.3,8.3v17.3h5.6
		v-18.3c0-4.3-0.4-5.7-1-6.8c-1.7-3.6-6.1-4.7-9.2-4.7c-4.1,0-7.7,1.7-9.5,4.8v-17.1h-5.5V426.4z"/>
</g>
</svg>
