<?xml version="1.0" encoding="UTF-8"?>
<svg width="500px" height="107px" viewBox="0 0 500 107" version="1.1" xmlns="http://www.w3.org/2000/svg" xmlns:xlink="http://www.w3.org/1999/xlink">
    <!-- Generator: Sketch 55.1 (78136) - https://sketchapp.com -->
    <title>partner-logos-landolakes-new</title>
    <desc>Created with Sketch.</desc>
    <g id="partner-logos-landolakes-new" stroke="none" stroke-width="1" fill="none" fill-rule="evenodd">
        <g id="lol-logo-foodservice" transform="translate(1.000000, 0.000000)" fill="#00529C" fill-rule="nonzero">
            <g id="Group">
                <path d="M489.285714,23.7930108 C494.285714,23.7930108 498.285714,27.7822581 498.285714,32.9112903 C498.285714,38.0403226 494.285714,42.172043 489.285714,42.172043 C484.285714,42.172043 480.142857,38.1827957 480.142857,32.9112903 C480.142857,27.7822581 484.142857,23.7930108 489.285714,23.7930108 L489.285714,23.7930108 Z M489.142857,25.2177419 C485.142857,25.2177419 481.857143,28.6370968 481.857143,32.9112903 C481.857143,37.327957 485.142857,40.7473118 489.285714,40.7473118 C493.428571,40.7473118 496.571429,37.327957 496.571429,33.0537634 C496.571429,28.6370968 493.285714,25.2177419 489.142857,25.2177419 L489.142857,25.2177419 Z M487.428571,38.1827957 L485.857143,38.1827957 L485.857143,27.9247312 C486.714286,27.7822581 487.571429,27.6397849 488.714286,27.6397849 C490.285714,27.6397849 491.285714,27.9247312 491.857143,28.4946237 C492.428571,28.922043 492.857143,29.6344086 492.857143,30.6317204 C492.857143,31.9139785 492,32.7688172 490.857143,33.0537634 L490.857143,33.1962366 C491.714286,33.3387097 492.428571,34.1935484 492.571429,35.6182796 C492.857143,37.1854839 493,37.7553763 493.285714,38.1827957 L491.571429,38.1827957 C491.285714,37.8978495 491.142857,36.9005376 490.857143,35.6182796 C490.571429,34.3360215 490,33.766129 488.714286,33.766129 L487.571429,33.766129 L487.571429,38.1827957 L487.428571,38.1827957 Z M487.428571,32.483871 L488.571429,32.483871 C489.857143,32.483871 491,32.0564516 491,30.7741935 C491,29.9193548 490.285714,28.922043 488.571429,28.922043 C488,28.922043 487.714286,28.922043 487.428571,29.0645161 L487.428571,32.483871 Z" id="Shape"></path>
                <g>
                    <g transform="translate(0.000000, 22.795699)">
                        <path d="M120.428571,0.85483871 L120.428571,62.688172 L108,62.688172 C108,62.688172 108,60.266129 107.857143,56.561828 C107.714286,48.8682796 104.714286,35.1908602 94.2857143,21.655914 L94.2857143,62.688172 L81.1428571,62.688172 L81.1428571,0.997311828 C81.1428571,0.997311828 83.2857143,0.85483871 83.8571429,0.85483871 C95.5714286,0.85483871 104.857143,13.9623656 107.142857,19.3763441 L107.142857,0.85483871 L120.428571,0.85483871 Z" id="Path"></path>
                        <path d="M164.571429,15.3870968 C170,25.3602151 169.571429,42.3145161 162.571429,51.8602151 C157.714286,58.5564516 148.428571,62.688172 138.285714,62.688172 L128.857143,62.688172 L128.857143,0.85483871 L138.285714,0.85483871 C150,0.85483871 159.571429,6.2688172 164.571429,15.3870968 Z M152.285714,18.9489247 C150.142857,15.5295699 145.571429,12.8225806 141.428571,12.6801075 L141.285714,12.6801075 L141.285714,52.1451613 C146.142857,51.5752688 150.142857,48.8682796 152.857143,44.0241935 C156.285714,37.8978495 157,26.9274194 152.285714,18.9489247 Z" id="Shape"></path>
                        <polygon id="Path" points="29.8571429 52.5725806 13.8571429 52.5725806 13.8571429 0.85483871 0 0.85483871 0 62.8306452 28.7142857 62.8306452"></polygon>
                        <path d="M74.5714286,62.8306452 L68.5714286,0.997311828 L54.1428571,0.997311828 L54,0.997311828 C45.8571429,1.85215054 43,5.98387097 42,8.97580645 L42,9.26075269 C41.7142857,11.5403226 39.8571429,24.077957 39,28.2096774 L38.8571429,29.3494624 C35.4285714,29.7768817 32.4285714,30.6317204 30.2857143,31.344086 L28.5714286,43.7392473 C28.5714286,43.7392473 32.1428571,42.4569892 37.1428571,41.4596774 C36,49.0107527 33.8571429,62.8306452 33.8571429,62.8306452 L45.8571429,62.8306452 L49.2857143,40.6048387 C53.2857143,40.8897849 57.1428571,41.8870968 60.2857143,44.0241935 L60.2857143,44.0241935 L62.2857143,62.8306452 L74.5714286,62.8306452 Z M50.8571429,28.7795699 C51.1428571,26.7849462 51.4285714,24.6478495 51.7142857,22.6532258 C52.1428571,19.6612903 52.4285714,16.3844086 53.1428571,13.3924731 C53.2857143,12.6801075 54.4285714,11.5403226 55.7142857,11.3978495 L55.8571429,11.3978495 C56.4285714,11.2553763 56.7142857,11.2553763 57.5714286,11.3978495 L59,30.3467742 C57.7142857,29.9193548 56.2857143,29.4919355 54.8571429,29.3494624 C53.5714286,29.0645161 52.1428571,28.922043 50.8571429,28.7795699 Z" id="Shape"></path>
                    </g>
                    <g transform="translate(304.714286, 22.379032)">
                        <path d="M171,3.69354839 C165,-0.438172043 155.857143,-1.00806452 149.857143,2.9811828 C146,5.97311828 144,10.5322581 144.428571,15.6612903 C145.428571,21.5026882 149.428571,26.2043011 153.142857,30.7634409 C157.428571,36.0349462 161.571429,41.0215054 161.428571,47.2903226 C161.142857,49.1424731 160.428571,50.7096774 158.571429,52.1344086 C156.428571,53.844086 151,53.844086 148,52.2768817 L145.714286,51.2795699 L145.857143,63.2473118 C145.857143,63.2473118 158.142857,67.3790323 168.285714,60.1129032 C170.571429,58.4032258 172.142857,55.9811828 173.142857,53.5591398 C175.428571,47.7177419 174.571429,40.594086 171,34.4677419 C169.428571,31.4758065 167.142857,28.7688172 164.857143,26.061828 C162.142857,22.9274194 159.714286,20.077957 158.571429,16.8010753 C158.142857,14.8064516 158.285714,12.6693548 160.285714,11.2446237 C162.285714,9.96236559 165.714286,11.3870968 168.714286,13.3817204 C170.714286,14.6639785 171.714286,15.5188172 171.714286,15.5188172 L171.285714,4.12096774 L171,3.69354839 Z" id="Path"></path>
                        <polygon id="Path" points="142.571429 11.3870968 142.571429 1.27150538 113.571429 1.27150538 113.571429 63.2473118 142.571429 63.2473118 142.571429 53.1317204 126 53.1317204 126 35.0376344 136.714286 35.0376344 136.714286 24.922043 126 24.922043 126 11.3870968"></polygon>
                        <polygon id="Path" points="27.8571429 52.9892473 13.5714286 52.9892473 13.5714286 1.27150538 0.142857143 1.27150538 0.142857143 63.2473118 26.4285714 63.2473118"></polygon>
                        <path d="M58.4285714,63.2473118 L70.4285714,63.2473118 L64.5714286,1.41397849 L50.4285714,1.41397849 L50.2857143,1.41397849 C42.4285714,2.2688172 39.5714286,6.1155914 38.5714286,9.10752688 L38.5714286,9.39247312 C38.2857143,11.672043 36.4285714,24.2096774 35.7142857,28.3413978 L35.5714286,29.4811828 C32.1428571,29.9086022 29.1428571,30.7634409 27,31.6182796 L25.2857143,44.0134409 C25.2857143,44.0134409 28.8571429,42.7311828 34,41.733871 C32.8571429,49.2849462 30.8571429,63.3897849 30.8571429,63.3897849 L42.4285714,63.3897849 L45.8571429,40.8790323 C49.7142857,41.1639785 53.4285714,42.0188172 56.4285714,44.0134409 L58.4285714,63.2473118 Z M47.2857143,28.9112903 C47.5714286,26.9166667 47.8571429,24.922043 48.1428571,22.9274194 C48.5714286,19.9354839 48.8571429,16.8010753 49.5714286,13.8091398 C49.7142857,13.0967742 50.8571429,11.9569892 52,11.8145161 L52.1428571,11.8145161 C52.7142857,11.672043 53,11.672043 53.7142857,11.8145161 L55.1428571,30.6209677 C54,30.3360215 52.8571429,29.9086022 51.5714286,29.766129 C50.2857143,29.1962366 48.7142857,29.0537634 47.2857143,28.9112903 Z" id="Shape"></path>
                        <path d="M97,28.3413978 L97,28.3413978 L110.571429,1.27150538 L97.5714286,1.27150538 L86.2857143,23.7822581 L86,23.6397849 L86,1.27150538 L73.4285714,1.27150538 L73.4285714,63.1048387 L86,63.1048387 L86,36.0349462 C99.8571429,42.8736559 97.8571429,63.1048387 97.8571429,63.1048387 L110.571429,63.1048387 C110.857143,51.5645161 108,36.4623656 97,28.3413978 Z" id="Path"></path>
                    </g>
                    <path d="M288.857143,53.2849462 C288.857143,82.3494624 265.285714,105.857527 236.142857,105.857527 C207,105.857527 183.428571,82.3494624 183.428571,53.2849462 C183.428571,24.2204301 207.142857,0.712365591 236.142857,0.712365591 C265.142857,0.712365591 288.857143,24.2204301 288.857143,53.2849462 Z M236.142857,15.5295699 C215.285714,15.5295699 198.285714,32.483871 198.285714,53.2849462 C198.285714,74.0860215 215.285714,91.0403226 236.142857,91.0403226 C257,91.0403226 274,74.0860215 274,53.2849462 C274,32.483871 257,15.5295699 236.142857,15.5295699 Z" id="Shape"></path>
                </g>
            </g>
        </g>
    </g>
</svg>