<?xml version="1.0" encoding="utf-8"?>
<!-- Generator: Adobe Illustrator 24.0.0, SVG Export Plug-In . SVG Version: 6.00 Build 0)  -->
<svg version="1.1" id="Layer_1" xmlns="http://www.w3.org/2000/svg" xmlns:xlink="http://www.w3.org/1999/xlink" x="0px" y="0px"
	 viewBox="0 0 500 107" style="enable-background:new 0 0 500 107;" xml:space="preserve">
<style type="text/css">
	.st0{fill:#EC1F31;}
</style>
<title>partner-logos-landolakes-new</title>
<desc>Created with Sketch.</desc>
<g id="partner-logos-landolakes-new">
	<g id="lol-logo-foodservice" transform="translate(1.000000, 0.000000)">
		<g id="Group">
			<path id="Shape" class="st0" d="M489.3,23.8c5,0,9,4,9,9.1s-4,9.3-9,9.3s-9.1-4-9.1-9.3C480.1,27.8,484.1,23.8,489.3,23.8
				L489.3,23.8z M489.1,25.2c-4,0-7.3,3.4-7.3,7.7c0,4.4,3.3,7.8,7.4,7.8s7.3-3.4,7.3-7.7C496.6,28.6,493.3,25.2,489.1,25.2
				L489.1,25.2z M487.4,38.2h-1.6V27.9c0.9-0.1,1.7-0.3,2.9-0.3c1.6,0,2.6,0.3,3.1,0.9c0.6,0.4,1,1.1,1,2.1c0,1.3-0.9,2.1-2,2.4v0.1
				c0.9,0.1,1.6,1,1.7,2.4c0.3,1.6,0.4,2.1,0.7,2.6h-1.7c-0.3-0.3-0.4-1.3-0.7-2.6c-0.3-1.3-0.9-1.9-2.1-1.9h-1.1v4.4H487.4z
				 M487.4,32.5h1.1c1.3,0,2.4-0.4,2.4-1.7c0-0.9-0.7-1.9-2.4-1.9c-0.6,0-0.9,0-1.1,0.1V32.5z"/>
			<g>
				<g transform="translate(0.000000, 22.795699)">
					<path id="Path" class="st0" d="M120.4,0.9v61.8H108c0,0,0-2.4-0.1-6.1c-0.1-7.7-3.1-21.4-13.6-34.9v41H81.1V1
						c0,0,2.1-0.1,2.7-0.1c11.7,0,21,13.1,23.3,18.5V0.9H120.4z"/>
					<path id="Shape_1_" class="st0" d="M164.6,15.4c5.4,10,5,26.9-2,36.5c-4.9,6.7-14.1,10.8-24.3,10.8h-9.4V0.9h9.4
						C150,0.9,159.6,6.3,164.6,15.4z M152.3,18.9c-2.1-3.4-6.7-6.1-10.9-6.3h-0.1v39.5c4.9-0.6,8.9-3.3,11.6-8.1
						C156.3,37.9,157,26.9,152.3,18.9z"/>
					<polygon id="Path_1_" class="st0" points="29.9,52.6 13.9,52.6 13.9,0.9 0,0.9 0,62.8 28.7,62.8 					"/>
					<path id="Shape_2_" class="st0" d="M74.6,62.8L68.6,1H54.1H54c-8.1,0.9-11,5-12,8v0.3c-0.3,2.3-2.1,14.8-3,18.9l-0.1,1.1
						c-3.4,0.4-6.4,1.3-8.6,2l-1.7,12.4c0,0,3.6-1.3,8.6-2.3C36,49,33.9,62.8,33.9,62.8h12l3.4-22.2c4,0.3,7.9,1.3,11,3.4l0,0
						l2,18.8H74.6z M50.9,28.8c0.3-2,0.6-4.1,0.9-6.1c0.4-3,0.7-6.3,1.4-9.3c0.1-0.7,1.3-1.9,2.6-2h0.1c0.6-0.1,0.9-0.1,1.7,0
						L59,30.3c-1.3-0.4-2.7-0.9-4.1-1C53.6,29.1,52.1,28.9,50.9,28.8z"/>
				</g>
				<g transform="translate(304.714286, 22.379032)">
					<path id="Path_2_" class="st0" d="M171,3.7C165-0.4,155.9-1,149.9,3c-3.9,3-5.9,7.6-5.4,12.7c1,5.8,5,10.5,8.7,15.1
						c4.3,5.3,8.4,10.3,8.3,16.5c-0.3,1.9-1,3.4-2.9,4.8c-2.1,1.7-7.6,1.7-10.6,0.1l-2.3-1l0.1,12c0,0,12.3,4.1,22.4-3.1
						c2.3-1.7,3.9-4.1,4.9-6.6c2.3-5.8,1.4-13-2.1-19.1c-1.6-3-3.9-5.7-6.1-8.4c-2.7-3.1-5.1-6-6.3-9.3c-0.4-2-0.3-4.1,1.7-5.6
						c2-1.3,5.4,0.1,8.4,2.1c2,1.3,3,2.1,3,2.1l-0.4-11.4L171,3.7z"/>
					<polygon id="Path_3_" class="st0" points="142.6,11.4 142.6,1.3 113.6,1.3 113.6,63.2 142.6,63.2 142.6,53.1 126,53.1 126,35 
						136.7,35 136.7,24.9 126,24.9 126,11.4 					"/>
					<polygon id="Path_4_" class="st0" points="27.9,53 13.6,53 13.6,1.3 0.1,1.3 0.1,63.2 26.4,63.2 					"/>
					<path id="Shape_3_" class="st0" d="M58.4,63.2h12L64.6,1.4H50.4h-0.1c-7.9,0.9-10.7,4.7-11.7,7.7v0.3
						c-0.3,2.3-2.1,14.8-2.9,18.9l-0.1,1.1c-3.4,0.4-6.4,1.3-8.6,2.1L25.3,44c0,0,3.6-1.3,8.7-2.3c-1.1,7.6-3.1,21.7-3.1,21.7h11.6
						l3.4-22.5c3.9,0.3,7.6,1.1,10.6,3.1L58.4,63.2z M47.3,28.9c0.3-2,0.6-4,0.9-6c0.4-3,0.7-6.1,1.4-9.1c0.1-0.7,1.3-1.9,2.4-2h0.1
						c0.6-0.1,0.9-0.1,1.6,0l1.4,18.8c-1.1-0.3-2.3-0.7-3.6-0.9C50.3,29.2,48.7,29.1,47.3,28.9z"/>
					<path id="Path_5_" class="st0" d="M97,28.3L97,28.3l13.6-27.1h-13L86.3,23.8L86,23.6V1.3H73.4v61.8H86V36
						c13.9,6.8,11.9,27.1,11.9,27.1h12.7C110.9,51.6,108,36.5,97,28.3z"/>
				</g>
				<path id="Shape_4_" class="st0" d="M288.9,53.3c0,29.1-23.6,52.6-52.7,52.6s-52.7-23.5-52.7-52.6s23.7-52.6,52.7-52.6
					S288.9,24.2,288.9,53.3z M236.1,15.5c-20.9,0-37.9,17-37.9,37.8s17,37.8,37.9,37.8s37.9-17,37.9-37.8S257,15.5,236.1,15.5z"/>
			</g>
		</g>
	</g>
</g>
</svg>
