<?xml version="1.0" encoding="UTF-8"?>
<svg width="500px" height="199px" viewBox="0 0 500 199" version="1.1" xmlns="http://www.w3.org/2000/svg" xmlns:xlink="http://www.w3.org/1999/xlink">
    <!-- Generator: Sketch 55.1 (78136) - https://sketchapp.com -->
    <title>partner-logos-antelliq</title>
    <desc>Created with Sketch.</desc>
    <g id="partner-logos-antelliq" stroke="none" stroke-width="1" fill="none" fill-rule="evenodd">
        <path d="M156.249658,126.835519 C156.249658,113.899943 149.356271,111.091505 142.462885,111.091505 C135.569498,111.091505 128.676112,113.730046 128.676112,126.580103 L128.676112,162.578962 L111.400171,162.578962 L111.400171,95.8577537 L128.676112,95.8577537 L128.676112,100.7939 C132.506214,97.9854618 137.101425,94.5812429 146.207469,94.5812429 C160.845439,94.5812429 173.44008,103.177024 173.44008,124.1126 L173.44008,162.578962 L156.164709,162.578962 L156.164709,126.835519 L156.249658,126.835519 Z" id="Fill-23" fill="#00529C"></path>
        <path d="M272.16049,110.24008 C264.16049,110.24008 257.692417,115.005758 255.139966,122.154561 L288.415336,122.154561 C287.47862,115.431642 280.415336,110.24008 272.16049,110.24008 M273.096636,148.791961 C279.138826,148.791961 285.606899,146.579304 289.52138,141.302794 L301.350342,150.749772 C295.308723,159.344983 284.670182,164.366078 273.266534,164.366078 C253.182155,164.366078 237.693558,149.302794 237.693558,129.814196 C237.693558,110.835861 251.054447,94.5810148 272.244869,94.5810148 C291.904504,94.5810148 305.861174,110.581015 305.861174,129.388883 C305.861174,131.176226 305.690707,133.218415 305.435291,134.835291 L254.544185,134.835291 C256.501425,143.005188 263.139396,148.791961 273.096636,148.791961" id="Fill-25" fill="#00529C"></path>
        <path d="M336.072976,140.792474 L336.072976,58.5826682 L318.796465,65.1356899 L318.796465,144.706956 C318.796465,157.387115 325.860319,164.366021 338.625998,164.366021 C341.434436,164.366021 344.072406,163.770239 346.114595,163.259407 L346.114595,147.941277 C345.093501,148.111174 343.987457,148.111174 343.476625,148.111174 C337.264538,148.026226 336.072976,145.217788 336.072976,140.792474" id="Fill-29" fill="#00529C"></path>
        <path d="M374.965108,140.792474 L374.965108,58.5826682 L357.689168,65.1356899 L357.689168,144.706956 C357.689168,157.387115 364.752452,164.366021 377.5187,164.366021 C380.326568,164.366021 382.964538,163.770239 385.007298,163.259407 L385.007298,147.941277 C383.985633,148.111174 382.87959,148.111174 382.368757,148.111174 C376.241619,148.026226 374.965108,145.217788 374.965108,140.792474" id="Fill-31" fill="#00529C"></path>
        <path d="M228.757469,112.368016 L228.757469,95.772805 L211.056214,95.772805 L211.056214,73.1354048 L193.779704,79.6884265 L193.779704,95.6872862 L183.227822,95.6872862 L183.227822,112.283067 L193.779704,112.283067 L193.779704,142.665051 C193.779704,155.770525 200.503193,164.281357 213.609236,164.281357 C221.864082,164.281357 226.970125,162.578392 226.970125,162.578392 L226.970125,147.260262 C226.970125,147.260262 222.885177,147.941562 218.545382,147.941562 C212.332725,147.941562 211.056214,143.600627 211.056214,138.919897 L211.056214,112.197548 L228.757469,112.197548 L228.757469,112.368016 Z" id="Fill-35" fill="#00529C"></path>
        <polygon id="Fill-19" fill="#00529C" opacity="0.6" points="68.2526796 1.56322691 33.3604333 1.56322691 50.7213227 47.0934436"></polygon>
        <path d="M34.977195,122.750513 L66.5507412,122.750513 L50.8916762,81.4757127 L34.977195,122.750513 Z M73.1887115,140.366819 L28.4247434,140.366819 L19.9994299,162.578905 L0,162.578905 L41.6157355,58.5823261 L60.3380844,58.5823261 L101.783922,162.578905 L81.7844926,162.578905 L73.1887115,140.366819 Z" id="Fill-21" fill="#00529C"></path>
        <path d="M396.666762,162.493786 L413.942702,162.493786 L413.942702,95.772577 L396.666762,95.772577 L396.666762,162.493786 Z M394.453535,73.7309578 C394.453535,67.518301 399.219213,62.9230901 405.43244,62.9230901 C411.644527,62.9230901 416.240308,67.518301 416.240308,73.7309578 C416.240308,79.9436146 411.644527,84.709293 405.43244,84.709293 C399.219213,84.709293 394.453535,79.9436146 394.453535,73.7309578 L394.453535,73.7309578 Z" id="Fill-27" fill="#00529C"></path>
        <path d="M464.153592,147.770924 C454.025884,147.770924 445.771038,139.34561 445.771038,129.38894 C445.771038,119.516648 454.025884,111.091334 464.153592,111.091334 C474.451197,111.091334 482.706043,119.516648 482.706043,129.38894 C482.706043,139.34561 474.365678,147.770924 464.153592,147.770924 L464.153592,147.770924 Z M482.706043,198.066819 L499.981984,191.514367 L499.981984,95.772634 L482.706043,95.772634 L482.706043,100.70878 C477.259065,96.3684151 470.876511,94.4966933 464.153592,94.4966933 C444.494527,94.4966933 428.749943,109.985291 428.749943,129.303421 C428.749943,148.537172 444.494527,164.281186 464.153592,164.281186 C471.046978,164.281186 477.344584,162.493843 482.706043,158.068529 L482.706043,198.066819 Z" id="Fill-33" fill="#00529C"></path>
    </g>
</svg>