<?xml version="1.0" encoding="UTF-8"?>
<svg width="200px" height="200px" viewBox="0 0 200 200" version="1.1" xmlns="http://www.w3.org/2000/svg" xmlns:xlink="http://www.w3.org/1999/xlink">
    <!-- Generator: Sketch 55.1 (78136) - https://sketchapp.com -->
    <title>particle-icon-create</title>
    <desc>Created with Sketch.</desc>
    <g id="particle-icon-create" stroke="none" stroke-width="1" fill="none" fill-rule="evenodd">
        <path d="M204,143.5 C204,89.0999521 159.900048,45 105.5,45 L94.5,45 C79.3121694,45 67,57.3121694 67,72.5 C67,87.6878306 79.3121694,100 94.5,100 L105.5,100 C129.524387,100 149,119.475613 149,143.5 C149,158.687831 161.312169,171 176.5,171 C191.687831,171 204,158.687831 204,143.5 Z" id="Path" fill="#A6CE39" fill-rule="nonzero" transform="translate(135.500000, 108.000000) rotate(-90.000000) translate(-135.500000, -108.000000) "></path>
        <path d="M29,94.5 C13.8121694,94.5 1.5,82.1878306 1.5,67 C1.5,51.8121694 13.8121694,39.5 29,39.5 C83.4000479,39.5 127.5,83.5999521 127.5,138 L127.5,149 C127.5,164.187831 115.187831,176.5 100,176.5 C84.8121694,176.5 72.5,164.187831 72.5,149 L72.5,138 C72.5,113.975613 53.0243866,94.5 29,94.5 Z M29,82 C59.927946,82 85,107.072054 85,138 L85,149 C85,157.284271 91.7157288,164 100,164 C108.284271,164 115,157.284271 115,149 L115,138 C115,90.5035115 76.4964885,52 29,52 C20.7157288,52 14,58.7157288 14,67 C14,75.2842712 20.7157288,82 29,82 Z" id="Combined-Shape" fill="#58B0E3" fill-rule="nonzero"></path>
        <path d="M72.5,138 C72.5,127.875789 74.0274321,118.108329 76.8644247,108.915492 C82.0265307,117.392615 85,127.349062 85,138 L85,149 C85,157.284271 91.7157288,164 100,164 C108.284271,164 115,157.284271 115,149 L115,138 C115,115.320179 106.220767,94.6908573 91.8753056,79.325041 C94.3796162,75.9534554 97.0943194,72.7474643 99.9999939,69.7264889 C117.029997,87.4322478 127.5,111.493424 127.5,138 L127.5,149 C127.5,164.187831 115.187831,176.5 100,176.5 C84.8121694,176.5 72.5,164.187831 72.5,149 L72.5,138 Z" id="Combined-Shape" fill="#398E32" fill-rule="nonzero"></path>
    </g>
</svg>