<?xml version="1.0" encoding="UTF-8"?>
<svg width="40px" height="40px" viewBox="0 0 40 40" version="1.1" xmlns="http://www.w3.org/2000/svg" xmlns:xlink="http://www.w3.org/1999/xlink">
    <!-- Generator: Sketch 55.1 (78136) - https://sketchapp.com -->
    <title>particle-check</title>
    <desc>Created with Sketch.</desc>
    <g id="particle-check" stroke="none" stroke-width="1" fill="none" fill-rule="evenodd">
        <path d="M2.30761184,28.5 L20.6923882,28.5 C23.4538119,28.5 25.6923882,26.2614237 25.6923882,23.5 C25.6923882,20.7385763 23.4538119,18.5 20.6923882,18.5 L2.30761184,18.5 C-0.453811905,18.5 -2.69238816,20.7385763 -2.69238816,23.5 C-2.69238816,26.2614237 -0.453811905,28.5 2.30761184,28.5 Z" id="Line-Copy-3" fill="#A6CE39" fill-rule="nonzero" transform="translate(11.500000, 23.500000) rotate(45.000000) translate(-11.500000, -23.500000) "></path>
        <path d="M14.2684302,26.3515138 L39.0171675,25.644407 C41.7774649,25.5655414 43.9511947,23.2639451 43.8723291,20.5036477 C43.7934635,17.7433504 41.4918671,15.5696205 38.7315698,15.6484862 L13.9828325,16.355593 C11.2225351,16.4344586 9.04880526,18.7360549 9.1276709,21.4963523 C9.20653653,24.2566496 11.5081329,26.4303795 14.2684302,26.3515138 Z" id="Line-Copy-4" fill="#58B0E3" fill-rule="nonzero" transform="translate(26.500000, 21.000000) rotate(135.000000) translate(-26.500000, -21.000000) "></path>
        <path d="M17.897542,22.8264742 L21.5355339,26.4644661 C23.4489465,28.3778787 23.487368,31.4562613 21.6507986,33.4164593 L21.6350658,33.4331177 C20.6706402,34.4542742 19.3780317,34.9794144 18.0764216,34.9994187 C16.7647414,35.0167395 15.4576623,34.5287301 14.4644661,33.5355339 L14.4482639,33.5193317 C12.5564608,31.6123852 12.5069488,28.534161 14.3649342,26.5668823 L17.897542,22.8264742 Z" id="Combined-Shape" fill="#398E32" fill-rule="nonzero"></path>
    </g>
</svg>