<?xml version="1.0" encoding="UTF-8"?>
<svg width="200px" height="200px" viewBox="0 0 200 200" version="1.1" xmlns="http://www.w3.org/2000/svg" xmlns:xlink="http://www.w3.org/1999/xlink">
    <!-- Generator: Sketch 55.1 (78136) - https://sketchapp.com -->
    <title>particle-icon-transform</title>
    <desc>Created with Sketch.</desc>
    <g id="particle-icon-transform" stroke="none" stroke-width="1" fill="none" fill-rule="evenodd">
        <path d="M125.109127,100 L91.5545635,133.554564 C80.8151455,144.293982 80.8151455,161.706018 91.5545635,172.445436 C102.293982,183.184855 119.706018,183.184855 130.445436,172.445436 L183.445436,119.445436 C194.184855,108.706018 194.184855,91.2939815 183.445436,80.5545635 L130.445436,27.5545635 C119.706018,16.8151455 102.293982,16.8151455 91.5545635,27.5545635 C80.8151455,38.2939815 80.8151455,55.7060185 91.5545635,66.4454365 L125.109127,100 Z" id="Path" fill="#A6CE39" fill-rule="nonzero"></path>
        <path d="M36.427408,127.664105 C21.2395774,127.664105 8.92740802,115.351936 8.92740802,100.164105 C8.92740802,84.9762746 21.2395774,72.6641052 36.427408,72.6641052 L163.621582,72.6641052 C178.809412,72.6641052 191.121582,84.9762746 191.121582,100.164105 C191.121582,115.351936 178.809412,127.664105 163.621582,127.664105 L36.427408,127.664105 Z M36.427408,115.164105 L163.621582,115.164105 C171.905853,115.164105 178.621582,108.448376 178.621582,100.164105 C178.621582,91.879834 171.905853,85.1641052 163.621582,85.1641052 L36.427408,85.1641052 C28.1431368,85.1641052 21.427408,91.879834 21.427408,100.164105 C21.427408,108.448376 28.1431368,115.164105 36.427408,115.164105 Z" id="Combined-Shape" fill="#58B0E3" fill-rule="nonzero"></path>
        <path d="M110.273232,85.1641052 L97.7732323,72.6641052 L163.621582,72.6641052 C178.809412,72.6641052 191.121582,84.9762746 191.121582,100.164105 C191.121582,115.351936 178.809412,127.664105 163.621582,127.664105 L97.4450218,127.664105 L109.945022,115.164105 L163.621582,115.164105 C171.905853,115.164105 178.621582,108.448376 178.621582,100.164105 C178.621582,91.879834 171.905853,85.1641052 163.621582,85.1641052 L110.273232,85.1641052 Z" id="Combined-Shape" fill="#398E32" fill-rule="nonzero"></path>
    </g>
</svg>