<?xml version="1.0" encoding="utf-8"?>
<!-- Generator: Adobe Illustrator 24.0.0, SVG Export Plug-In . SVG Version: 6.00 Build 0)  -->
<svg version="1.1" id="Layer_1" xmlns="http://www.w3.org/2000/svg" xmlns:xlink="http://www.w3.org/1999/xlink" x="0px" y="0px"
	 viewBox="0 0 500 311" style="enable-background:new 0 0 500 311;" xml:space="preserve">
<style type="text/css">
	.st0{fill-rule:evenodd;clip-rule:evenodd;fill:#C30A14;}
	.st1{fill-rule:evenodd;clip-rule:evenodd;fill:#FEFEFE;}
</style>
<title>partner-logos-lely</title>
<desc>Created with Sketch.</desc>
<g id="partner-logos-lely">
	<path id="Fill-6" class="st0" d="M249.8,309.6C111.8,309.6,0,240.3,0,154.8C0,69.3,111.8,0,249.8,0c138,0,249.8,69.3,249.8,154.8
		C499.6,240.3,387.8,309.6,249.8,309.6"/>
	<polygon id="Fill-8" class="st1" points="323.8,225.2 262.1,197.8 262.1,111 291.3,98.5 291.3,186 323.8,198.8 	"/>
	<polygon id="Fill-10" class="st1" points="234.8,132.6 213.8,125.9 213.8,144.4 234.6,148.1 234.6,162 213.8,165.5 213.8,182.2 
		234.8,174.4 234.8,196.3 190.4,216.4 190.4,92 234.8,111 	"/>
	<polygon id="Fill-12" class="st1" points="174.6,223.5 104.5,255.1 104.5,55.2 136.7,69.1 136.7,211 174.6,196.9 	"/>
	<polygon id="Fill-14" class="st1" points="375.9,248.3 344.2,234.3 344.2,164.4 308.5,91.2 330.4,81.8 354.7,131.5 370.6,64.6 
		399.9,52.2 376,157.5 	"/>
</g>
</svg>
