<?xml version="1.0" encoding="utf-8"?>
<!-- Generator: Adobe Illustrator 24.0.0, SVG Export Plug-In . SVG Version: 6.00 Build 0)  -->
<svg version="1.1" id="Layer_1" xmlns="http://www.w3.org/2000/svg" xmlns:xlink="http://www.w3.org/1999/xlink" x="0px" y="0px"
	 viewBox="0 0 500 499" style="enable-background:new 0 0 500 499;" xml:space="preserve">
<style type="text/css">
	.st0{fill-rule:evenodd;clip-rule:evenodd;fill:#748086;}
</style>
<title>partner-logos-nestle</title>
<desc>Created with Sketch.</desc>
<g id="partner-logos-nestle">
	<path id="Fill-37" class="st0" d="M294.1,51.3c3.2,0,6-2.4,6-5.6c0-3.2-2.8-5.6-6-5.6s-5.6,2.4-5.6,5.6
		C288.5,48.8,290.9,51.3,294.1,51.3"/>
	<path id="Fill-39" class="st0" d="M216.3,41.2c2.8,0,4.8-2.4,4.8-4.8c0-2.8-2-4.8-4.8-4.8c-2.8,0-4.8,2-4.8,4.8
		C211.5,38.8,213.5,41.2,216.3,41.2"/>
	<path id="Fill-41" class="st0" d="M157.8,160.6l-2.4-2.4c6.9-6.5,13.7-16.1,14.9-21.8c0.8-5.6,8.9-4.4,7.3,1.2
		C175.6,145.3,166.7,154.1,157.8,160.6"/>
	<path id="Fill-43" class="st0" d="M108.2,43.2c-12.1,5.2-13.7,17.7-5.2,25.4c10.1,8.9,27.4,1.2,25.8-12.9
		c13.7,0.8,22.6-13.7,20.6-23.4c6-5.2,6.5-16.5-0.8-21c-8.1-4.8-15.3-3.2-20.2,6.1C115.9,16.6,103.8,26.3,108.2,43.2l-5.6-2.4
		c-7.7-16.5,5.6-33.1,22.2-29c3.6-8.1,15.7-16.5,29.4-8.5c10.5,6.5,12.9,23.4,1.6,31.5c5.2,15.3-5.6,28.2-21.8,26.6
		c-2,20.2-20.6,22.6-33.1,13.3c-6.9-5.6-9.7-12.9-10.9-18.6c-1.6-6.1-1.6-11.3-7.3-17.3c-4.4-4.4-12.5-4.4-12.5-4.4
		c0-14.5-13.3-27.8-30.2-21.4c-6-5.2-13.7-5.6-19,0.8c-2.8,3.6-4.8,13.3,4.8,17.7c-0.4,13.3,9.7,21.8,24.6,20.6
		c0.4,6.9,8.1,13.7,15.3,14.5l-0.4,3.6c-7.3-0.8-11.3,1.6-16.1,7.7c-17.3-0.8-29.4,7.3-29,19.8c-12.1,2-14.5,14.9-7.7,21.8
		c6.9,6.9,16.9,4,20.6-4c12.5,2.4,23.4-6.5,23.8-16.5c11.3,0,16.5-4.8,18.5-15.3l4,0.4c1.2,11.3-4,22.2-17.7,21
		c-0.4,13.7-13.3,21-25.8,16.5c-5.6,10.9-19,14.9-29.8,4.4C-4.7,115.8-0.6,98.5,13.5,94c0-13.3,10.1-25.8,29-21c0,0,2.4-6.1,8.5-6.5
		c-4-1.6-6.9-3.6-7.7-8.1c-14.5,3.2-26.6-10.1-23.4-23.4C7,28.3,6.6,15.4,13.1,7.7C19.9-0.4,31.2-2,40.9,6.5
		C58.2-2.8,77.2,8.9,76,28.3c12.1-0.8,19.4,9.3,17.7,20.2c2-4.8,4.4-6.9,8.9-7.7L108.2,43.2z"/>
	<path id="Fill-45" class="st0" d="M137.7,19.8l2.8,2c-5.6,12.1-15.3,24.2-23.8,31.5l-3.2-2.8C119.5,40.8,132,24.6,137.7,19.8"/>
	<path id="Fill-47" class="st0" d="M54.6,84.3l1.6,3.2c-6.9,6.9-19.8,16.5-27,20.2l-2.4-3.2C33.2,97.2,46.1,88,54.6,84.3"/>
	<path id="Fill-49" class="st0" d="M71.1,49.6l-3.2,4c-9.3-6.1-27.4-22.2-31.5-28.2l2.8-2.8C48.2,27.1,65.1,42.4,71.1,49.6"/>
	<path id="Fill-51" class="st0" d="M54.2,203.7c1.2,5.2,0,11.3,4.8,16.9c1.6,2,10.9,14.1,17.7,20.2c-9.3,3.6-27.4,11.3-40.3,12.9
		c-2.8,0.4-5.6,2-8.1,3.6c-1.6,2.8-3.2,7.7-4,13.3c-0.4,4-0.4,8.5-0.4,12.9c0,4,2,16.9,6.5,25.4c4.4,8.5,8.9,12.5,14.1,14.9
		c1.2-0.4,3.6-0.8,7.3-0.8c9.7-0.4,17.3,5.2,21,9.7c1.2,2,4,2.4,7.3,2.4c8.1,0,16.9-2.8,25-6.1c2-1.2,6.9-4.8,11.7-8.5
		c5.2-4,32.7-27.4,44.8-33.1c6.5,3.2,16.9,7.7,27.8,7.7c0.4,0,2.4,0.4,4.8-0.4c3.2-0.8,7.7-2,13.3-3.2c9.7-2,21-3.6,24.6-3.6
		c8.9,0.4,35.1,0.8,41.5,0.8c6.5,0,15.7-0.4,19.4-0.8c5.6-2,18.1-5.2,29.8-10.5c11.7-5.2,36.3-22.6,40.3-26.6c2-1.6,4-3.6,5.2-5.2
		c0.4-0.8,0.8-1.2,0.8-1.6c0-0.4-0.4-17.3-0.4-17.3s6-6.5,8.5-8.9v-0.8c-1.2-3.2-2-13.7-1.6-24.2l-5.6-2.8
		c-0.4,12.9-5.2,24.2-9.7,31.5c-8.9,1.2-26.2,6.5-32.3,13.7l3.6,0.8c5.6-3.2,11.7-5.2,19-5.2c6,0,8.9,1.6,8.9,3.2
		c0,1.2-1.2,4-1.6,5.2c-0.4,0.8-0.8,2.4-2,3.2c-8.5,9.3-17.7,16.9-29.4,23.4c-7.7,4.4-15.3,7.3-26.6,10.9c-3.6,0.8-8.5,2-11.3,3.2
		c-4.4,0-27-0.8-40.3-0.8c-13.3,0-40.7,2-49.2,4c-4,1.2-5.2,2.8-9.7,2.8c-8.5,0-19.8-4.4-26.6-7.7c-1.2,0-3.6,1.2-6,2.4
		c-4.8,2.4-15.7,17.7-22.2,12.9c-3.2,6.9-17.3,12.9-21.8,19.8c0.4-3.2,6-26.6,6.5-31.5c0-0.8,0.4-1.6-0.4-2.4
		c-4.8-8.5-19.4-13.7-27.4-15.3c-2-0.4-3.2-0.8-4.8-1.2l-12.9-3.6L61.9,263l13.7,2.4l-17.3,11.7c3.2-1.2,21.8-6.5,23-6.9
		c1.6-0.4,3.6-0.8,5.6,0c2.8,0.8,9.7,2.4,14.1,4c2.4,0.8,6.5,5.2,7.7,7.7c0.4,1.2,0.4,3.2,0.8,8.1c0,2.8-0.4,7.3-1.2,10.5
		c-2,8.5-6,14.9-7.3,17.3c-1.6,3.2-3.6,4.4-6,5.2c-3.6,2-8.5,2.8-13.3,3.2c-3.6,0-6-0.4-7.7-2.4c-4.4-6.5-16.1-12.5-27.8-10.1
		c-7.3-4.4-14.5-18.6-14.5-29.9c0-6.9,3.2-17.7,5.2-23c11.7-1.6,35.5-10.5,46.8-15.7c2.4,0,9.3-2.4,15.7-2.4
		c15.3,0,30.6,13.3,39.9,22.6c1.6-2.4,4.4-6.5,12.5-6.5c10.9,0,17.3,10.1,20.2,20.2l5.6-4c-0.8-5.6-4-12.1-8.5-16.9
		c-3.6-3.6-10.9-6.9-16.5-6.9c-3.6,0-6.9,0.8-9.3,0.8c-7.7,0-10.9-3.6-16.9-7.7c-6.1-4-17.7-10.5-26.2-10.5c-5.2,0-7.7,2-12.1,2
		c-6.5,0-8.9-2.4-11.7-6.5c-1.6-1.6-8.1-7.3-9.7-9.7c-1.2-1.6-2.8-6.9-3.6-9.7L54.2,203.7z"/>
	<path id="Fill-53" class="st0" d="M63.1,210.2c2,2,3.6,4,6,6.1c2.4,1.6,5.2,3.2,7.7,4.8c4,2,8.5,4.4,12.5,6.1
		c4,0.8,8.9,1.2,13.3,1.2c6.5,0,14.1-1.2,20.6,2c4.4,1.6,4.4,6.5,8.1,7.7c5.2,2,19.8,2.4,27.8,2.4c16.1,0,33.5-2,44-4.4l-4.8-5.6
		c-7.3,1.2-28.2,3.6-37.9,3.6c-13.3,0-26.2-2.4-26.2-7.7c0-4,4-9.7,12.1-9.7c8.5,0,21.4,5.2,23.8,6.1c2.4,0.4,3.2,0.4,4.8-0.4
		l4.8-2.4c-6.5-3.2-29.4-10.9-37.5-10.9c-3.6,0-6,0.4-8.5,3.6c-2.8,4-11.3,7.7-24.2,7.7c-7.3,0-17.7-1.6-19.8-2.4
		c-4-1.6-11.7-6.1-16.5-9.7c-6.5-4.4-12.1-9.7-15.7-15.7c-1.2-1.6-2-3.6-2-5.6c0-1.6,0.8-2.8,0.8-4c1.2,1.6,2.4,2.8,4,4
		c6.9,6.9,16.9,11.7,27.4,13.7c3.2,0.8,5.6,1.2,8.9,1.2c4.4,0,8.5-2.4,11.3-4.8l-4.4-4.8c-1.2,0.4-4,0.4-5.6,0.4
		c-15.3,0-34.7-9.7-39.1-21.4c-0.4-1.2-1.2-1.6-0.4-2.8c0.4-1.2,0.8-3.2,1.2-5.2c0.8,0.8,2.8,2.4,4.8,4c5.6,3.6,16.5,8.5,18.9,10.1
		c5.2-1.6,9.3-3.6,12.5-5.2c3.2-1.6,7.7-3.2,12.5-3.2c11.3,0,24.2,6.5,36.3,12.5l8.1-3.2c-10.9-7.7-33.9-18.2-46.8-18.2
		c-7.7,0-14.9,5.6-20.2,5.6c-6,0-23.8-8.9-23.8-16.1c0-5.6,11.3-8.9,30.2-10.9c-3.2,4.4-6.5,9.7-9.3,14.5l4.8,2.8
		c29-42.4,59.7-69.8,85.1-86.7c9.3-6.1,11.3-9.7,14.5-16.1c8.1-16.5,15.7-28.6,28.6-28.6c6,0,10.9,3.2,14.5,7.3l9.3,2.8l-9.7,6.5
		l9.7,4c-12.5,3.6-29.8,16.1-37.1,34.3c-13.3,0.4-19.8,11.7-24.2,20.6c-3.2,6.5-7.7,8.9-14.9,13.3l-55.2,38.7l7.7,1.2l51.2-34.3
		c10.1-6.9,14.9-12.1,17.3-16.5c4.4-9.7,9.7-16.9,19.8-16.9c4.8,0,10.1,2.4,14.5,6.5l8.9,2.8l-9.7,6.1l8.1,4.8
		c-23.4,7.3-37.9,24.2-46.4,56.5l6,1.2c3.2-10.5,6.5-20.2,11.7-29c13.7,0,27.4-0.4,41.1-0.4c35.9,0,65.7,1.6,81.9,6.1l-5.6-9.7
		c-17.3-3.2-42.3-4.4-76.2-4.4c-11.7,0-23,0.4-34.7,0.4c7.7-7.7,18.1-14.5,34.7-19.4l-11.7-6.5l12.9-7.3l-17.7-6.5
		c-2.8-2.8-6.9-5.6-11.7-6.9c5.6-17.3,25-27.4,43.5-34.3L240.9,40l12.9-7.3l-20.2-6.5c-5.2-6-10.1-8.9-18.1-8.9
		c-18.5,0-26.2,16.1-33.9,30.3c-3.6,7.7-6,10.9-12.9,15.3c-14.1,9.3-32.7,23.8-50,42c-8.9-6.5-27.8-25.8-32.7-36.3
		c-2,2.4-4,8.1-4,8.1c2,2,23.8,23.8,31.9,33.5c-0.4,0.4-1.2,1.2-1.6,2c-8.9,1.6-31.5,4-39.1,2.8l-4,7.7c5.6-0.4,27.8-3.2,37.5-3.6
		c-2.8,3.2-5.6,6.9-8.5,10.5c-29,3.2-48,9.3-48,19.8c0,1.6,0.4,3.6,0.4,5.6c0,4.4-1.6,6.1-4.8,8.1c-2,1.2-2,2.4-1.2,3.6
		c0.8,1.2,5.2,7.7,5.2,8.9c0,2.4-2,4.4-3.6,6.5c-1.6,1.6-1.6,2-0.4,4l8.5,17.7L63.1,210.2z"/>
	<path id="Fill-55" class="st0" d="M419.9,111.4c-1.6,1.6-3.2,4-4.8,6.1l-4.4-6.5c15.3-20.6,56.5-30.3,80.6-32.3V67.8
		c-3.2,0.8-6.5,2-9.7,2.8c-4,0.8-8.1,2-11.3,1.6c-3.6,0-6.5-1.2-7.7-3.2c-3.2-4.4,0-11.3,10.5-17.7l-8.5-7.3
		c-6.5,8.5-12.5,17.7-19,23c-6,5.2-12.1,7.7-16.9,4c-2.8-2-3.6-2.8-4-8.1c0.4-7.7,4.8-19.4,8.9-27l-9.7-1.2
		c-1.6,11.7-6.5,21.4-11.7,29.4c-6,10.1-14.1,17.3-22.6,23l-5.6-5.2c6.9-4,15.3-10.5,21-19.4c6.9-10.5,12.5-23.4,12.5-34.7l28.2,2.4
		c-4,5.2-10.5,16.9-12.9,25c-1.2,4.4-1.2,8.1,0.4,9.3c2.8,2,8.1-1.6,13.3-6.9c7.3-8.1,14.5-19.8,17.3-23.8l21,16.9
		c-9.3,4.8-18.1,10.5-16.5,13.7c1.6,2.8,7.7,2,14.1,0c5.2-1.6,10.9-4,15.3-6.9v27.8c-10.1,0-27,2-43.1,6.9c4,5.2,14.9,7.3,21.8,8.5
		l-3.2,22.6C455.4,115.8,441.7,111.8,419.9,111.4l7.3-6.5c15.7,0.4,31.9,5.2,40.7,9.7l1.2-8.5c-8.1-1.2-18.1-5.6-22.6-10.9
		c-6.9,2.4-13.7,5.6-19.4,9.7L419.9,111.4z"/>
	<path id="Fill-57" class="st0" d="M335.3,183.2l6.5-14.5c-6.9-8.1-14.5-18.2-21.4-29l-5.6-9.7c-13.3-25-8.5-37.1-15.3-48.4
		c-6.1-8.9-34.3-3.2-38.7-2.4l8.1-13.3L252.6,67l13.7-16.1c1.6-2.4,2-4,3.6-9.7c2.4-8.9,9.7-23.4,31.5-23.4
		c23.8,0,31.5,19.4,41.5,27.8c12.1,9.7,27.4,23,41.1,36.3l5.6,5.2c7.3,7.3,14.1,14.9,21,23.8l4.4,6.5c29,42,64.5,122.2,80.6,158.9
		c1.2,3.6,2.4,7.3,3.6,10.1c-10.9-6.1-22.6-13.3-35.1-21.8l-6.9-4.8c-4.4-3.2-8.9-6.5-13.3-9.7l-7.3-6.1c-4.4-3.2-8.9-6.9-12.9-10.5
		l14.5,83.5c0.8,5.2,5.2,4.4,8.5,0c3.2-4.4,4.8-5.6,3.2-11.3l-13.3-61.7l7.3,6.1l12.9,52c1.2,4.8,3.2,6.5,8.9,6.5
		c5.6,0.4,6.5-1.6,5.6-5.2l-14.1-43.6l6.9,4.8l13.3,39.1c3.6,10.1,0,11.3-6,11.3c-5.6,0-11.3-1.6-14.5,0.4
		c-3.2,2.4-7.3,8.1-12.5,12.9c-4,4.4-10.5,3.6-11.7-4.8l-16.1-96.4c-10.1-9.3-20.2-19-29-29c-3.6-1.6-8.1-3.6-12.1-5.2l-5.6-2.8
		c-2.4-1.2-4-1.6-4.4-2c-4.4,5.2-8.9,11.3-13.7,15.3c-2.4,2.4-4.4,3.6-8.1,3.6c-1.2,0-2.8,0-4-0.8c-1.6-0.8-2.8-2.4-4.4-4.8
		c-1.2-1.6-2.8-4-4.4-6.5c-3.2-5.2-6.5-12.1-9.7-17.3c-3.2-6.1-6.5-10.5-6.9-11.3c-0.4-1.2-2-2.4-2-2.4c-2,2.4-3.2,7.7-3.2,10.9
		l-5.6-2c0.4-4,2-9.3,3.2-11.7c0-2-2.4-4.8-4.4-4.8c-2.8,0-5.6,2.8-6.9,8.5l-6,2.8c0.4-9.3,3.6-19.4,12.9-19.4
		c7.3,0,12.1,5.6,15.3,10.9C321.1,164.2,332.8,179.9,335.3,183.2l4.4,5.6c0.8,3.6,2.4,5.6,3.2,6.9c1.6,2.4,3.2,2.4,5.6,0
		c1.2-0.8,4.4-3.6,8.1-7.3c2.8-2.8,5.6-6.9,6.9-8.5c3.2,1.2,9.7,4.4,14.5,6.5c-21.4-26.6-42.3-58.9-51.2-80.7
		c-3.6-9.3,3.6-12.1,6.9-3.2c9.7,24.2,37.5,67.4,58.1,90c23.4,25.8,66.5,63.7,94.8,78.7c-4-8.1-9.3-19.4-15.7-32.7
		c-34.3-19.4-68.6-54.9-84.7-85.5l6.9,0.8c14.9,26.6,50.8,62.1,72.2,72.2c-19.4-41.1-44.8-93.2-64.1-115.4
		c-24.6-27.8-51.2-49.6-64.1-60.5c-12.5-11.3-17.7-25-35.5-25c-14.9,0-23,10.9-25.8,21.4c-0.8,2.4-1.2,3.6-2.4,5.6l-7.3,8.5
		l15.3-1.6L272.4,71c0,0,23.8-5.2,32.3,6.1c8.9,12.1,3.2,25.8,18.1,52.8c6.5,11.7,22.2,32.7,27.4,37.5l-10.5,21.4L335.3,183.2z"/>
	<path id="Fill-59" class="st0" d="M100.6,186.8l-3.6-2.4c2-1.6,6-4.4,10.1-6.1c2-0.8,4.4-1.2,6-1.2c4,0,7.7,1.6,10.9,3.6
		c5.2,2.8,11.3,6.1,16.1,6.1c1.6,0,3.2-0.4,5.2-0.4c4.8,0,9.3,2,11.7,2c1.6,0,2.4-1.2,3.6-2.8c2.4-3.6,6-6.5,10.5-8.1
		c4.4-2,10.5-2.8,16.5-2.8c5.2,0,9.7,0.8,12.1,1.2c0,0-3.6,4.4-4.4,5.6c-5.2,0-14.5-0.4-20.6,2c-4,1.6-5.2,4-5.2,6.9
		c0,4.4,5.2,6.5,10.5,8.1c3.6,0.8,7.3,1.2,10.1,1.2c4,0,11.3-1.6,18.5-3.2c8.9-1.6,16.9-4,19.4-4.8l3.2,5.6
		c-9.7,3.2-19.8,6.5-29,8.1c-5.2,1.2-10.1,2-14.5,2c-7.7,0-15.7-3.2-22.2-6.5c-5.6-2.4-10.5-5.2-15.3-5.2c-4.8,0-9.7,1.6-14.1,4.4
		c-2.4,1.2-9.3,6.1-15.3,8.5c-4.8,1.6-8.5,2.8-13.3,2.8c-4,0-6.9-0.8-8.9-2.4l7.3-4.4c1.2,0.8,2.8,1.2,3.6,1.2
		c1.2,0,2.4-0.4,5.2-1.6c1.6-0.4,4-2,5.6-2.8c2.8-2,3.6-3.2,4.8-4c2.4-1.6,3.2-4,0.4-6.5c-1.6-1.2-2.8-2.4-4.4-3.6
		c-2.8-1.6-4.4-2.8-9.3-2.8C106.6,184.4,102.6,185.6,100.6,186.8"/>
	<path id="Fill-61" class="st0" d="M203,189.6c0,0-4.4-1.2-5.6-1.2c2.8-4,6.9-7.3,9.7-9.3c6-4,12.1-6.5,21.8-6.9
		c2.4-0.4,7.7-0.8,10.5-0.8c2.8,0.4,7.3,0.4,11.3,1.2c2.8,0.4,5.6,1.2,8.1,1.6c1.2,0.4,6,0.4,7.7,0c6.9-1.2,14.9-3.6,19-6.1l1.6,6.5
		c-8.9,4.8-19,9.3-28.6,9.3c-4.4,0-9.7-0.4-14.5-0.8c-8.1-0.8-15.3-2-17.7-2C219.1,181.2,209.4,184.4,203,189.6"/>
	<path id="Fill-63" class="st0" d="M196.5,225.5l-8.5-4c11.7-5.6,29.4-11.7,37.1-12.9c7.3-1.2,15.7-2,20.6-3.6
		c2.4,5.6,6.9,11.3,12.9,11.3c2.4,0,6-1.6,10.1-3.2c4.4-2,8.5-4,10.9-4.8c2.4-1.2,10.1-4.4,16.9-7.7c2.4-1.2,9.3-4.4,9.7-4.4
		l4.4,2.4c-1.2,5.6-3.6,12.9-6,18.2c-0.8,2-2,3.6-2.8,4.8c-2,2-5.2,5.2-9.3,8.1c-4.4,3.2-10.1,6.5-15.7,9.7
		c-4.4,2.4-8.9,5.2-13.7,7.3l-2-4.4c6.9-4,14.1-8.9,20.6-13.7c2.8-2,5.6-4.4,7.7-6.5c1.6-1.2,2.4-2.4,3.2-3.6c2-2.4,5.2-8.1,6-10.5
		c-2.8,1.2-12.5,6.1-16.9,8.1c-5.2,2.8-13.3,6.9-18.1,9.3c-3.2,1.6-6.5,2.4-8.9,2.4c-5.2,0-7.7-3.6-8.9-6.1
		c-3.2-5.6-6.5-6.1-15.7-6.1C219.5,215,205,219.5,196.5,225.5"/>
	<path id="Fill-65" class="st0" d="M246.1,198.9c0,0-1.2-4.8-2-6.9c0,0,1.6-0.4,3.6-0.4c2.8,0,10.9,0.8,14.1,0.8
		c12.1,0,16.5-3.6,20.2-6.9c3.2-2.8,6.5-5.2,14.5-5.2c7.3,0,15.7,2.8,18.1,4l-0.4,6.9c-3.6-2-8.5-3.2-12.9-3.2c-2.8,0-5.6,0-7.7,1.2
		c-2,1.2-3.6,2.8-5.6,4.4c-2,1.6-4.8,3.2-8.9,4.8c-3.6,1.6-8.5,2.4-15.7,2.4C254.2,200.9,249,199.3,246.1,198.9"/>
	<path id="Fill-67" class="st0" d="M168.7,249.3l5.6-2.4c4.8,2,12.5,4.4,17.7,4.4c3.2,0,5.6-1.2,7.7-2c1.6-0.8,20.6-10.1,29.8-13.3
		c2.8-1.2,6-1.6,7.3-1.6c2.4,0,2.4,0.8,3.2,2c1.6,2.8,15.7,22.6,16.9,23.8c11.7-3.6,23.8-8.9,30.6-15.3c7.3-6.9,13.3-14.9,19.4-21.4
		c2-2.4,4.8-4.4,6-5.2c6-3.2,25-3.6,32.7-3.2l-4.4,6.5c-14.1,0-21.8,1.6-25.4,4c-1.2,1.2-3.6,3.6-5.6,6.5
		c-4.8,6.1-10.1,14.5-12.1,16.1c4,2.8,8.5,5.2,15.7,5.2c11.7,0,20.2-7.3,24.6-11.3l4,2c-2.8,4-6.5,7.7-10.5,10.5
		c-4.8,3.2-10.9,5.6-14.1,6.5c-6.9-1.2-21.8-4.4-25.4-4.8c-12.9,5.2-34.3,13.7-41.1,15.7c-1.2,0.4-2.8,0.8-4.8,0.8
		c-5.6,0.4-13.3,0.4-20.6,0c-4.8,0-9.7,0-12.1-0.4l-6.5-6.5c5.6,1.2,7.7,1.2,12.9,1.2c12.1,0,20.2-2,22.6-2.4c2.4-0.8,2.8-2,2-4
		c-1.2-2.8-2.8-6-5.6-9.3c-1.6-1.6-4.8-4.4-6-5.2c-1.6-1.2-3.2-1.6-8.1,0c-4,1.2-17.3,8.5-23,11.7c-2.8,1.2-5.2,2-10.1,0.8
		C186.5,257.4,173.6,252.6,168.7,249.3"/>
	<path id="Fill-69" class="st0" d="M205.4,102.5c2.4,0,4.8-2.4,4.8-4.8c0-2.8-2.4-4.8-4.8-4.8c-2.8,0-4.8,2-4.8,4.8
		C200.6,100.1,202.6,102.5,205.4,102.5"/>
	<path id="Fill-71" class="st0" d="M388.1,381.2c0-3.6-3.2-6.9-7.3-6.9h-10.1c-4,0-7.3,3.2-7.3,6.9l0.4,108.1c0,3.6,2.8,6.9,6.9,6.9
		h10.1c4,0,7.3-3.2,7.3-6.9V381.2z"/>
	<path id="Fill-73" class="st0" d="M401,384.5v4.8c0,2.4,1.6,4,4,4h71c3.2,0,6.1-2.8,6.1-6.1v-8.5c0-3.2-2.8-6.5-6.1-6.1
		c0,0-68.5,6.9-71,7.3C402.6,380,401,382,401,384.5"/>
	<path id="Fill-75" class="st0" d="M343.3,496.2c-17.7,0-28.6-13.3-28.6-28.2v-43.2h-5.2c-2.4,0-4.8-2.4-4.8-4.8v-7.3
		c0-2.8,2.4-4.8,4.8-4.8h5.2v-26.6c0-3.6,2.8-6.9,6.9-6.9h10.1c3.6,0,6.5,3.2,6.5,6.9v26.6h15.7c2.8,0,4.8,2,4.8,4.8v7.3
		c0,2.4-2,4.8-4.8,4.8h-15.7v39.9c0,7.7,4.8,13.3,13.3,13.3h1.6c2.8,0,5.2,2,5.2,5.2v7.7c0,2.8-2.4,5.2-5.2,5.2H343.3z"/>
	<path id="Fill-77" class="st0" d="M157.4,440.9c0.8-10.1,9.7-17.7,20.2-17.7c10.9,0,19.8,7.7,21,17.7H157.4z M222.4,450.6
		c0-23-13.7-46-44.8-46c-28.6,0-44.4,22.6-44.4,46c0,25,16.9,47.2,44.8,47.2c19,0,37.5-9.7,41.1-26.2c0.4-2-1.2-5.2-4-5.2h-13.7
		c-2.4,0-4.4,1.2-5.6,3.2c-4,5.6-9.7,8.5-17.7,8.5c-12.1,0-20.2-9.3-21-19.8h57.7C219.9,458.3,222.4,455.5,222.4,450.6L222.4,450.6z
		"/>
	<path id="Fill-79" class="st0" d="M419.5,440.9c0.8-10.1,9.7-17.7,20.2-17.7c10.9,0,19.8,7.7,20.6,17.7H419.5z M484.5,450.6
		c0-23-13.7-46-44.8-46c-28.6,0-44.4,22.6-44.4,46c0,25,16.9,47.2,44.8,47.2c19,0,37.5-9.7,41.1-26.2c0.4-2-1.2-5.2-4-5.2h-13.7
		c-2.4,0-4.4,1.2-5.6,3.2c-4,5.6-9.7,8.5-18.1,8.5c-11.7,0-19.8-9.3-20.6-19.8h57.7C482,458.3,484.5,455.5,484.5,450.6L484.5,450.6z
		"/>
	<path id="Fill-81" class="st0" d="M295.3,375.6H109c-4.4,0-7.7,3.6-7.7,7.7l0.4,73.4c0,0-39.9-72.6-41.9-76.2
		c-2-3.6-6.5-6.9-12.1-6.9H32.4c-4.4,0-7.7,3.6-7.7,7.7v107.3c0,4.4,3.2,7.7,7.7,7.7h9.7c4.4,0,7.7-3.2,7.7-7.7l-0.4-75
		c0,0,40.3,73,42.3,75.8c2,4,6,6.9,11.7,6.9h14.1c4.4,0,7.7-3.2,7.7-7.7v-94.8h170.2c2.8,0,5.2-2.4,5.2-5.2v-7.7
		C300.6,378,298.2,375.6,295.3,375.6"/>
	<path id="Fill-83" class="st0" d="M265.1,422.4c8.1,0,14.1,2.8,16.5,8.1c0.8,2.4,2.8,2.8,5.6,2.8h11.3c1.6,0,4-1.6,4-4
		c0-12.9-15.7-24.6-37.5-24.6c-22.6,0-37.5,10.9-37.5,27.8c0,13.3,10.5,21,23,24.6c6,1.2,16.1,3.6,21,5.2c4.8,1.2,9.7,2.8,9.7,7.3
		c0,7.3-7.3,9.3-15.7,9.3c-7.7,0-15.3-3.2-17.3-8.9c-1.2-3.2-3.6-3.6-6.9-3.6H230c-2,0-4.4,2-4.4,4.4v1.6
		c0,12.5,16.9,25.4,40.3,25.4c16.1,0,39.1-6.9,39.1-28.6c0-12.9-8.5-21.8-22.6-25.4c-5.2-1.2-18.1-4.8-21-5.2
		c-5.2-1.6-10.1-3.2-10.1-7.3C251.4,424.4,257.4,422.4,265.1,422.4"/>
</g>
</svg>
