<?xml version="1.0" encoding="UTF-8"?>
<svg width="200px" height="200px" viewBox="0 0 200 200" version="1.1" xmlns="http://www.w3.org/2000/svg" xmlns:xlink="http://www.w3.org/1999/xlink">
    <!-- Generator: Sketch 55.1 (78136) - https://sketchapp.com -->
    <title>particle-icon-build</title>
    <desc>Created with Sketch.</desc>
    <g id="particle-icon-build" stroke="none" stroke-width="1" fill="none" fill-rule="evenodd">
        <path d="M37.6941738,169.694174 C22.5063432,169.694174 10.1941738,157.382004 10.1941738,142.194174 C10.1941738,127.006343 22.5063432,114.694174 37.6941738,114.694174 L162.694174,114.694174 C177.882004,114.694174 190.194174,127.006343 190.194174,142.194174 C190.194174,157.382004 177.882004,169.694174 162.694174,169.694174 L37.6941738,169.694174 Z" id="Path" fill="#A6CE39" fill-rule="nonzero"></path>
        <path d="M76,29 L126,29 C142.568542,29 156,42.4314575 156,59 L156,119 C156,135.568542 142.568542,149 126,149 L76,149 C59.4314575,149 46,135.568542 46,119 L46,59 C46,42.4314575 59.4314575,29 76,29 Z M76,44 C67.7157288,44 61,50.7157288 61,59 L61,119 C61,127.284271 67.7157288,134 76,134 L126,134 C134.284271,134 141,127.284271 141,119 L141,59 C141,50.7157288 134.284271,44 126,44 L76,44 Z" id="Combined-Shape" fill="#58B0E3" fill-rule="nonzero"></path>
        <path d="M46,114.694174 L61,114.694174 L61,119 C61,127.284271 67.7157288,134 76,134 L126,134 C134.284271,134 141,127.284271 141,119 L141,114.694174 L156,114.694174 L156,119 C156,135.568542 142.568542,149 126,149 L76,149 C59.4314575,149 46,135.568542 46,119 L46,114.694174 Z" id="Combined-Shape" fill="#398E32" fill-rule="nonzero"></path>
    </g>
</svg>