<?xml version="1.0" encoding="UTF-8"?>
<svg width="500px" height="296px" viewBox="0 0 500 296" version="1.1" xmlns="http://www.w3.org/2000/svg" xmlns:xlink="http://www.w3.org/1999/xlink">
    <!-- Generator: Sketch 55.1 (78136) - https://sketchapp.com -->
    <title>partner-logos-vas</title>
    <desc>Created with Sketch.</desc>
    <g id="partner-logos-vas" stroke="none" stroke-width="1" fill="none" fill-rule="evenodd">
        <path d="M239.341202,113.088763 C237.143467,119.732491 226.285453,125.290854 220.773258,128.533885 C191.090331,146.000784 160.166115,160.144512 128.862108,178.246429 C123.341202,174.558275 118.256707,171.014721 114.078136,167.554791 C111.537195,165.504268 109.052875,163.233362 106.647822,160.804791 C139.576394,149.716812 170.927439,128.995557 193.511063,107.047822 C197.244512,103.419774 201.372561,98.8396341 205.503223,93.6366725 C210.827265,94.109669 216.103397,94.9459059 221.284582,96.4040941 C228.829878,98.5269164 242.62169,103.172387 239.341202,113.088763 M138.491028,273.43284 C124.338589,279.730749 83.1434669,283.034756 83.785453,256.291725 C84.1469512,241.250784 111.793293,223.832666 131.978833,212.009495 C133.805488,213.63493 135.652178,215.23946 137.473606,216.871864 C145.806359,224.338763 159.87953,235.019077 159.783335,247.441551 C159.691376,259.124477 148.320296,269.060889 138.491028,273.43284 M17.372561,142.466812 C11.7401568,135.144512 25.1425958,124.188937 39.9779617,117.829181 C44.2959059,115.977265 48.6216899,114.28824 52.9527003,112.684582 C54.5694251,123.274303 58.4648955,133.639286 64.0128049,143.419774 C46.6321429,148.818728 25.7924216,153.411934 17.372561,142.466812 M81.4431185,103.809146 C110.781098,96.3483449 140.689634,93.5800523 171.844686,93.305662 C147.805488,113.011237 118.43615,126.292596 88.6957317,135.512979 C83.8673345,125.493815 81.0528746,114.63493 81.4431185,103.809146 M115.663502,52.4276132 C136.247997,37.4267422 161.915244,24.3065331 187.75061,22.8291812 C196.165244,22.3474739 209.755836,22.3692509 212.533711,32.3779617 C214.8473,40.718554 207.580749,52.0826655 203.317683,58.6148955 C201.390854,61.5687282 199.342944,64.4058362 197.229704,67.1776132 C191.313328,66.3405052 185.290679,65.8483449 179.31507,65.7237805 C151.293293,65.1375436 122.322909,66.2864983 94.4640244,71.6349303 C100.538937,64.2856272 108.07378,57.958101 115.663502,52.4276132 M219.946603,72.3352787 C236.037195,43.9781359 242.32378,10.7917247 202.276742,2.60792683 C155.227091,-7.00792683 95.6068815,22.6079268 67.2767422,59.4067073 C61.4291812,67.0033972 57.4683798,74.7925958 55.0502613,82.6358014 C46.5023519,85.8866725 38.1730836,89.6993902 30.1417247,94.1802265 C16.1260453,101.999913 2.73580139,113.395383 0.615592334,130.459843 C-2.65705575,156.812631 22.1373693,166.614895 50.4762195,168.844861 C60.6713415,169.647125 71.1138502,169.001655 81.579007,167.209843 C87.3960801,173.528659 93.7697735,179.372735 100.445732,184.573084 C103.031098,186.761237 105.579007,188.993815 108.151307,191.19939 C78.5981707,211.625348 39.0162892,248.478136 72.7898084,280.089634 C101.395209,306.863153 164.079878,296.46507 182.062456,261.452003 C196.066812,234.184582 178.881272,214.023432 156.987544,197.467683 C187.195732,180.664547 227.385627,159.393641 243.123432,142.564373 C275.585976,107.850958 250.413502,78.4119338 219.946603,72.3352787" id="Fill-1" fill="#00529C"></path>
        <path d="M499.955749,266.59878 C499.955749,284.240767 485.866899,295.199826 463.186585,295.199826 C450.170035,295.199826 437.864286,291.221603 427.599477,283.694599 C426.35993,282.867944 426.075958,281.496864 426.848606,279.950697 L431.666551,271.739024 C432.120383,270.944599 432.663066,270.48554 433.321603,270.340941 C433.999303,270.191986 434.73101,270.401916 435.547213,270.98554 C444.106446,277.407143 453.782404,280.794774 463.541115,280.794774 C475.83554,280.794774 483.777178,275.50122 483.777178,267.306969 C483.777178,257.810453 472.953136,255.683275 463.402613,253.806098 C451.968815,251.424564 428.192683,246.472474 428.192683,224.86446 C428.192683,212.490767 437.544599,198.039547 463.896516,198.039547 C474.852091,198.039547 485.074216,200.800871 495.15,206.4777 C496.049826,206.860105 496.417422,207.497735 496.555052,207.960279 C496.758885,208.644948 496.598606,209.429791 496.106446,210.170209 L491.329443,218.132753 C490.994948,218.806969 490.420035,219.304355 489.737979,219.48554 C489.063763,219.665854 488.320732,219.515157 487.65,219.069164 C482.195296,216.145819 473.465331,212.620557 463.186585,212.620557 C451.183101,212.620557 444.015854,217.197213 444.015854,224.86446 C444.015854,233.917596 453.770209,236.562195 466.521951,239.076132 C479.836411,241.739895 499.955749,245.763415 499.955749,266.59878 M391.976655,252.279094 L391.976655,277.780836 C388.475784,278.796516 380.431359,280.794774 371.385192,280.794774 C357.260627,280.794774 348.486237,274.879268 348.486237,265.354878 C348.486237,255.48554 356.404355,250.270383 371.385192,250.270383 C378.413066,250.270383 386.510627,251.288676 391.976655,252.279094 M371.919164,198.039547 C358.688328,198.039547 346.942683,201.277352 337.845122,207.487282 C336.743206,208.589199 337.19878,209.776481 337.762369,210.887979 L342.906098,218.337456 C343.369512,219.032578 343.925261,219.448084 344.560279,219.576132 C345.196167,219.698084 345.871254,219.532578 346.537631,219.087456 C353.388676,214.9777 362.447038,212.620557 371.385192,212.620557 C385.819861,212.620557 391.976655,218.884495 391.976655,233.567422 L391.976655,238.394948 C386.469686,237.452439 378.688328,236.400174 371.385192,236.400174 C347.027178,236.400174 332.484495,247.224216 332.484495,265.354878 C332.484495,284.04216 347.027178,295.199826 371.385192,295.199826 C383.082056,295.199826 395.986237,293.05784 405.887805,289.478571 C407.196167,289.041289 407.976655,287.923693 407.976655,286.488153 L407.976655,233.210279 C407.976655,210.860105 394.833798,198.039547 371.919164,198.039547 M323.781533,200.841812 C324.267596,201.463763 324.394774,202.362718 324.141289,203.373171 L291.441812,291.179791 C290.73101,292.610976 289.736237,293.245122 288.281533,293.245122 L275.318118,293.245122 C274.002787,293.245122 273.037631,292.592683 272.366899,291.250348 L239.837282,203.448955 C239.487979,202.520383 239.549826,201.644077 240.008885,200.980314 C240.44878,200.344425 241.193554,199.994251 242.108188,199.994251 L253.474042,199.994251 C254.765854,199.994251 255.962718,200.819164 256.450523,202.045645 L274.041986,252.688502 C275.076829,255.597038 276.089895,258.533449 277.104704,261.476829 C278.65784,265.982056 280.256272,270.624042 281.944425,275.172822 C284.225784,268.367073 286.781533,260.990767 289.734495,252.683275 L307.493206,202.07439 C307.710105,200.950697 309.033275,199.994251 310.480139,199.994251 L321.845993,199.994251 C322.9,199.994251 323.48101,200.455052 323.781533,200.841812" id="Fill-3" fill="#00529C"></path>
    </g>
</svg>