<?xml version="1.0" encoding="UTF-8"?>
<svg width="500px" height="311px" viewBox="0 0 500 311" version="1.1" xmlns="http://www.w3.org/2000/svg" xmlns:xlink="http://www.w3.org/1999/xlink">
    <!-- Generator: Sketch 55.1 (78136) - https://sketchapp.com -->
    <title>partner-logos-lely</title>
    <desc>Created with Sketch.</desc>
    <g id="partner-logos-lely" stroke="none" stroke-width="1" fill="none" fill-rule="evenodd">
        <path d="M249.827815,309.592715 C111.847682,309.592715 0,240.283664 0,154.798013 C0,69.3101545 111.847682,0 249.827815,0 C387.798013,0 499.645695,69.3101545 499.645695,154.798013 C499.645695,240.283664 387.798013,309.592715 249.827815,309.592715" id="Fill-6" fill="#00519B"></path>
        <polygon id="Fill-8" fill="#FEFEFE" points="323.828808 225.213797 262.099227 197.845143 262.125717 110.991943 291.260375 98.5316777 291.260375 185.965453 323.805629 198.75574"></polygon>
        <polygon id="Fill-10" fill="#FEFEFE" points="234.756843 132.582671 213.792163 125.911589 213.829691 144.425938 234.583554 148.063907 234.576932 161.950221 213.829691 165.549558 213.780022 182.219536 234.756843 174.370751 234.753532 196.30894 190.381567 216.371854 190.40585 92.0009934 234.756843 111.020861"></polygon>
        <polygon id="Fill-12" fill="#FEFEFE" points="174.594812 223.507506 104.486645 255.133333 104.486645 55.1796909 136.674283 69.0571744 136.709603 211.020751 174.594812 196.910375"></polygon>
        <polygon id="Fill-14" fill="#FEFEFE" points="375.94989 248.324724 344.23245 234.275055 344.23245 164.369978 308.490728 91.2209713 330.394702 81.7960265 354.673951 131.516777 370.60883 64.606181 399.886976 52.1503311 375.960927 157.525607"></polygon>
    </g>
</svg>