<?xml version="1.0" encoding="utf-8"?>
<!-- Generator: Adobe Illustrator 23.0.4, SVG Export Plug-In . SVG Version: 6.00 Build 0)  -->
<svg version="1.1" id="Layer_1" xmlns="http://www.w3.org/2000/svg" xmlns:xlink="http://www.w3.org/1999/xlink" x="0px" y="0px"
	 viewBox="0 0 324.4 199" style="enable-background:new 0 0 324.4 199;" xml:space="preserve">
<style type="text/css">
	.st0{fill:#00529C;}
</style>
<title>partner-logos-antelliq</title>
<desc>Created with Sketch.</desc>
<g id="partner-logos-antelliq">
	<g>
		<path class="st0" d="M0.5,19.2c2.2-0.6,4.3-1.2,6.3-1.8c14.7-4,29.6-7.6,44.6-10.2c11.8-2.1,23.7-3.8,35.8-3.8
			c7.7,0,15.2,0.8,22.8,1.7c19.6,2.4,38.4,7.9,57.1,14.2c10.2,3.4,20.4,6.8,30.7,10c9.7,3,19.7,5.1,29.8,6.5c9,1.3,18,2,27.1,1.4
			c15.7-1,30.6-5.1,44.8-12.1c7.5-3.7,14.1-8.7,20.6-13.8c0.9-0.7,1.8-1.4,2.6-2.1c0.1-0.1,0.2-0.1,0.5-0.1c0.1,0.4,0.2,0.7,0.2,1.1
			c0,0.6,0,1.2,0,1.8c0,38.4,0,76.8,0,115.2c0,3.5,0.3,2.7-2.5,4.1c-14.6,6.9-29.9,11.5-45.8,14.4c-8.3,1.5-16.6,2.6-25,3.1
			c-8.6,0.5-17.2,0.4-25.7-0.2c-14-0.9-27.7-3.3-41.3-6.9c-13-3.4-25.4-8.3-37.5-14.1c-6.8-3.2-13.7-6.6-20.8-9.1
			c-8.9-3.1-18-5.1-27.3-6c-7.2-0.7-14.4-0.8-21.6-0.2c-13.8,1.2-27.2,4.5-40.1,9.6c-5.7,2.3-11.3,4.9-16.7,7.9
			c-4.8,2.6-9.1,6-13.4,9.3c-1.4,1.1-2.8,2.2-4.2,3.3c-0.2,0.2-0.5,0.3-0.7,0.4c-0.2-0.1-0.2-0.1-0.3-0.1c0,0-0.1-0.1-0.1-0.2
			c0-40.5-0.1-80.9-0.1-121.4C0.5,20.5,0.5,20,0.5,19.2z M82.1,99.1c-7.7-27.9-15.3-55.8-23-83.6c-0.5,0-0.8,0-1.1,0.1
			c-5.6,0.9-11.2,1.8-16.8,2.8c-2.8,0.5-5.5,1.3-8.3,1.9c-1,0.2-1.6,0.8-1.8,1.9c-0.3,1.9-0.9,3.8-1.3,5.7
			c-4.3,19.2-8.6,38.4-13,57.7c-2.7,12.1-5.4,24.1-8.2,36.2c-0.1,0.4-0.1,0.9-0.2,1.6c0.7-0.4,1.1-0.6,1.6-0.9
			c6.8-4.4,13.9-8.3,21.5-11.4c1-0.4,1.4-1,1.6-2.1c0.8-4,1.7-8,2.5-12c0.2-1.2,0.8-1.9,2-2.3c5.4-1.9,11-3.3,16.6-4.4
			c0.6-0.1,1.3,0,2,0c0.9,3.9,1.8,7.7,2.6,11.7C66.7,101.1,74.2,100.1,82.1,99.1z M260.9,99.8c-0.9-8-5.4-17.3-10.9-22.7
			c-3.4-3.3-7.4-5.4-12.1-5.9c-4-0.4-8-0.1-12,0.8c-4.4,1-8.1,3.2-11.3,6.4c-3.9,4-6.4,8.7-7.8,14.1c-1.5,6-2.2,12.1-1.8,18.3
			c0.4,7.3,2.8,13.9,7.5,19.5c4.3,5.1,9.5,8.5,16.2,9.4c3.6,0.5,7.2,0.1,10.8-0.6c5.1-1,9.8-2.9,13.9-6.3c1-0.9,1.6-1.8,1.5-3.2
			c-0.1-5.8-0.1-11.6-0.1-17.4c0-0.4-0.1-0.8-0.2-1.5c-0.7,0.7-1.1,1.1-1.5,1.6c-2.4,2.6-5,4.9-8.1,6.5c-2.8,1.5-5.8,2-8.9,1.6
			c-2-0.3-3.9-1-5.3-2.6c-0.7-0.8-1.4-1.6-1.3-2.9C239.9,110,250.4,104.9,260.9,99.8z M315,56.3c-0.5,0.1-0.7,0.2-0.8,0.2
			c-6.7,2.6-13.4,5.1-20.1,7.6c-1.3,0.5-2.1,1.3-2.7,2.5c-1.8,4.2-3.8,8.3-5.7,12.4c-0.3,0.5-0.6,1.1-1,1.8
			c-0.5-0.8-0.8-1.2-1.2-1.7c-1.9-3.1-3.9-6.2-5.8-9.3c-0.8-1.3-0.9-1.3-2.3-1c-6,1.4-12,2.1-18.1,2.5c-1.6,0.1-3.2,0.3-5.1,0.4
			c0.6,0.9,1,1.5,1.4,2.1c6.2,8.9,12.3,17.8,18.6,26.7c0.8,1.2,0.9,2.1,0.2,3.4c-5.2,10.4-10.4,20.8-15.5,31.2
			c-0.3,0.5-0.5,1.1-0.8,1.8c0.7,0,1.1,0,1.5,0c6.9-0.5,13.6-2,20.3-3.4c1.1-0.2,1.7-0.7,2.2-1.8c1.6-3.7,3.3-7.4,4.9-11
			c0.2-0.5,0.5-1,0.9-1.7c0.5,0.8,0.9,1.3,1.3,1.8c1.6,2.5,3.2,5,4.8,7.5c0.9,1.4,0.9,1.3,2.4,0.9c5.9-1.7,11.6-3.8,17.2-6.3
			c0.3-0.2,0.6-0.4,1-0.7c-0.4-0.6-0.6-1-0.9-1.4c-4.7-7-9.4-14.1-14.2-21.1c-0.9-1.3-1-2.4-0.3-3.9c5.7-12.3,11.3-24.7,16.9-37
			C314.3,58.1,314.6,57.3,315,56.3z M138.1,55.1c-0.1,0.3-0.2,0.4-0.2,0.5c0,5.7,0,11.5,0,17.2c0,0.8,0.3,1.2,1,1.5
			c1,0.5,1.9,1,2.8,1.5c2.7,1.5,2.3,0.8,2.3,3.7c0,10.9,0,21.8,0,32.7c0,1,0.1,1.8,1.2,2.2c5.6,2.4,11.3,4.9,16.9,7.4
			c0.5,0.2,1.1,0.4,1.9,0.6c0-12.8,0-25.4,0-38.3c4.2,1.4,8,3,12.1,3.8c0-0.8,0.1-1.4,0.1-2c0.1-2.8,0.1-5.6,0.1-8.3
			c0-2.5,0-5,0.1-7.5c0-1-0.3-1.6-1.3-1.8c-0.5-0.1-1-0.3-1.5-0.5c-2.5-1-4.9-2-7.4-3c-0.6-0.3-1.2-0.5-1.2-1.4
			c0.1-2.3,0-4.6,0.2-6.9c0.3-2.7,1.9-3.8,4.6-3.3c2,0.4,3.9,1,5.7,2c0.4,0.2,0.8,0.4,1.5,0.7c0-7.3,0-14.3,0-21.4
			c-0.2-0.1-0.4-0.3-0.7-0.4c-3.3-1.4-6.6-2.9-10-4.1c-2-0.8-4.2-1.4-6.3-1.7c-6.4-1-12.3,1.8-14.5,8.9c-0.5,1.6-0.7,3.4-0.8,5.1
			c-0.1,4.3-0.1,8.6-0.2,13c0,0.7-0.1,1.4-0.2,2.3C142.2,56.7,140.2,55.9,138.1,55.1z M181.6,36.1c-0.1,1.1-0.1,1.7-0.1,2.3
			c0,29.4,0,58.9,0,88.3c0,2,0,2,1.9,2.6c5.9,2.1,12.1,3.3,18.2,4.8c0.1,0,0.3-0.1,0.6-0.2c0-30.6,0-61.1,0-91.8
			C195.3,40.2,188.6,38,181.6,36.1z M113.2,16.8c0,28.7,0,57.1,0,85.7c7.1,1.7,13.9,4.3,20.9,6.8c0-29.6,0-59,0-88.5
			C127.2,19,120.3,17.7,113.2,16.8z M85.6,14.3c-0.1,28.4,0,56.6,0,84.8c7.2,0.6,14.1,1.1,21.1,1.7c0-28.3,0-56.6,0-85
			C99.7,14.9,92.8,14.3,85.6,14.3z"/>
		<path class="st0" d="M81.2,188.1c0.1,0.4,0.1,0.8,0.2,1.2c0.1,1-0.5,1.4-1.3,1.6c-3.5,0.9-6.1-1-6.3-4.5c-0.1-2.4,0-4.9,0-7.3
			c0-1.1,0-2.1,0-3c-0.2-0.2-0.3-0.3-0.4-0.3c-2.9,0-5.8,0-8.7,0c-0.9,0-1.6,0.4-1.8,1.4c-0.2,0.9,0.2,1.7,0.9,2.1
			c0.6,0.4,1.3,0.6,1.9,0.9c1.2,0.6,2.4,1,3.5,1.7c3.1,1.7,3,6.2,0,8c-2.9,1.7-5.9,1.6-8.9,0.5c-0.6-0.2-0.9-0.6-0.8-1.2
			c0-0.3,0-0.6,0-0.9c0-0.3,0.1-0.7,0.1-1.3c0.6,0.2,1,0.4,1.5,0.6c1.4,0.7,2.9,1,4.5,0.8c1.6-0.1,2.5-0.8,2.7-1.9
			c0.2-1-0.4-1.9-1.7-2.6c-0.8-0.4-1.7-0.7-2.6-1.1c-0.9-0.4-1.9-0.8-2.6-1.4c-2.7-2-2.4-6,0.6-7.5c1.2-0.6,2.7-0.8,4.1-0.9
			c1.9-0.2,3.8,0,5.7,0c0.6,0,1.2-0.1,1.9-0.1c0-1.4,0-2.6,0-4c1-0.3,1.9-0.6,3-1c0.1,1.8,0.1,3.3,0.2,5.1c1.4,0,2.8,0,4.2,0
			c0,1,0,1.7,0,2.6c-1.3,0.1-2.6,0.2-4.1,0.3c-0.1,0.6-0.2,1.1-0.2,1.6c0,2.5,0,5,0,7.5c0,0.2,0,0.5,0,0.7c0.1,2.8,1.6,3.4,3.7,2.7
			C80.8,188.1,80.9,188.1,81.2,188.1z"/>
		<path class="st0" d="M246.1,174.4c0.1-0.5,0.2-1,0.2-1.5c0.9,0,1.8,0,2.8,0c0.1,0.6,0.1,1.1,0.1,1.6c0,5,0,9.9,0,14.9
			c0,1-0.1,2-0.3,3c-0.7,3.5-2.9,5.6-6.4,6.3c-2.2,0.4-4.5,0.3-6.7-0.3c-1.7-0.5-1.8-0.7-1.8-2.5c0-0.3,0.1-0.6,0.1-1.1
			c0.6,0.2,1.2,0.4,1.7,0.6c1.6,0.6,3.3,1,5,0.8c2.8-0.3,4.4-1.7,5.1-4.4c0.1-0.4,0.2-0.8,0.2-1.2c0-0.6,0-1.3,0-2.1
			c-0.3,0.2-0.5,0.3-0.6,0.4c-4.4,4.1-10.8,2.4-12.3-3.4c-0.8-2.8-0.6-5.7,0.6-8.4c1.6-3.8,5.6-5.6,9.4-4.4
			C244.1,173.1,245,173.8,246.1,174.4z M246.3,181.4c0,0-0.1,0-0.1,0c0-0.5,0-0.9,0-1.4c-0.1-2.5-1.6-4.3-4-4.8
			c-2.3-0.4-4.5,0.7-5.5,3c-0.9,2.2-1,4.5-0.3,6.8c0.7,2.2,2.4,3.5,4.6,3.5c2.3,0,4.1-1.3,4.8-3.5
			C246.1,183.7,246.1,182.5,246.3,181.4z"/>
		<path class="st0" d="M136.1,190.6c-1,0-2.1,0.1-3.1,0c-0.5-0.1-1-0.5-1.4-0.9c-1.8-1.8-3.5-3.7-5.2-5.6c-0.4-0.4-0.8-0.8-1.5-1.6
			c0,2.8,0,5.3,0,8c-1.1,0-2,0-3,0c0-8.6,0-17.2,0-25.9c0.9,0,1.8,0,2.9,0c0,5.2,0,10.3,0,15.8c0.5-0.4,0.9-0.6,1.1-0.8
			c1.6-1.7,3.3-3.4,4.8-5.3c1.4-1.8,3-1.7,5.2-1.3c-2.5,3.1-5.4,5.6-7.9,8.5c2.8,2.9,5.6,5.8,8.4,8.7
			C136.2,190.3,136.2,190.5,136.1,190.6z"/>
		<path class="st0" d="M56.6,182.6c-4.2,0-8.1,0-12,0c-0.4,3.1,1.5,5.5,4.5,5.8c1.6,0.1,3.2-0.1,4.6-0.9c0.5-0.2,0.9-0.5,1.4-0.7
			c0.7,2.3,0.5,2.8-1.5,3.6c-2,0.8-4.2,1-6.3,0.6c-3-0.6-4.9-2.5-5.8-5.4c-0.7-2.3-0.7-4.6-0.1-6.8c1.2-4.6,5.6-7.2,10.1-6
			c1.4,0.4,2.6,1.1,3.5,2.3C56.6,177.2,56.9,179.7,56.6,182.6z M53.4,179.8c0-3-1.5-4.7-4-4.7c-2.5,0-4.6,2-4.7,4.7
			C47.5,179.8,50.4,179.8,53.4,179.8z"/>
		<path class="st0" d="M323.7,182.6c-4.2,0-8.1,0-12.1,0c-0.2,3.2,1.6,5.5,4.4,5.8c1.6,0.2,3.2-0.1,4.6-0.8c0.5-0.3,1-0.5,1.6-0.8
			c0.6,2.5,0.3,2.9-1.8,3.7c-1.9,0.7-4,0.8-5.9,0.5c-2.7-0.5-4.6-2.1-5.6-4.6c-1.1-2.8-1.1-5.7,0-8.5c1.5-4.1,5.6-6.1,9.7-5.1
			c2,0.5,3.5,1.8,4.3,3.7C323.7,178.2,323.9,180.2,323.7,182.6z M320.4,179.8c0-3-1.6-4.7-4.1-4.7c-2.5,0-4.6,2.1-4.6,4.7
			C314.5,179.8,317.4,179.8,320.4,179.8z"/>
		<path class="st0" d="M269,182.6c-4.1,0-8,0-12,0c-0.3,3.1,1.5,5.4,4.3,5.8c1.7,0.2,3.3-0.1,4.8-0.9c0.5-0.2,0.9-0.5,1.4-0.7
			c0.8,2.1,0.5,2.8-1.3,3.5c-2.1,0.9-4.4,1.1-6.6,0.6c-2.6-0.5-4.4-2-5.4-4.5c-1.1-2.9-1.2-5.8-0.1-8.7c1.5-4,5.5-6.1,9.6-5.1
			c2.1,0.5,3.6,1.8,4.5,3.7C269.1,178.2,269.3,180.2,269,182.6z M265.8,179.8c-0.2-3.1-1.6-4.7-4.1-4.7c-2.5,0-4.5,2.1-4.6,4.7
			C260,179.8,262.8,179.8,265.8,179.8z"/>
		<path class="st0" d="M204.3,182.5c-4.1,0-8,0-11.9,0c-0.5,3.1,1.4,5.5,4.4,5.8c1.6,0.2,3.2-0.1,4.6-0.9c0.5-0.3,1-0.5,1.6-0.8
			c0.5,2.5,0.3,2.9-1.7,3.6c-2,0.8-4.1,0.9-6.1,0.6c-2.6-0.4-4.5-1.9-5.5-4.3c-1.2-3-1.3-6.1-0.1-9.2c1.2-2.9,3.4-4.6,6.6-5
			c4.2-0.5,7.4,2,8,6.3C204.4,179.8,204.3,181,204.3,182.5z M201.1,179.7c-0.1-3-1.6-4.7-4.1-4.7c-2.5,0-4.5,2-4.7,4.7
			C195.3,179.7,198.1,179.7,201.1,179.7z"/>
		<path class="st0" d="M83.6,181.8c0.1-0.8,0.1-1.7,0.2-2.5c1.2-6.1,8.6-9.1,13.8-5.6c0.6,0.4,1.1,0.9,1.6,1.4
			c2.8,3.4,2.7,9.9-0.4,13.2c-2.8,2.9-6.2,3.2-9.8,2.1c-3.1-0.9-5.2-3.9-5.4-7.4C83.6,182.7,83.7,182.2,83.6,181.8
			C83.6,181.8,83.6,181.8,83.6,181.8z M98.1,181.7c-0.1-0.9-0.2-1.9-0.4-2.8c-0.7-2.4-2.3-3.7-4.7-3.9c-2.4-0.2-4.5,1-5.4,3.2
			c-1,2.3-1,4.6-0.1,6.9c0.9,2.3,2.9,3.4,5.5,3.2c2.4-0.1,4-1.4,4.7-3.8C97.9,183.6,97.9,182.7,98.1,181.7z"/>
		<path class="st0" d="M161.3,190.5c-1.1,0-2,0-2.9,0c-0.5-1.5-0.5-15.9,0-17.6c0.8,0,1.7,0,2.7,0c0.1,0.7,0.2,1.3,0.3,2.1
			c0.4-0.3,0.7-0.6,1.1-0.9c2-1.7,4.3-2.1,6.8-1.2c1.4,0.5,2.4,1.5,3,2.9c0.3,0.8,0.7,1.7,0.7,2.6c0.1,4,0,8,0,12.3
			c-1,0-1.8,0.1-2.9,0.1c-0.1-0.7-0.1-1.2-0.1-1.7c0-2.5,0-5.1,0-7.6c0-0.9-0.1-1.9-0.2-2.8c-0.2-1.5-0.9-2.7-2.4-3.2
			c-1.7-0.5-3.2-0.1-4.4,1.1c-1.1,1.1-1.6,2.5-1.6,4c0,2.7,0,5.4,0,8.2C161.3,189.1,161.3,189.7,161.3,190.5z"/>
		<path class="st0" d="M276.1,190.6c-1.1,0-1.9,0-2.7,0c-0.4-1.4-0.5-15.8-0.1-17.6c0.8,0,1.7,0,2.6,0c0.1,0.6,0.2,1.3,0.3,2.1
			c0.4-0.4,0.8-0.7,1.1-0.9c2-1.7,4.3-2.1,6.8-1.2c2.3,0.8,3.3,2.8,3.6,5.1c0.1,0.9,0.1,1.9,0.1,2.8c0,2.7,0,5.3,0,8
			c0,0.6-0.1,1.2-0.1,1.8c-0.6,0.1-1,0.1-1.5,0.1c-0.4,0-0.8-0.1-1.4-0.1c0-0.7-0.1-1.3-0.1-1.9c0-2.7,0-5.3,0-8
			c0-0.8-0.1-1.6-0.3-2.5c-0.6-3.6-4.6-3.8-6.6-2c-1.3,1.2-1.8,2.6-1.8,4.3c0,2.7,0,5.3,0,8C276.2,189.1,276.2,189.8,276.1,190.6z"
			/>
		<path class="st0" d="M1,190.5c-0.4-1.4-0.5-22.6,0-24.5c0.9,0,1.8,0,2.9,0c0,3.7,0,7.3,0,10.9c0,3.5,0,7.1,0,10.9
			c3.3,0,6.5,0,9.8,0c0,1,0,1.8,0,2.6C12.4,190.7,3.2,190.8,1,190.5z"/>
		<path class="st0" d="M31.2,187c1.6-4.3,3-8.2,4.4-12.1c0.9-2.3,1-2.4,3.9-1.8c-2.2,5.9-4.6,11.6-7,17.5c-1,0-1.9,0-3,0
			c-2.2-5.8-4.5-11.6-6.7-17.5c0.6-0.1,0.9-0.2,1.3-0.2c2-0.1,2-0.1,2.7,1.8c1.3,3.6,2.5,7.1,3.8,10.7
			C30.7,185.7,30.9,186.1,31.2,187z"/>
		<path class="st0" d="M182.1,175.6c0,1.4,0,2.6,0,3.8c0,2,0,3.9,0,5.9c0.1,2.5,1.1,3.6,3.8,2.8c0.1,0,0.2,0,0.3,0
			c0.8,2,0.4,2.7-1.7,2.9c-3.5,0.3-5.4-1.4-5.5-4.9c-0.1-2.8,0-5.6,0-8.3c0-0.6,0-1.3,0-2.1c-1-0.1-1.9-0.2-2.8-0.3
			c0-0.8,0-1.6,0-2.5c0.9-0.1,1.7-0.1,2.8-0.2c0-1.3,0-2.7,0-4c1.1-0.3,2-0.6,3-1c0.1,1.8,0.1,3.4,0.2,5c1.5,0.1,2.8,0.1,4.3,0.2
			c0,0.9,0,1.6,0,2.5C185.1,175.5,183.7,175.5,182.1,175.6z"/>
		<path class="st0" d="M305.3,176.3c-3.5-1.7-6.7-2-9.1,1.3c-1.7,2.4-1.7,6.6,0.1,8.7c2.6,3,5.6,2.4,8.7,0.8
			c0.1,0.3,0.2,0.4,0.2,0.5c0.1,2.2,0,2.4-2.2,3c-5,1.4-9.6-1-10.8-5.7c-0.7-2.4-0.6-4.8,0.4-7.1c2.2-5.5,8-6.3,11.8-5
			c0.6,0.2,1,0.6,1,1.3C305.3,174.8,305.3,175.5,305.3,176.3z"/>
		<path class="st0" d="M117.6,187c0.1,0.7,0.1,1.2,0.1,1.6c0.1,0.9-0.3,1.4-1.2,1.7c-6.4,2.3-12.3-1.4-12.2-7.9c0-0.9,0-1.9,0.2-2.8
			c1.4-6.7,7.6-8.2,12.1-6.8c0.8,0.2,1.2,0.7,1.1,1.5c0,0.6,0,1.1,0,1.9c-0.8-0.3-1.4-0.6-1.9-0.8c-3.9-1.4-7.4,0.6-8.2,4.6
			c-0.2,1.1-0.2,2.3-0.1,3.3c0.7,4.1,4.3,6,8.1,4.5C116.3,187.7,116.8,187.4,117.6,187z"/>
		<path class="st0" d="M152.3,190.5c-0.6,0.1-1,0.1-1.4,0.1c-0.5,0-0.9,0-1.4-0.1c-0.4-1.3-0.6-22.1-0.2-24.6c0.9,0,1.9,0,3,0
			C152.3,174.2,152.3,182.2,152.3,190.5z"/>
		<path class="st0" d="M219.9,190.6c-1,0-1.8,0-2.6,0c-0.4-1.2-0.6-23.2-0.2-26c0.9,0,1.8,0,2.8,0
			C219.9,173.2,219.9,181.8,219.9,190.6z"/>
		<path class="st0" d="M211.4,164.5c0,8.7,0,17.3,0,26c-1,0-1.8,0-2.7,0c-0.4-1.3-0.5-23.7-0.1-25.9c0.4,0,0.9-0.1,1.3-0.1
			C210.4,164.4,210.8,164.5,211.4,164.5z"/>
		<path class="st0" d="M315.6,137.8c4.7-0.2,8,4.2,8,7.8c-0.1,4.7-3.6,8.4-8.1,8.3c-4.3,0-7.8-3.8-7.8-8.3
			C307.7,141.3,311.2,137.8,315.6,137.8z M321.9,145.9c0.1-3.5-2.6-6.3-6-6.4c-3.6-0.1-6.5,2.8-6.5,6.3c0,3.4,2.7,6.2,6.1,6.3
			C319.1,152.1,321.8,149.4,321.9,145.9z"/>
		<path class="st0" d="M17.2,172.9c0.8,0,1.7,0,2.5,0c0.4,1.4,0.5,15.7,0.1,17.6c-0.8,0-1.7,0-2.5,0
			C16.8,189.1,16.7,174.8,17.2,172.9z"/>
		<path class="st0" d="M225.6,190.7c0-6,0-11.8,0-17.7c0.9,0,1.8,0,2.8,0c0,5.9,0,11.6,0,17.6C227.6,190.6,226.7,190.6,225.6,190.7z
			"/>
		<path class="st0" d="M18.5,168.6c-1.1,0-1.9-0.8-2-1.8c-0.1-1.1,0.8-2,1.9-2.1c1.1,0,1.9,0.8,2,1.8
			C20.6,167.6,19.7,168.6,18.5,168.6z"/>
		<path class="st0" d="M227,168.6c-1.1,0-1.9-0.8-1.9-1.9c0-1.1,0.8-1.9,1.9-1.9c1.2,0,2,0.8,2,2C229,167.9,228.1,168.6,227,168.6z"
			/>
		<path class="st0" d="M52.9,70.4c-4.3,1-8.3,1.9-12.6,2.8c0-0.6,0-1.2,0.1-1.7c1.9-10.5,3.8-20.9,5.8-31.4c0.1-0.5,0.3-1,0.4-1.6
			c0.2,0.2,0.4,0.3,0.5,0.4C49,49.4,50.9,59.8,52.9,70.4z"/>
		<path class="st0" d="M226.2,99.5c-0.2-3.3,0.6-6,3.1-8c1.6-1.3,3.5-1.9,5.6-1.6c1.9,0.2,3.1,1.2,4,2.8
			C238,93.6,229.7,98.1,226.2,99.5z"/>
		<path class="st0" d="M312.4,150c0-2.8,0-5.6,0-8.5c1.7-0.3,3.5-0.3,5.1,0c1.6,0.3,2.4,2.2,1.6,3.7c-0.2,0.5-0.6,0.8-1,1.3
			c0.2,0.6,0.5,1.2,0.7,1.8c0.2,0.5,0.4,1.1,0.6,1.6c-2.2,0.4-2.2,0.4-2.9-1.3c-0.2-0.4-0.2-0.8-0.5-1.1c-0.2-0.3-0.7-0.4-1.3-0.8
			c-0.1,1.3-0.2,2.3-0.3,3.4C313.8,150,313.2,150,312.4,150z M314.8,143.4c0,0.5,0,1,0,1.8c0.8-0.2,1.5-0.4,2.1-0.6
			c0.1-0.1,0.2-0.7,0-0.9C316.3,143,315.6,143.1,314.8,143.4z"/>
	</g>
</g>
</svg>
