<?xml version="1.0" encoding="utf-8"?>
<!-- Generator: Adobe Illustrator 23.0.4, SVG Export Plug-In . SVG Version: 6.00 Build 0)  -->
<svg version="1.1" id="Layer_1" xmlns="http://www.w3.org/2000/svg" xmlns:xlink="http://www.w3.org/1999/xlink" x="0px" y="0px"
	 viewBox="0 0 2210 237" style="enable-background:new 0 0 2210 237;" xml:space="preserve">
<style type="text/css">
	.st0{fill:#00529C;}
</style>
<title>partner-logos-antelliq</title>
<desc>Created with Sketch.</desc>
<g>
	<path class="st0" d="M0,24.4c2.2,0.1,4.4,0.2,6.6,0.2c10.3,0,20.6,0.1,30.9,0c2.4,0,3.1,0.7,3.1,3.1c-0.1,17.7,0,35.3,0,53
		c0,31.5,0,63,0,94.5c0,1.2,0,2.5,0,4.1c31,0,61.7,0,92.6,0c0,12.3,0,24.1,0,36.4c-1.3,0-2.5,0-3.7,0c-41.9,0-83.8,0-125.7,0
		c-1.2,0-2.5,0.1-3.7,0.2C0,152,0,88.2,0,24.4z"/>
	<path class="st0" d="M1843.9,237c3.1-12,6.3-24,9.4-36c0.9-3.3,1.7-6.6,2.7-9.8c0.2-0.6,1.1-1.5,1.6-1.5c9.7-0.1,19.4-0.1,29.5-0.1
		c-1,3.3-1.9,6.3-2.8,9.2c-3.9,12.2-7.9,24.5-11.8,36.7c-0.1,0.4,0,0.9,0,1.4C1863,237,1853.4,237,1843.9,237z"/>
	<path class="st0" d="M2210,207.7c-1.7,1.8-3.1,4-5.1,5.4c-7,5.2-16.7,0.7-18.2-7.4c-1.2-6.1,2.4-10.7,6.2-12.8
		c4-2.2,9.5-1.6,13.2,1.5c1.5,1.3,2.6,3.1,3.9,4.7C2210,202,2210,204.9,2210,207.7z"/>
	<path class="st0" d="M834.5,0c11.8-0.2,23.4,1.6,34.6,4.9c13,3.8,24.9,9.6,35.8,17.8c13.9,10.5,24.7,23.5,32.4,39
		c6.1,12.3,9.8,25.4,11.4,39.1c1.7,14.9,0.9,29.5-2.6,44c-3.9,16.1-10.7,30.8-21.1,43.8c-6.4,7.9-13.5,15.1-21.9,21
		c-13.6,9.6-28.7,15.8-45,19c-11.1,2.1-22.3,2.5-33.5,1.7c-13.8-1-27.2-4.1-39.8-9.9c-10.8-5-20.7-11.4-29.6-19.6
		c-6.7-6.2-12.5-13-17.4-20.6c-7.1-11-12.3-22.8-15.2-35.6c-2.3-10.2-3.5-20.3-3.4-30.7c0-9.9,1.4-19.5,3.7-29
		c2.7-11.1,7.1-21.4,13-31.1c4.5-7.6,9.8-14.5,15.9-20.7c7.6-7.8,16.3-14.4,26-19.4c12-6.2,24.6-10.8,38.3-12.2
		C822.2,1.1,828.3,0.6,834.5,0z M904.4,116.7c-0.1-12.5-1.8-23.6-5.9-34.2c-6.9-17.6-18.7-30.5-36.4-37.7c-11.8-4.8-24-6-36.6-4.5
		c-15.6,1.9-29,7.7-40.2,19.1c-13.9,14.3-19.3,31.9-20.5,51.1c-0.8,12.9,1.1,25.5,5.6,37.7c4.2,11.5,11.1,21.1,20.4,28.7
		c12.1,10,26.6,14.1,42,14.3c6.8,0.1,13.7-0.8,20.3-2.3c16.2-3.6,29-12.6,38.2-26.4C900.8,148.3,904.2,132.3,904.4,116.7z"/>
	<path class="st0" d="M481,24.2c0,63.6,0,127,0,190.7c-0.8,0.1-1.6,0.2-2.3,0.2c-11.9,0-23.9,0-35.8,0c-1.6,0-2.5-0.4-3.3-1.9
		c-7.1-13.8-14.3-27.5-21.4-41.3c-6.9-13.3-13.8-26.7-20.8-40c-5.9-11.3-11.9-22.6-17.8-33.8c-0.2-0.5-0.6-0.9-1.3-1.8
		c-0.1,1.3-0.2,2-0.2,2.7c0,37,0,74.1,0,111.1c0,5.4,0.8,5-5.1,5c-10.8,0-21.6-0.1-32.4,0.1c-2.6,0-3.4-0.7-3.4-3.4
		c0.1-61.4,0.1-122.8,0-184.2c0-2.8,0.8-3.6,3.6-3.5c11.5,0.1,22.9,0.1,34.4,0c2.1,0,3.2,0.6,4.2,2.6c6,11.6,12.1,23.1,18.2,34.6
		c7.4,14,14.7,27.9,22.1,41.9c6.5,12.3,13,24.5,19.5,36.8c0.4,0.7,0.8,1.3,1.8,1.9c0-1.3,0-2.6,0-4c0-36.8,0-73.5,0-110.3
		c0-2.7,0.6-3.6,3.4-3.6c11.5,0.2,22.9,0,34.4,0C479.3,24,480.1,24.1,481,24.2z"/>
	<path class="st0" d="M506.1,215.6c0-1.4,0-2.4,0-3.4c0-60.6,0-121.3,0-181.9c0-6.3-0.3-5.1,5.3-5.1c32.7,0,65.3-0.2,98,0.1
		c14.5,0.1,27.5,4.9,37.2,16.2c5.3,6.3,8.4,13.8,9.3,22c0.7,6.8,1.1,13.6,1.2,20.5c0.1,26.7,0.2,53.5,0,80.2
		c-0.1,8.6-0.9,17.2-4.5,25.3c-4.1,9.2-10.6,16-19.6,20.5c-8.1,4-16.6,5.7-25.6,5.6c-32.5,0-64.9,0-97.4,0
		C508.7,215.6,507.6,215.6,506.1,215.6z M547.2,61.4c0,39.4,0,78.5,0,117.7c1.1,0.1,2,0.1,3,0.1c16.8,0,33.6,0.2,50.4-0.1
		c10.8-0.2,15.4-5.5,15.5-15.3c0.3-29,0.5-58,0-87.1c-0.2-10.6-4.5-14.8-14.7-15.2C583.4,60.9,565.5,61.4,547.2,61.4z"/>
	<path class="st0" d="M1587.1,96.2c1.6,0,3,0,4.4,0c23.8,0,47.6,0,71.3-0.1c2.5,0,3.3,0.6,3.3,3.2c-0.1,10.3-0.1,20.6-0.1,30.9
		c0,0.8-0.1,1.7-0.2,2.8c-26.3,0-52.4,0-78.7,0c0,15.4,0,30.6,0,46.1c30.5,0,61.1,0,91.9,0c0,12.3,0,24.2,0,36.2
		c-44.3,0-88.4,0-132.9,0c0-1.1,0-2.2,0-3.2c0-61.3,0-122.6-0.1-183.9c0-2.8,0.6-3.8,3.6-3.8c41.8,0.1,83.7,0.1,125.5,0.1
		c4.1,0,4.1,0,4.1,4c0,9.9-0.1,19.9,0,29.8c0,2.3-0.5,3.1-3,3.1c-28.7-0.1-57.5-0.1-86.2-0.1c-0.9,0-1.9,0.1-2.9,0.2
		C1587.1,73.2,1587.1,84.6,1587.1,96.2z"/>
	<path class="st0" d="M1375.6,24.6c7,0,13.8,0,20.5,0c5.3,0,10.7,0.1,16,0c2.7-0.1,3.6,0.6,3.6,3.5c-0.1,21.4-0.1,42.8-0.1,64.2
		c0,0.7,0.1,1.3,0.1,2.4c3.2-0.5,6.2-0.9,9.2-1.4c1.1-0.2,2.2-0.5,3.3-0.5c4.8,0.1,6.7-3.4,8.7-6.8c8.5-14.3,16.9-28.6,25.4-42.9
		c3.4-5.7,6.8-11.4,10.4-17c0.4-0.7,1.5-1.3,2.2-1.3c13.7-0.1,27.5,0,41.2,0c0.2,0,0.3,0.2,0.8,0.4c-3.2,5.5-6.3,10.9-9.5,16.3
		c-4.3,7.3-8.8,14.5-13.1,21.7c-8,13.3-16.1,26.7-24,40.1c-0.6,0.9-0.7,2.6-0.2,3.6c4.1,8.6,8.5,17.1,12.7,25.6
		c7.1,14.5,14.1,29,21.1,43.4c3.5,7.2,7.2,14.3,10.7,21.5c2.9,5.9,5.7,12,8.7,18.2c-1.1,0.1-1.9,0.2-2.7,0.2
		c-12.6,0-25.2,0-37.8,0.1c-2.1,0-3-0.8-3.9-2.5c-4.7-9.7-9.6-19.3-14.4-28.9c-8.1-15.9-16.2-31.7-24.4-47.5
		c-1.3-2.5-2.4-5.2-3.9-7.6c-0.5-0.8-2.1-1.7-3.1-1.5c-4.9,0.7-9.8,1.9-14.7,2.6c-2.3,0.3-2.9,1.2-2.9,3.5
		c0.1,26.3,0.1,52.5,0.1,78.8c0,0.9,0,1.9,0,3c-13.5,0-26.7,0-40.1,0C1375.6,151.9,1375.6,88.4,1375.6,24.6z"/>
	<path class="st0" d="M274.3,215.4c-4-12.5-7.9-25-11.9-37.5c-19.6,0-39.2,0-58.9,0c-3.4,11.4-7,22.8-10.2,34.3
		c-0.7,2.6-1.7,3.6-4.6,3.5c-12-0.2-24.1-0.1-36.1-0.1c-0.9,0-1.9,0-3.2,0c0.9-2.7,1.6-5.2,2.4-7.6c5.5-16.6,11.1-33.1,16.5-49.7
		c7.2-21.9,14.2-43.7,21.4-65.6c3.3-10.1,6.6-20.1,9.9-30.2c3.8-11.7,7.6-23.5,11.3-35.2c0.7-2.2,1.5-3.4,4.2-3.3
		c12,0.2,24.1,0.1,36.1,0c2.2,0,3.2,0.8,3.8,2.8c5.9,18.2,12,36.5,18,54.7c5.8,17.6,11.7,35.3,17.5,52.9
		c4.4,13.4,8.8,26.8,13.2,40.2c4.3,12.9,8.5,25.8,12.8,38.7c0.2,0.6,0.3,1.3,0.5,2.1C302.7,215.4,288.6,215.4,274.3,215.4z
		 M233.4,78.7c-0.2,0-0.5,0.1-0.7,0.1c-5.6,20.6-11.2,41.2-16.8,61.8c11.5,0,22.7,0,34.2,0C244.5,119.8,239,99.3,233.4,78.7z"/>
	<path class="st0" d="M1359.2,215.4c-14.3,0-28.4,0-42.6,0c-2.3-7.5-4.7-15-7-22.5c-1.4-4.4-2.8-8.8-4.2-13.3
		c-0.4-1.3-1.1-1.9-2.6-1.9c-18.2,0.1-36.5,0.1-54.7,0c-1.8,0-2.5,0.8-3,2.4c-3.1,10.4-6.2,20.7-9.3,31.1c-0.4,1.4-0.9,2.7-1.4,4.2
		c-14,0-28.1,0-42.6,0c1.6-5,3.1-9.8,4.6-14.5c6.1-18.7,12.2-37.3,18.3-56c3-9.1,6-18.2,9-27.3c5.7-17.3,11.3-34.6,17-51.8
		c4.3-13.1,8.7-26.2,12.9-39.4c0.6-1.8,1.5-2.4,3.2-2.4c12.5,0,25,0,37.5,0.1c0.9,0,2.3,1,2.6,1.9c4.3,12.9,8.5,25.8,12.7,38.7
		c3.7,11.3,7.6,22.5,11.3,33.8c6.4,19.7,12.8,39.4,19.2,59c3.3,10.2,6.8,20.3,10.2,30.5c2.8,8.5,5.6,17.1,8.5,25.6
		C1359,214.1,1359.1,214.7,1359.2,215.4z M1292.6,140.8c-5.6-20.7-11.1-41.1-16.7-61.5c-0.3,0-0.7,0-1,0
		c-5.5,20.4-11,40.8-16.6,61.4C1270,140.8,1280.9,140.8,1292.6,140.8z"/>
	<path class="st0" d="M1699.1,193.2c0-5.3,0-10.5,0-15.8c0-1.7,0.4-2.2,2.4-2c6.6,0.8,13.2,1.4,19.8,2.1c6.6,0.7,13.1,1.5,19.7,2.2
		c4.1,0.4,8.3,0.9,12.5,1.2c8.9,0.6,17.8,1.4,26.7,1.7c9.4,0.3,15.7-6.2,15.8-15.6c0-3.5,0.3-7.1-0.2-10.6
		c-1.1-7-5.9-11.4-12.3-13.5c-10.6-3.4-21.4-6.3-32.2-9.2c-9.1-2.5-18.5-4.5-26.8-9.2c-9.9-5.6-17.2-13.5-21.3-24.3
		c-4.1-11-4.6-22.5-3.8-33.9c0.8-11.5,4.7-22.1,13.5-30.2c6.8-6.3,15.1-10.3,24.2-11.9c7.7-1.3,15.6-2.5,23.4-2.2
		c10.1,0.3,20.1,1.9,30.2,3.1c8.3,1,16.5,2.4,24.7,3.5c1.8,0.2,2.2,0.9,2.2,2.5c0,10.5,0,21,0,31.5c0,1.9-0.5,2.3-2.5,2
		c-7.9-1.2-15.9-2.2-23.9-3.2c-7.4-1-14.7-2.1-22.1-2.8c-5.9-0.5-11.8-0.9-17.7-0.5c-7.1,0.4-10.9,5.2-11.8,12.3
		c-0.6,4.8-0.3,9.5,1.2,14c1.7,5.2,6,8.1,11,9.6c12.7,3.8,25.5,7.2,38.2,10.8c9.6,2.8,19,5.9,27.1,12.1c6.7,5.2,11.9,11.6,14.9,19.7
		c2.4,6.4,3.5,13,4.2,19.9c0.7,7.6,0.5,15-0.8,22.4c-1.3,7-4.1,13.6-8.3,19.5c-4,5.6-9.3,9.8-15.3,12.9c-6.8,3.6-14.2,6-21.9,6.5
		c-7.1,0.5-14.3,0.7-21.4,0.6c-5.9-0.1-11.9-1-17.8-1.5c-4.8-0.4-9.6-0.8-14.5-1.2c-6.2-0.6-12.4-1.3-18.6-1.9
		c-4.7-0.5-9.4-1.1-14.1-1.5c-3.5-0.3-3.9-0.5-3.9-4C1699.1,203.2,1699.1,198.2,1699.1,193.2
		C1699.1,193.2,1699.1,193.2,1699.1,193.2z"/>
	<path class="st0" d="M1169.6,215.5c-44.3,0-88.4,0-132.9,0c0-1.1,0-2.1,0-3.1c0-61.4,0-122.8-0.1-184.2c0-3,0.8-3.7,3.7-3.6
		c11.3,0.2,22.5,0.1,33.8,0c2.8,0,3.5,0.7,3.5,3.5c-0.1,49.1-0.1,98.1-0.1,147.2c0,1.2,0,2.4,0,4c30.8,0,61.3,0,92,0
		C1169.6,191.4,1169.6,203.3,1169.6,215.5z"/>
	<path class="st0" d="M2066.6,215.6c-8.1,0-15.7,0.1-23.4-0.1c-0.8,0-1.9-1.1-2.4-1.9c-5.9-11.3-11.8-22.6-17.6-34
		c-6.1-11.7-12.3-23.4-18.4-35.1c-0.2-0.3-0.4-0.6-1.2-1.5c0,24.6,0,48.5,0,72.5c-8.7,0-16.9,0-25.4,0c-0.1-1.1-0.1-2-0.1-2.9
		c0-36.9,0-73.7,0-110.6c0-3.9,0-3.9,3.9-3.9c6.3,0,12.6-0.1,18.9,0.1c1.1,0,2.6,0.8,3.1,1.7c5.3,9.8,10.4,19.7,15.6,29.5
		c7.1,13.4,14.2,26.7,21.9,40.1c0.1-0.9,0.2-1.9,0.2-2.8c0-21.5,0-43,0-64.5c0-4.1,0-4.1,4-4.1c5.7,0,11.5,0.2,17.2-0.1
		c2.9-0.1,3.7,0.7,3.7,3.6c-0.1,27.4-0.1,54.8-0.1,82.2c0,9.5,0,18.9,0,28.4C2066.6,213.1,2066.6,214.1,2066.6,215.6z"/>
	<path class="st0" d="M2085.9,157c0-9.5-0.1-19.1,0-28.6c0.1-5.8,0.7-11.6,3.8-16.7c4.7-7.9,11.5-12.8,20.7-13.1
		c12.6-0.4,25.2-0.1,37.8-0.1c12,0,23.3,9.5,24.9,21.4c0.6,4.4,0.5,8.9,0.5,13.4c0,0.7-1.2,2-1.9,2c-7,0.1-13.9,0.1-20.9,0.1
		c-1.8,0-1.9-1-2-2.4c-0.3-2.6-0.3-5.5-1.4-7.7c-1.6-3.2-5-4.2-8.5-4.2c-6.2-0.1-12.4-0.1-18.6,0c-5.7,0.1-9.1,3.7-9.1,9.4
		c0,17.9,0,35.7,0,53.6c0,4.8,3.2,8.4,8.1,8.5c7.1,0.1,14.1,0.1,21.2,0c4.8-0.1,8.4-4.1,8.4-9c0-5.9,0-5.9,5.9-5.9
		c5.3,0,10.7,0.1,16,0c2.1,0,3,0.5,2.8,2.7c-0.3,5.9,0.5,11.8-1.6,17.7c-3,8.6-12.4,16.6-21.7,16.9c-12.6,0.4-25.1,0.9-37.7,0.5
		c-13.5-0.4-23.2-8.4-26.2-21.9c-0.6-2.5-0.7-5.1-0.7-7.6C2085.8,176.3,2085.9,166.7,2085.9,157z"/>
	<path class="st0" d="M1957.6,215.5c-8.3,0-16.3,0-24.5,0c-0.1-1-0.2-1.9-0.2-2.9c0-37.1,0-74.3-0.1-111.4c0-2.5,0.6-3.4,3.2-3.3
		c6.3,0.2,12.6,0.1,18.9,0c2.1,0,2.8,0.5,2.8,2.7c-0.1,37.6,0,75.2,0,112.9C1957.7,214,1957.6,214.6,1957.6,215.5z"/>
	<path class="st0" d="M954.9,57.4c1.6-6.6,3.1-12.7,4.7-18.7c2.2-8.6,4.5-17.2,6.7-25.8c0.5-1.9,1.3-2.8,3.5-2.7
		c8.2,0.2,16.4,0.1,24.6,0.1c1,0,2.1,0,3.5,0c-1,3.6-1.8,6.7-2.8,9.8c-3.8,11.8-7.7,23.6-11.6,35.4c-0.3,0.8-1.3,1.9-1.9,1.9
		C972.8,57.5,964.2,57.4,954.9,57.4z"/>
</g>
</svg>
