<?xml version="1.0" encoding="UTF-8"?>
<svg width="500px" height="122px" viewBox="0 0 500 122" version="1.1" xmlns="http://www.w3.org/2000/svg" xmlns:xlink="http://www.w3.org/1999/xlink">
    <!-- Generator: Sketch 55.1 (78136) - https://sketchapp.com -->
    <title>vyla-logo</title>
    <desc>Created with Sketch.</desc>
    <g id="vyla-logo" stroke="none" stroke-width="1" fill="none" fill-rule="evenodd">
        <g id="Vyla-logo_RGB" transform="translate(0.000000, 0.000000)" fill-rule="nonzero">
            <path d="M435.737179,99.8397436 L411.057692,99.8397436 C404.807692,99.8397436 399.679487,94.7115385 399.679487,88.4615385 C399.679487,82.2115385 404.807692,77.0833333 411.057692,77.0833333 L435.737179,77.0833333 C441.987179,77.0833333 447.115385,82.2115385 447.115385,88.4615385 C447.115385,94.7115385 441.987179,99.8397436 435.737179,99.8397436 Z" id="Path" fill="#58B0E3"></path>
            <path d="M423.237179,0.641025641 C423.237179,0.641025641 423.237179,0.641025641 423.237179,0.641025641 C434.455128,0.641025641 444.230769,6.41025641 449.519231,16.1858974 L498.076923,104.00641 C501.121795,109.455128 499.198718,116.346154 493.589744,119.391026 C488.141026,122.435897 481.25,120.512821 478.205128,114.903846 L429.647436,27.0833333 C427.724359,23.7179487 424.519231,23.3974359 423.237179,23.3974359 C423.237179,23.3974359 423.237179,23.3974359 423.237179,23.3974359 C421.955128,23.3974359 418.75,23.7179487 416.826923,27.0833333 C378.205128,95.9935897 368.75,114.583333 368.269231,115.384615 C365.064103,120.673077 358.012821,122.435897 352.724359,119.070513 C349.358974,116.987179 344.391026,112.019231 349.679487,101.762821 C350.480769,100.160256 351.762821,97.7564103 353.205128,94.8717949 C355.929487,89.7435897 360.096154,82.2115385 365.384615,72.5961538 C375.320513,54.4871795 388.141026,31.7307692 397.115385,15.8653846 C402.564103,6.41025641 412.179487,0.641025641 423.237179,0.641025641 Z" id="Shape" fill="#58B0E3"></path>
            <path d="M272.435897,12.0192308 C272.435897,5.76923077 267.307692,0.641025641 261.057692,0.641025641 C254.807692,0.641025641 249.679487,5.76923077 249.679487,12.0192308 C249.679487,38.7820513 227.884615,60.5769231 201.121795,60.5769231 C174.358974,60.5769231 152.724359,38.7820513 152.724359,12.0192308 C152.724359,5.76923077 147.596154,0.641025641 141.346154,0.641025641 C135.096154,0.641025641 129.967949,5.76923077 129.967949,12.0192308 C129.967949,47.4358974 155.929487,76.9230769 189.74359,82.3717949 L189.74359,109.455128 C189.74359,115.705128 194.871795,120.833333 201.121795,120.833333 C207.371795,120.833333 212.5,115.705128 212.5,109.455128 L212.5,82.3717949 C246.474359,76.9230769 272.435897,47.4358974 272.435897,12.0192308 Z" id="Path" fill="#A6CE39"></path>
            <path d="M358.653846,120.833333 L320.673077,120.833333 C281.570513,120.833333 249.519231,88.9423077 249.519231,49.8397436 L249.519231,12.0192308 C249.519231,5.76923077 254.647436,0.641025641 260.897436,0.641025641 C267.147436,0.641025641 272.275641,5.76923077 272.275641,12.0192308 L272.275641,49.6794872 C272.275641,76.2820513 294.070513,98.0769231 320.833333,98.0769231 L358.814103,98.0769231 C365.064103,98.0769231 370.192308,103.205128 370.192308,109.455128 C370.192308,115.705128 364.903846,120.833333 358.653846,120.833333 Z" id="Path" fill="#00529C"></path>
            <path d="M76.7628205,120.833333 C76.7628205,120.833333 76.7628205,120.833333 76.7628205,120.833333 C65.5448718,120.833333 55.7692308,115.064103 50.4807692,105.288462 L2.08333333,17.4679487 C-0.961538462,12.0192308 1.12179487,5.12820513 6.57051282,2.08333333 C12.0192308,-0.961538462 18.9102564,0.961538462 21.9551282,6.57051282 L70.5128205,94.2307692 C72.4358974,97.5961538 75.6410256,97.9166667 76.9230769,97.9166667 C76.9230769,97.9166667 76.9230769,97.9166667 76.9230769,97.9166667 C78.2051282,97.9166667 81.4102564,97.5961538 83.3333333,94.2307692 C121.955128,25.3205128 131.410256,6.73076923 131.891026,5.92948718 C135.096154,0.641025641 142.147436,-1.12179487 147.435897,2.24358974 C150.801282,4.32692308 155.769231,9.29487179 150.480769,19.5512821 C149.679487,21.1538462 148.397436,23.5576923 146.955128,26.4423077 C144.230769,31.5705128 140.064103,39.1025641 134.775641,48.7179487 C124.839744,66.8269231 112.019231,89.5833333 103.044872,105.448718 C97.5961538,115.064103 87.8205128,120.833333 76.7628205,120.833333 Z" id="Shape" fill="#00845D"></path>
            <path d="M272.275641,15.8653846 L272.275641,12.0192308 C272.275641,5.76923077 267.147436,0.641025641 260.897436,0.641025641 C254.647436,0.641025641 249.679487,5.76923077 249.679487,12.0192308 C249.679487,13.1410256 249.679487,14.1025641 249.519231,15.224359 L249.519231,49.6794872 C249.519231,54.1666667 250,58.6538462 250.801282,62.9807692 C263.301282,50.9615385 271.314103,34.2948718 272.275641,15.8653846 Z" id="Path" fill="#004222"></path>
            <path d="M150.320513,19.5512821 C152.24359,15.8653846 152.724359,12.8205128 152.564103,10.2564103 C152.083333,7.05128205 150.320513,4.32692308 147.75641,2.56410256 C147.75641,2.56410256 147.596154,2.56410256 147.596154,2.40384615 C147.435897,2.24358974 147.275641,2.24358974 147.115385,2.08333333 C146.955128,1.92307692 146.794872,1.92307692 146.634615,1.76282051 C146.474359,1.76282051 146.314103,1.6025641 146.153846,1.6025641 C145.833333,1.6025641 145.673077,1.6025641 145.512821,1.44230769 C145.352564,1.44230769 145.192308,1.28205128 145.032051,1.28205128 C144.871795,1.28205128 144.711538,1.12179487 144.551282,1.12179487 C144.391026,1.12179487 144.070513,0.961538462 143.910256,0.961538462 C143.75,0.961538462 143.589744,0.961538462 143.589744,0.961538462 C143.269231,0.961538462 143.108974,0.801282051 142.788462,0.801282051 C142.628205,0.801282051 142.628205,0.801282051 142.467949,0.801282051 C142.147436,0.801282051 141.987179,0.801282051 141.666667,0.801282051 C141.50641,0.801282051 141.50641,0.801282051 141.346154,0.801282051 C141.025641,0.801282051 140.865385,0.801282051 140.544872,0.801282051 C140.384615,0.801282051 140.384615,0.801282051 140.224359,0.801282051 C140.064103,0.801282051 139.74359,0.801282051 139.583333,0.961538462 C139.423077,0.961538462 139.262821,0.961538462 139.102564,0.961538462 C138.942308,0.961538462 138.621795,1.12179487 138.461538,1.12179487 C138.301282,1.12179487 138.141026,1.28205128 137.980769,1.28205128 C137.820513,1.28205128 137.5,1.44230769 137.339744,1.44230769 C137.179487,1.44230769 137.019231,1.6025641 136.858974,1.6025641 C136.698718,1.76282051 136.378205,1.76282051 136.217949,1.92307692 C136.057692,1.92307692 136.057692,2.08333333 135.897436,2.08333333 C135.737179,2.24358974 135.416667,2.40384615 135.25641,2.56410256 C135.096154,2.56410256 135.096154,2.72435897 134.935897,2.72435897 C134.775641,2.88461538 134.455128,3.04487179 134.294872,3.20512821 C134.294872,3.20512821 134.134615,3.36538462 134.134615,3.36538462 C133.974359,3.52564103 133.653846,3.68589744 133.49359,3.84615385 C133.49359,3.84615385 133.333333,4.00641026 133.333333,4.00641026 C133.173077,4.16666667 133.012821,4.32692308 132.852564,4.48717949 C132.692308,4.6474359 132.692308,4.6474359 132.532051,4.80769231 C132.371795,4.96794872 132.211538,5.12820513 132.211538,5.28846154 C132.051282,5.44871795 132.051282,5.60897436 131.891026,5.76923077 C131.730769,6.08974359 131.570513,6.25 131.410256,6.41025641 C131.410256,6.57051282 131.25,6.73076923 131.089744,7.05128205 C130.288462,8.65384615 129.967949,10.2564103 129.967949,12.1794872 C129.967949,23.5576923 132.692308,34.2948718 137.339744,43.75 C141.346154,36.5384615 144.391026,30.7692308 146.794872,26.6025641 C148.397436,23.5576923 149.519231,21.1538462 150.320513,19.5512821 Z" id="Shape" fill="#004421"></path>
            <path d="M370.032051,109.455128 C370.032051,103.205128 364.903846,98.0769231 358.653846,98.0769231 L351.602564,98.0769231 C350.801282,99.5192308 350.160256,100.801282 349.679487,101.923077 C344.551282,112.179487 349.358974,117.147436 352.724359,119.230769 C354.647436,120.352564 356.730769,120.833333 358.814103,120.833333 C359.134615,120.833333 359.455128,120.833333 359.775641,120.833333 C359.775641,120.833333 359.935897,120.833333 359.935897,120.833333 C365.544872,120.032051 370.032051,115.224359 370.032051,109.455128 Z" id="Path" fill="#00388A"></path>
        </g>
    </g>
</svg>