<?xml version="1.0" encoding="UTF-8"?>
<svg width="40px" height="40px" viewBox="0 0 40 40" version="1.1" xmlns="http://www.w3.org/2000/svg" xmlns:xlink="http://www.w3.org/1999/xlink">
    <!-- Generator: Sketch 55.1 (78136) - https://sketchapp.com -->
    <title>particle-corner-right</title>
    <desc>Created with Sketch.</desc>
    <g id="particle-corner-right" stroke="none" stroke-width="1" fill="none" fill-rule="evenodd">
        <path d="M5,10 L35,10 C37.7614237,10 40,7.76142375 40,5 C40,2.23857625 37.7614237,0 35,0 L5,0 C2.23857625,0 0,2.23857625 0,5 C0,7.76142375 2.23857625,10 5,10 Z" id="Line" fill="#A6CE39" fill-rule="nonzero"></path>
        <path d="M20,25 L50,25 C52.7614237,25 55,22.7614237 55,20 C55,17.2385763 52.7614237,15 50,15 L20,15 C17.2385763,15 15,17.2385763 15,20 C15,22.7614237 17.2385763,25 20,25 Z" id="Line" fill="#58B0E3" fill-rule="nonzero" transform="translate(35.000000, 20.000000) rotate(90.000000) translate(-35.000000, -20.000000) "></path>
        <path d="M38.5355339,1.46446609 C39.4403559,2.36928813 40,3.61928813 40,5 C40,7.76142375 37.7614237,10 35,10 L30,10 L30,5 C30,2.23857625 32.2385763,1.69088438e-16 35,0 C36.3807119,-8.45442189e-17 37.6307119,0.559644063 38.5355339,1.46446609 Z" id="Combined-Shape" fill="#398E32" fill-rule="nonzero"></path>
    </g>
</svg>