<?xml version="1.0" encoding="UTF-8"?>
<svg width="500px" height="271px" viewBox="0 0 500 271" version="1.1" xmlns="http://www.w3.org/2000/svg" xmlns:xlink="http://www.w3.org/1999/xlink">
    <!-- Generator: Sketch 55.1 (78136) - https://sketchapp.com -->
    <title>partner-logos-landolakes</title>
    <desc>Created with Sketch.</desc>
    <g id="partner-logos-landolakes" stroke="none" stroke-width="1" fill="none" fill-rule="evenodd">
        <path d="M19.8004087,171.413351 C19.8004087,171.413351 104.660763,179.899728 126.976158,167.956267 C128.547684,170.15654 129.805177,172.356812 131.06267,174.871117 C101.518392,190.900409 74.8024523,212.90109 53.116485,240.245777 C53.116485,240.245777 36.143733,212.586376 32.3726158,209.444005 C28.2867847,205.986921 5.68434189e-14,194.358174 5.68434189e-14,194.358174 C6.28610354,186.814578 12.8862398,178.956267 19.8004087,171.413351" id="Fill-85" fill="#00519B"></path>
        <path d="M19.8004087,171.413351 C19.8004087,171.413351 104.660763,179.899728 126.976158,167.956267 C128.547684,170.15654 129.805177,172.356812 131.06267,174.871117 C101.518392,190.900409 74.8024523,212.90109 53.116485,240.245777 C53.116485,240.245777 36.143733,212.586376 32.3726158,209.444005 C28.2867847,205.986921 5.68434189e-14,194.358174 5.68434189e-14,194.358174 C6.28610354,186.814578 12.8862398,178.956267 19.8004087,171.413351 Z" id="Stroke-87" stroke="#FEFEFE"></path>
        <path d="M479.617643,172.043324 C479.617643,172.043324 394.757289,180.843052 372.442575,168.899591 C370.870368,170.78515 369.614237,173.300136 368.356744,175.499046 C397.901022,191.528338 424.616281,213.843733 446.302929,240.873706 C446.302929,240.873706 463.274319,213.214986 467.046117,210.072616 C471.445981,206.928883 499.732766,194.986785 499.732766,194.986785 C493.447343,187.128474 486.531812,179.584877 479.617643,172.043324" id="Fill-89" fill="#00529C"></path>
        <path d="M479.617643,172.043324 C479.617643,172.043324 394.757289,180.843052 372.442575,168.899591 C370.870368,170.78515 369.614237,173.300136 368.356744,175.499046 C397.901022,191.528338 424.616281,213.843733 446.302929,240.873706 C446.302929,240.873706 463.274319,213.214986 467.046117,210.072616 C471.445981,206.928883 499.732766,194.986785 499.732766,194.986785 C493.447343,187.128474 486.531812,179.584877 479.617643,172.043324 Z" id="Stroke-91" stroke="#FEFEFE"></path>
        <path d="M210.893324,62.9816076 C210.893324,62.9816076 236.037057,60.4679837 248.609264,60.4679837 C262.752316,60.4679837 291.039101,63.6103542 291.039101,63.6103542 C366.471662,73.3535422 434.988692,106.354905 489.047275,161.042234 L480.560899,169.842643 L433.416485,214.787466 C401.671935,183.042916 363.955995,160.72752 322.784332,149.098774 C319.011853,147.841962 315.240736,146.898501 311.78297,145.956403 L289.78297,141.555858 C276.582016,139.354905 262.752316,138.098093 248.609264,138.098093 C231.637193,138.098093 215.293869,139.6703 199.264578,142.81267 L193.293188,144.069482 C192.978474,144.069482 192.349728,144.384196 192.035695,144.384196 C182.293188,146.584469 172.549319,149.413488 163.120163,152.870572 C126.976431,165.442098 94.289782,186.5 65.6882834,214.158719 L9.74346049,160.098774 C65.6882834,105.09673 134.520027,72.4100817 210.893324,62.9816076" id="Fill-93" fill="#00529C"></path>
        <path d="M210.893324,62.9816076 C210.893324,62.9816076 236.037057,60.4679837 248.609264,60.4679837 C262.752316,60.4679837 291.039101,63.6103542 291.039101,63.6103542 C366.471662,73.3535422 434.988692,106.354905 489.047275,161.042234 L480.560899,169.842643 L433.416485,214.787466 C401.671935,183.042916 363.955995,160.72752 322.784332,149.098774 C319.011853,147.841962 315.240736,146.898501 311.78297,145.956403 L289.78297,141.555858 C276.582016,139.354905 262.752316,138.098093 248.609264,138.098093 C231.637193,138.098093 215.293869,139.6703 199.264578,142.81267 L193.293188,144.069482 C192.978474,144.069482 192.349728,144.384196 192.035695,144.384196 C182.293188,146.584469 172.549319,149.413488 163.120163,152.870572 C126.976431,165.442098 94.289782,186.5 65.6882834,214.158719 L9.74346049,160.098774 C65.6882834,105.09673 134.520027,72.4100817 210.893324,62.9816076 Z" id="Stroke-95" stroke="#FEFEFE"></path>
        <path d="M251.123365,73.3532698 C269.982357,73.3532698 285.382221,66.4391008 285.382221,57.6386921 C285.382221,49.1523161 269.982357,42.2374659 251.123365,42.2374659 C231.951022,42.2374659 216.551158,49.1523161 216.551158,57.6386921 C216.551158,66.4391008 231.951022,73.3532698 251.123365,73.3532698" id="Fill-97" fill="#00519B"></path>
        <path d="M251.438011,132.440599 C274.06812,132.440599 292.296322,114.211717 292.296322,91.8970027 C292.296322,69.2675749 274.06812,51.0380109 251.438011,51.0380109 C228.808583,51.0380109 210.580381,69.2675749 210.580381,91.8970027 C210.580381,114.211717 228.808583,132.440599 251.438011,132.440599 Z M197.064714,91.8970027 C197.064714,61.7239782 221.580381,37.5230245 251.438011,37.5230245 C281.296322,37.5230245 305.811308,61.7239782 305.811308,91.8970027 C305.811308,121.754632 281.296322,146.2703 251.438011,146.2703 C221.580381,146.2703 197.064714,121.754632 197.064714,91.8970027 Z" id="Stroke-99" stroke="#00529C" stroke-width="2.835"></path>
        <path d="M251.438011,132.440599 C274.06812,132.440599 292.296322,114.211717 292.296322,91.8970027 C292.296322,69.2675749 274.06812,51.0380109 251.438011,51.0380109 C228.808583,51.0380109 210.580381,69.2675749 210.580381,91.8970027 C210.580381,114.211717 228.808583,132.440599 251.438011,132.440599 M197.064714,91.8970027 C197.064714,61.7239782 221.580381,37.5230245 251.438011,37.5230245 C281.296322,37.5230245 305.811308,61.7239782 305.811308,91.8970027 C305.811308,121.754632 281.296322,146.2703 251.438011,146.2703 C221.580381,146.2703 197.064714,121.754632 197.064714,91.8970027" id="Fill-101" fill="#FEFEFE"></path>
        <path d="M251.438011,132.440599 C274.06812,132.440599 292.296322,114.211717 292.296322,91.8970027 C292.296322,69.2675749 274.06812,51.0380109 251.438011,51.0380109 C228.808583,51.0380109 210.580381,69.2675749 210.580381,91.8970027 C210.580381,114.211717 228.808583,132.440599 251.438011,132.440599 Z M197.064714,91.8970027 C197.064714,61.7239782 221.580381,37.5230245 251.438011,37.5230245 C281.296322,37.5230245 305.811308,61.7239782 305.811308,91.8970027 C305.811308,121.754632 281.296322,146.2703 251.438011,146.2703 C221.580381,146.2703 197.064714,121.754632 197.064714,91.8970027 Z" id="Stroke-103" stroke="#FEFEFE" stroke-width="0.29"></path>
        <path d="M99.9463896,107.924796 C102.778134,106.356676 106.545845,103.210218 111.575136,104.783106 C117.548569,106.667302 123.519959,109.18297 128.866689,112.640054 L129.177316,112.324659 L122.889169,97.5535422 L130.434809,94.0964578 L150.547207,144.697275 L144.579223,147.21158 C140.180041,138.729973 136.717507,128.041962 128.550613,123.327384 C124.46342,120.811717 120.374864,118.29673 115.660286,117.354632 L115.348297,117.670027 L132.319005,152.558992 L125.404837,156.016757 C124.151431,153.500409 122.575136,150.984741 121.32173,148.470436 L100.262466,108.556948 C100.262466,108.240191 100.262466,107.924796 99.9463896,107.924796" id="Fill-105" fill="#FEFEFE"></path>
        <path d="M99.9463896,107.924796 C102.778134,106.356676 106.545845,103.210218 111.575136,104.783106 C117.548569,106.667302 123.519959,109.18297 128.866689,112.640054 L129.177316,112.324659 L122.889169,97.5535422 L130.434809,94.0964578 L150.547207,144.697275 L144.579223,147.21158 C140.180041,138.729973 136.717507,128.041962 128.550613,123.327384 C124.46342,120.811717 120.374864,118.29673 115.660286,117.354632 L115.348297,117.670027 L132.319005,152.558992 L125.404837,156.016757 C124.151431,153.500409 122.575136,150.984741 121.32173,148.470436 L100.262466,108.556948 C100.262466,108.240191 100.262466,107.924796 99.9463896,107.924796 Z" id="Stroke-107" stroke="#FEFEFE" stroke-width="0.29"></path>
        <path d="M385.96015,101.325681 L395.7047,106.04094 C392.874319,111.382221 389.72718,116.72827 387.52827,122.696253 C395.075272,122.696253 402.934264,118.928542 406.387943,112.014373 C408.270777,112.95579 411.733992,114.839305 413.301431,115.782084 C411.418597,118.612466 409.218324,121.126771 406.387943,123.327725 C403.55688,125.841349 400.105245,126.784128 396.958106,128.983719 C398.526226,142.186717 393.81233,153.184673 388.473774,163.872003 C385.644074,162.299796 383.128406,160.730313 380.614101,159.473501 C384.390668,150.984401 389.72718,142.186717 387.843665,131.183992 L387.52827,130.867916 L383.128406,131.183992 L371.184946,154.758243 L363.016689,150.669005 L385.96015,101.325681 Z" id="Fill-109" fill="#FEFEFE"></path>
        <path d="M385.96015,101.325681 L395.7047,106.04094 C392.874319,111.382221 389.72718,116.72827 387.52827,122.696253 C395.075272,122.696253 402.934264,118.928542 406.387943,112.014373 C408.270777,112.95579 411.733992,114.839305 413.301431,115.782084 C411.418597,118.612466 409.218324,121.126771 406.387943,123.327725 C403.55688,125.841349 400.105245,126.784128 396.958106,128.983719 C398.526226,142.186717 393.81233,153.184673 388.473774,163.872003 C385.644074,162.299796 383.128406,160.730313 380.614101,159.473501 C384.390668,150.984401 389.72718,142.186717 387.843665,131.183992 L387.52827,130.867916 L383.128406,131.183992 L371.184946,154.758243 L363.016689,150.669005 L385.96015,101.325681 Z" id="Stroke-111" stroke="#FEFEFE" stroke-width="0.29"></path>
        <path d="M167.52282,130.868052 L154.947888,93.4702316 C173.180177,85.6132834 183.866144,125.211376 167.52282,130.868052 M170.979905,86.5547003 C160.608651,81.5247275 146.148842,88.755654 141.748297,90.327861 L159.977861,141.239986 L171.922003,137.155518 C181.667916,133.698433 184.809605,124.268597 184.809605,115.155518 C184.809605,103.52609 181.667916,91.8973433 170.979905,86.5547003" id="Fill-113" fill="#FEFEFE"></path>
        <path d="M167.52282,130.868052 L154.947888,93.4702316 C173.180177,85.6132834 183.866144,125.211376 167.52282,130.868052 Z M170.979905,86.5547003 C160.608651,81.5247275 146.148842,88.755654 141.748297,90.327861 L159.977861,141.239986 L171.922003,137.155518 C181.667916,133.698433 184.809605,124.268597 184.809605,115.155518 C184.809605,103.52609 181.667916,91.8973433 170.979905,86.5547003 Z" id="Stroke-115" stroke="#FEFEFE" stroke-width="0.29"></path>
        <path d="M323.728883,80.5837193 L334.726839,83.0973433 L322.46594,128.983583 L341.012262,134.325545 C341.012262,134.325545 339.442779,137.472684 336.927112,140.929768 C330.959128,138.729496 316.183243,134.956335 310.837193,133.384128 C311.468665,131.499251 323.728883,80.5837193 323.728883,80.5837193" id="Fill-117" fill="#FEFEFE"></path>
        <path d="M323.728883,80.5837193 L334.726839,83.0973433 L322.46594,128.983583 L341.012262,134.325545 C341.012262,134.325545 339.442779,137.472684 336.927112,140.929768 C330.959128,138.729496 316.183243,134.956335 310.837193,133.384128 C311.468665,131.499251 323.728883,80.5837193 323.728883,80.5837193 Z" id="Stroke-119" stroke="#FEFEFE" stroke-width="0.29"></path>
        <path d="M420.532289,176.442507 C421.785014,179.588965 424.300681,183.988828 428.392643,184.300136 C430.899455,184.300136 433.099728,183.357357 434.992098,181.789237 C443.159673,173.30218 437.507084,158.842371 443.475749,149.411853 C445.990736,146.270163 449.758447,144.069891 454.157629,144.38733 C460.449183,145.328747 466.417847,150.668665 467.986649,156.642098 C466.101771,158.842371 464.218256,160.415259 462.33406,162.299455 C462.33406,161.98406 462.33406,161.67139 462.018665,160.415259 C461.387875,157.583515 460.135831,154.125749 456.989373,153.500409 C454.157629,153.184332 451.959401,155.06921 450.389918,157.272888 C447.874251,163.240872 449.758447,171.102589 447.874251,177.385967 C446.620845,183.041962 442.844278,188.388011 437.814305,191.214305 C433.099728,193.418665 426.500954,193.102589 422.100409,190.588965 C419.270027,189.014714 417.385831,186.189101 415.500954,183.673433 L420.532289,176.442507 Z" id="Fill-121" fill="#FEFEFE"></path>
        <path d="M420.532289,176.442507 C421.785014,179.588965 424.300681,183.988828 428.392643,184.300136 C430.899455,184.300136 433.099728,183.357357 434.992098,181.789237 C443.159673,173.30218 437.507084,158.842371 443.475749,149.411853 C445.990736,146.270163 449.758447,144.069891 454.157629,144.38733 C460.449183,145.328747 466.417847,150.668665 467.986649,156.642098 C466.101771,158.842371 464.218256,160.415259 462.33406,162.299455 C462.33406,161.98406 462.33406,161.67139 462.018665,160.415259 C461.387875,157.583515 460.135831,154.125749 456.989373,153.500409 C454.157629,153.184332 451.959401,155.06921 450.389918,157.272888 C447.874251,163.240872 449.758447,171.102589 447.874251,177.385967 C446.620845,183.041962 442.844278,188.388011 437.814305,191.214305 C433.099728,193.418665 426.500954,193.102589 422.100409,190.588965 C419.270027,189.014714 417.385831,186.189101 415.500954,183.673433 L420.532289,176.442507 Z" id="Stroke-123" stroke="#FEFEFE" stroke-width="0.29"></path>
        <path d="M40.8630109,146.58549 L72.9195504,182.731948 L72.9195504,183.041894 C77.0033379,179.899523 79.5183243,178.327316 83.2873978,174.86955 C84.2335831,176.759196 85.1756812,178.643392 86.1170981,180.531676 C80.7771798,184.930858 74.1729564,190.272139 68.8316757,194.672003 L32.3752725,154.125681 L40.8630109,146.58549 Z" id="Fill-125" fill="#FEFEFE"></path>
        <path d="M40.8630109,146.58549 L72.9195504,182.731948 L72.9195504,183.041894 C77.0033379,179.899523 79.5183243,178.327316 83.2873978,174.86955 C84.2335831,176.759196 85.1756812,178.643392 86.1170981,180.531676 C80.7771798,184.930858 74.1729564,190.272139 68.8316757,194.672003 L32.3752725,154.125681 L40.8630109,146.58549 Z" id="Stroke-127" stroke="#FEFEFE" stroke-width="0.29"></path>
        <path d="M84.5482289,146.270163 C82.3493188,141.23951 79.5182561,136.841008 77.6347411,132.125749 C77.0032698,130.868256 77.6347411,128.983379 78.8874659,127.725886 C79.5182561,126.784469 80.7771117,126.784469 81.7185286,126.153678 C84.863624,131.499046 89.2648501,135.897548 92.0904632,141.23951 C89.8901907,143.44455 87.3752044,145.328747 84.5482289,146.270163 M109.692643,164.498365 C112.206948,163.240872 114.722616,161.98406 117.23624,160.099183 L85.8023161,115.781744 L72.9194823,123.327384 C69.7730245,125.526975 66.9474114,128.983379 68.2049046,133.383924 C71.0352861,139.039918 73.8622616,144.38733 76.3731608,150.042643 L70.4051771,154.758583 C68.5202997,156.326703 66.0053134,158.526294 65.6892371,161.355995 L69.7730245,166.38733 C72.2886921,162.299455 75.7457766,158.842371 79.8336512,156.642098 C83.2873297,163.556267 87.0638965,170.155722 90.5168937,177.070572 L97.7457766,172.044005 L88.0012262,152.869619 C91.4623978,151.928202 94.6047684,149.411853 97.1156676,147.21158 C101.203542,153.184332 105.607493,158.842371 109.692643,164.498365" id="Fill-129" fill="#FEFEFE"></path>
        <path d="M84.5482289,146.270163 C82.3493188,141.23951 79.5182561,136.841008 77.6347411,132.125749 C77.0032698,130.868256 77.6347411,128.983379 78.8874659,127.725886 C79.5182561,126.784469 80.7771117,126.784469 81.7185286,126.153678 C84.863624,131.499046 89.2648501,135.897548 92.0904632,141.23951 C89.8901907,143.44455 87.3752044,145.328747 84.5482289,146.270163 Z M109.692643,164.498365 C112.206948,163.240872 114.722616,161.98406 117.23624,160.099183 L85.8023161,115.781744 L72.9194823,123.327384 C69.7730245,125.526975 66.9474114,128.983379 68.2049046,133.383924 C71.0352861,139.039918 73.8622616,144.38733 76.3731608,150.042643 L70.4051771,154.758583 C68.5202997,156.326703 66.0053134,158.526294 65.6892371,161.355995 L69.7730245,166.38733 C72.2886921,162.299455 75.7457766,158.842371 79.8336512,156.642098 C83.2873297,163.556267 87.0638965,170.155722 90.5168937,177.070572 L97.7457766,172.044005 L88.0012262,152.869619 C91.4623978,151.928202 94.6047684,149.411853 97.1156676,147.21158 C101.203542,153.184332 105.607493,158.842371 109.692643,164.498365 Z" id="Stroke-131" stroke="#FEFEFE" stroke-width="0.29"></path>
        <path d="M406.072752,150.042711 L423.984877,122.383992 C431.215123,126.153747 437.507357,131.183719 444.421526,135.897616 L440.643597,141.87173 L429.01485,133.383992 L420.847275,145.64421 C422.416076,146.901703 425.877929,149.101294 428.07752,150.984809 L424.300954,156.326771 C421.784605,154.758651 419.2703,152.869005 417.070708,151.612193 C412.671526,156.016826 409.849319,161.984128 405.756676,167.014101 L406.704223,167.645572 C409.849319,169.844482 413.618392,172.044074 416.448093,174.869687 C415.185831,176.442575 413.618392,178.326771 412.356131,179.899659 C406.388147,175.501158 400.420163,171.102657 394.442643,167.645572 L395.074796,166.387398 L406.072752,150.042711 Z" id="Fill-133" fill="#FEFEFE"></path>
        <path d="M406.072752,150.042711 L423.984877,122.383992 C431.215123,126.153747 437.507357,131.183719 444.421526,135.897616 L440.643597,141.87173 L429.01485,133.383992 L420.847275,145.64421 C422.416076,146.901703 425.877929,149.101294 428.07752,150.984809 L424.300954,156.326771 C421.784605,154.758651 419.2703,152.869005 417.070708,151.612193 C412.671526,156.016826 409.849319,161.984128 405.756676,167.014101 L406.704223,167.645572 C409.849319,169.844482 413.618392,172.044074 416.448093,174.869687 C415.185831,176.442575 413.618392,178.326771 412.356131,179.899659 C406.388147,175.501158 400.420163,171.102657 394.442643,167.645572 L395.074796,166.387398 L406.072752,150.042711 Z" id="Stroke-135" stroke="#FEFEFE" stroke-width="0.29"></path>
        <path d="M352.017916,107.613488 C352.956608,104.783106 354.52609,101.011308 356.732493,99.1264305 C357.98658,97.5535422 360.18549,97.2395095 362.385763,97.8682561 L362.701158,98.1850136 C362.701158,98.4956403 357.98658,112.956131 357.671185,113.271526 C355.470232,112.640054 352.325136,111.38188 350.756335,110.440463 L352.017916,107.613488 Z M336.927316,105.725886 L336.61124,106.040599 C336.295845,106.983379 335.04312,111.38188 335.04312,111.38188 C336.61124,111.38188 339.442984,112.014714 340.389169,113.271526 C339.126907,116.413215 337.558106,119.554223 336.295845,122.696594 L334.726362,126.153678 L337.873501,127.100545 L342.273365,128.668665 C343.841485,125.841689 345.726362,121.127112 346.987943,118.928202 C346.987943,118.928202 347.610559,117.039918 347.926635,116.72861 C349.187534,117.670027 353.587398,119.554223 355.786989,119.8703 L356.101703,120.185695 L355.786989,120.185695 C355.786989,120.497003 352.956608,128.983379 350.756335,135.897548 L347.926635,144.38733 L351.70252,145.954087 L355.786989,147.845095 L357.039714,144.697275 C360.817643,133.383924 372.445708,99.1264305 373.068324,95.6700272 L373.383719,95.6700272 L373.068324,95.6700272 C367.415736,93.1536785 360.501567,90.6400545 358.932084,90.3280654 C352.325136,89.3811989 348.556063,95.3546322 346.357153,100.384605 C344.78767,104.156403 342.894619,107.298774 342.894619,107.298774 C341.012466,106.040599 337.558106,105.725886 336.927316,105.725886 L336.927316,105.725886 Z" id="Fill-137" fill="#FEFEFE"></path>
        <path d="M352.017916,107.613488 C352.956608,104.783106 354.52609,101.011308 356.732493,99.1264305 C357.98658,97.5535422 360.18549,97.2395095 362.385763,97.8682561 L362.701158,98.1850136 C362.701158,98.4956403 357.98658,112.956131 357.671185,113.271526 C355.470232,112.640054 352.325136,111.38188 350.756335,110.440463 L352.017916,107.613488 Z M336.927316,105.725886 L336.61124,106.040599 C336.295845,106.983379 335.04312,111.38188 335.04312,111.38188 C336.61124,111.38188 339.442984,112.014714 340.389169,113.271526 C339.126907,116.413215 337.558106,119.554223 336.295845,122.696594 L334.726362,126.153678 L337.873501,127.100545 L342.273365,128.668665 C343.841485,125.841689 345.726362,121.127112 346.987943,118.928202 C346.987943,118.928202 347.610559,117.039918 347.926635,116.72861 C349.187534,117.670027 353.587398,119.554223 355.786989,119.8703 L356.101703,120.185695 L355.786989,120.185695 C355.786989,120.497003 352.956608,128.983379 350.756335,135.897548 L347.926635,144.38733 L351.70252,145.954087 L355.786989,147.845095 L357.039714,144.697275 C360.817643,133.383924 372.445708,99.1264305 373.068324,95.6700272 L373.383719,95.6700272 L373.068324,95.6700272 C367.415736,93.1536785 360.501567,90.6400545 358.932084,90.3280654 C352.325136,89.3811989 348.556063,95.3546322 346.357153,100.384605 C344.78767,104.156403 342.894619,107.298774 342.894619,107.298774 C341.012466,106.040599 337.558106,105.725886 336.927316,105.725886 Z" id="Stroke-139" stroke="#FEFEFE" stroke-width="0.29"></path>
        <path d="M486.218733,222.958924 L486.218733,236.159196 L488.104292,236.159196 L488.104292,228.301567 C488.104292,227.988215 487.790259,227.67282 487.790259,227.044755 L487.790259,225.472548 L487.790259,224.844482 L491.87609,236.159196 L493.446935,236.159196 L497.532766,224.844482 C497.532766,225.787262 497.218733,226.416008 497.218733,227.044755 L497.218733,228.301567 L497.218733,236.159196 L499.104292,236.159196 L499.104292,222.958924 L496.590668,222.958924 L492.504837,234.273638 L488.732357,222.958924 L486.218733,222.958924 Z M473.646526,222.958924 L484.646526,222.958924 L484.646526,224.53045 L479.931948,224.53045 L479.931948,236.159196 L478.360422,236.159196 L478.360422,224.53045 L473.646526,224.53045 L473.646526,222.958924 Z" id="Fill-141" fill="#00529C"></path>
        <path d="M270.151022,86.8794959 C270.448706,86.2725477 270.687125,85.7378065 270.845845,85.3924387 C270.845845,83.6329019 270.971866,81.8726839 271.099932,80.2384877 C270.845845,77.598842 270.591757,75.0858992 270.33767,72.571594 C268.180995,66.1615123 267.67282,58.6185967 266.785218,51.9571526 C266.404428,50.8256812 266.150341,49.694891 265.896935,48.6894414 C265.262057,47.8093324 264.755245,46.9299046 264.247071,46.1751362 C263.823365,45.8018392 263.24094,45.4360354 262.818597,45.078406 C260.534537,43.1499319 258.405109,41.4707766 255.87173,40.2670981 C255.539305,39.938079 255.205518,39.7786785 255.137398,39.2888965 C254.895572,37.5348093 256.181676,35.3440736 256.379223,33.4796322 C256.379223,30.9666894 256.506608,28.451703 256.632629,25.938079 C255.11015,20.2807221 252.572003,14.4993869 249.781131,9.34611717 C249.273638,8.08862398 248.765463,6.95783379 248.385354,5.8270436 C246.73549,3.43876022 246.912602,1.00006812 243.613556,1.00006812 C242.471866,2.7602861 241.659877,3.94080381 241.279768,6.0777248 C238.614918,10.1002044 239.12173,18.2705041 239.12173,22.9217302 C239.503202,26.1894414 240.010014,29.5838556 240.517507,32.9769074 C241.279768,35.4912125 242.040668,38.3822207 242.168052,40.8958447 C241.153065,42.4047003 239.12173,44.1642371 237.471866,44.7929837 C236.583583,46.4258174 234.55361,48.4373978 233.410559,50.071594 C232.395572,55.6015668 231.507289,61.1329019 230.619687,66.6635559 C229.22391,69.554564 227.954837,73.7023842 227.954837,76.9714578 C228.463011,79.2330381 228.969823,81.6213215 229.477997,84.0102861 C229.477997,87.9605586 228.701431,91.9108311 229.690531,95.4489782 C228.842439,95.7643733 228.043392,95.8638283 226.685082,95.6996594 C222.625136,95.448297 218.565191,95.1962534 214.630586,96.3277248 C211.584946,97.8358992 210.697343,98.7166894 210.697343,102.362466 C210.062466,103.241213 209.04748,103.869959 208.159196,104.498025 C204.86015,108.017779 200.291349,112.920368 198.515463,117.570913 C197.24639,119.079768 195.976635,120.587262 194.707561,122.221458 C194.707561,122.975545 194.961649,124.610422 195.976635,124.610422 C195.850613,124.861104 195.850613,125.113147 195.850613,125.490531 C193.946662,127.375409 192.677589,131.397888 191.661921,133.912193 C188.489578,139.190804 185.444619,144.470095 182.398978,149.875409 C180.369005,155.406063 182.018869,158.170368 184.302929,163.198297 C185.952112,165.461921 188.363556,165.838624 191.281812,166.340668 C193.819278,166.340668 196.230041,165.58658 198.642166,165.085218 C200.67282,163.953065 202.829496,162.946935 204.986853,161.941485 C207.270913,159.176499 210.443256,158.170368 213.741621,158.170368 C218.057016,159.805245 218.9453,161.062057 219.960967,165.713283 C220.341076,171.368597 220.849251,177.025954 221.356063,182.682629 C221.103338,183.687398 220.849251,184.693529 220.721866,185.698978 C218.9453,188.337943 216.787943,191.354973 214.249796,193.617234 C208.920095,201.662193 208.28658,211.968733 207.016826,221.271185 C206.636717,221.899251 206.255245,222.527997 205.875817,223.281403 C204.47936,223.91015 203.083583,224.664918 201.687807,225.419005 C197.24639,226.550477 192.931676,227.680586 188.616962,228.812738 C184.557016,230.320913 180.49639,231.955109 176.561104,233.588624 C173.135354,234.595436 169.835627,235.726226 166.537262,236.857698 C166.537262,237.360422 166.663965,237.988488 166.791349,238.617234 C169.202112,239.496662 170.851975,241.508243 172.62718,243.51846 C175.546798,245.530041 178.465736,247.541621 181.383992,249.677861 C182.779768,251.186035 184.175545,252.69421 185.572003,254.203747 C188.109469,255.459877 190.520913,255.459877 191.281812,258.476226 C192.170095,258.980313 193.058379,259.608379 194.073365,260.237125 C196.992984,260.487807 199.784537,261.242575 202.57609,261.871322 C206.255245,263.379496 206.890123,265.013011 210.697343,263.504155 C213.741621,263.127452 216.915327,262.750749 220.08767,262.373365 C220.214373,263.127452 220.467779,263.88154 220.721866,264.636989 C222.117643,267.024591 225.163283,266.646526 227.701431,266.773229 C229.350613,268.030722 232.016144,268.909469 234.045436,269.538896 C237.599251,269.412875 241.153065,269.286172 244.451431,268.030722 C245.720504,266.899251 246.989578,265.89312 248.25797,264.886989 C249.01955,264.761649 249.781131,264.761649 250.668733,264.761649 C252.699387,266.395845 254.603338,267.904019 257.014101,268.909469 L263.105381,268.909469 C264.628542,268.281403 266.150341,267.778678 267.67282,267.275954 C269.069278,266.269823 269.704155,264.761649 271.607425,264.007561 C274.144891,264.007561 278.079496,263.002793 280.362875,264.510967 C282.520913,264.133583 284.043392,263.504155 285.692575,261.871322 C288.103338,261.871322 290.387398,264.510967 292.163965,265.89312 C294.448025,266.395845 297.747752,266.646526 300.032493,266.143801 C301.681676,264.510967 303.585627,264.007561 305.869687,264.007561 C306.757289,263.630858 307.772956,263.253474 308.787262,262.87609 L311.832902,262.87609 C313.61015,262.247343 315.385354,260.86451 317.289305,260.363147 C317.924183,259.608379 318.304973,258.225545 319.32064,257.72282 C320.46233,257.094074 321.604019,256.466008 322.873093,255.963283 C322.747071,255.083174 322.619687,254.328406 322.619687,253.575 C323.253883,252.69421 323.88876,251.940804 324.903747,251.438079 C324.903747,250.809332 325.03045,250.181267 325.157153,249.677861 C327.061104,249.049796 328.963692,248.42173 330.106063,246.787534 C329.852657,246.033447 329.725954,245.405381 329.599932,244.775954 C328.07609,244.273229 325.41124,244.022548 324.650341,242.513692 C325.538624,240.754155 327.949387,239.748025 329.599932,238.867916 C331.248433,235.600204 325.157153,232.331131 323.000477,231.452384 C321.477316,231.075 319.954837,230.823638 318.432357,230.572275 C313.482766,229.190123 308.407153,227.555926 303.33154,226.801158 C299.778406,227.05252 295.463011,227.303883 291.909877,226.801158 C291.276362,226.425136 290.641485,226.047752 290.007289,225.79639 C288.738215,222.401975 289.499114,216.872003 289.499114,213.351567 C288.484809,208.952384 287.469142,204.679905 286.454155,200.405381 C284.804973,195.252112 282.39421,190.474864 279.983447,185.698978 C279.475272,183.561376 278.967098,181.551158 278.586989,179.538896 C278.586989,174.511649 279.221185,169.484401 280.236172,164.581131 C280.616962,163.450341 281.124455,162.444891 281.631948,161.439441 C283.155109,159.930586 287.215736,158.170368 289.626499,158.170368 C293.813147,160.55797 298.001839,163.198297 302.824046,163.827725 L309.041349,163.827725 C312.341076,162.696935 314.878542,161.314101 316.655109,158.297071 C318.304973,154.022548 315.259332,150.126771 314.116962,146.104292 C312.467779,143.212602 309.930313,139.568188 309.041349,136.300477 L308.534537,136.300477 C308.153065,135.671049 307.898978,135.168324 307.645572,134.665599 C306.123774,129.889714 304.854019,125.615872 304.854019,120.587262 C304.219823,119.331812 303.585627,118.073638 302.950068,116.816144 C302.189169,115.936717 301.554973,115.182629 300.920777,114.427861 C300.159196,114.051158 298.889441,113.17173 298.636035,112.165599 L298.128542,112.165599 C297.620368,111.537534 297.240259,110.909469 296.859469,110.406063 C295.971185,108.897888 293.940531,106.258243 293.179632,104.875409 C293.179632,104.624046 293.306335,104.372684 293.433719,104.122003 C293.052248,103.869959 292.672139,103.617916 292.418052,103.493256 L292.418052,102.98985 C288.103338,100.85361 284.550204,97.8358992 279.72936,96.8304496 C278.079496,95.5736376 276.683038,94.8195504 274.652384,94.3175068 C274.018188,93.5790872 273.669414,93.1472071 272.691213,92.1751362 C272.811104,90.9476158 272.748433,89.6581063 272.748433,88.5354905 C272.495027,88.1581063 272.241621,87.9060627 272.114918,87.6553815 C271.260695,87.4224114 270.648978,87.698297 270.151022,86.8794959" id="Fill-143" fill="#FEFEFE"></path>
        <path d="M252.445163,38.8848774 C251.176771,36.2452316 251.55688,32.3487738 250.542575,29.3324251 C250.288488,29.2064033 250.161104,29.0797003 250.034401,29.0797003 C248.639305,29.7084469 249.400204,33.2282016 249.400204,34.6117166 C249.146117,34.4850136 248.892711,34.359673 248.639305,34.359673 C248.258515,32.222752 247.877725,30.2118529 247.623638,28.2009537 C248.004428,25.5613079 248.511921,22.9216621 249.019414,20.4073569 C249.984673,20.4073569 249.907016,20.4216621 250.394074,21.239782 C251.288488,22.7479564 252.303474,24.2881471 253.587534,25.5613079 C253.841621,26.4400545 254.095027,27.3201635 254.475817,28.3256131 C254.475817,31.719346 254.349114,35.3651226 253.206744,38.6328338 C252.953338,38.6328338 252.699251,38.7588556 252.445163,38.8848774 L252.445163,38.8848774 Z M244.64203,39.4495913 C244.451975,39.2615804 244.260559,39.0735695 244.070504,38.8848774 C243.055518,33.479564 241.025545,27.4461853 243.182221,22.0408719 C244.61955,22.0408719 244.232629,22.4529973 244.387262,23.8099455 C244.891349,28.2472752 245.615463,32.6723433 246.735354,36.9993188 L246.735354,39.2615804 C245.875681,39.9959128 245.407016,40.2084469 244.64203,39.4495913 L244.64203,39.4495913 Z M257.609332,52.0912807 C256.68767,51.6546322 255.845708,51.2322888 255.15906,50.7084469 C255.15906,50.4148501 255.10252,50.0858311 255.213556,49.8746594 C255.546662,49.2404632 256.438351,49.0367847 257.280995,49.0143052 C258.999659,48.9659401 260.194482,49.613079 260.337534,50.7173025 C260.456744,51.6410082 259.864101,51.7513624 259.075272,51.8658038 C258.453338,51.9536785 258.219005,52 257.609332,52.0912807 L257.609332,52.0912807 Z M234.729223,56.6205722 C234.657698,56.1001362 234.73876,55.6341962 234.806199,55.2247956 C234.934946,54.400545 235.086172,53.6185286 235.518733,52.9400545 C236.933583,50.7220708 239.842302,49.229564 242.001022,47.7854223 C244.843665,46.6784741 247.674728,46.1702997 250.387943,46.1736887 C253.60252,46.1777929 256.753065,46.8760218 259.711512,48.4938692 C261.682221,49.5694823 263.997616,51.0286104 264.490804,53.3521798 C264.729223,54.4816076 264.572548,55.6846049 264.120232,56.356267 C263.61342,56.356267 263.232629,56.356267 262.851158,56.4822888 C261.075272,55.2247956 259.298706,54.0940054 257.648842,52.9618529 C255.871594,52.7118529 254.095027,52.4604905 252.445163,52.3344687 C249.780995,52.3344687 247.242847,52.2445504 244.705381,52.3712534 C244.614782,52.2302452 244.533719,51.7901907 244.706063,51.5905995 C244.883856,51.3841962 245.219005,51.3426431 245.383856,50.9536785 C245.580041,50.486376 245.552112,50.1158038 245.169959,49.8065395 C244.472411,49.2356948 243.696526,49.0122616 242.905654,49.0892371 C241.960831,49.1805177 240.231948,50.126703 239.996935,51.1825613 C239.858651,51.7963215 240.331403,51.900545 240.872275,52.0095368 C241.52827,52.1389646 242.144755,52.1260218 242.858651,52.3024523 C242.976499,52.3501362 243.129087,52.8712534 242.85252,53.0435967 C240.186989,53.8480926 238.233311,55.4059946 235.949251,57.2356948 C235.732629,57.2098093 235.52827,57.1982289 235.354564,57.2132153 C234.795981,57.2622616 234.831403,57.3753406 234.729223,56.6205722 L234.729223,56.6205722 Z M256.383856,65.1049046 C255.407698,64.4305177 254.370913,63.5 255.491485,62.390327 C256.347752,61.9659401 257.240123,61.640327 258.114101,61.5885559 C259.571185,61.5047684 260.979905,62.0449591 262.090259,63.1444142 C262.22173,63.6485014 262.168597,64.0728883 262.217643,64.5749319 C260.693801,64.3194823 259.678815,64.0286104 258.66451,65.4066757 C258.22718,65.4066757 257.772139,65.3514986 257.32391,65.3576294 C256.785763,65.3637602 256.639305,65.280654 256.383856,65.1049046 L256.383856,65.1049046 Z M249.146117,70.6859673 C249.019414,70.1839237 249.019414,69.8058583 249.019414,69.4284741 C250.034401,69.4284741 251.050068,69.5544959 252.192439,69.6805177 L252.192439,70.4346049 C251.176771,70.4346049 250.161104,70.5599455 249.146117,70.6859673 L249.146117,70.6859673 Z M251.050068,80.113079 C248.892711,79.4850136 245.974455,78.6049046 245.974455,75.8399183 C246.355245,75.2104905 246.735354,74.5824251 247.116826,74.0797003 C250.415872,72.4461853 253.968324,72.1934605 256.379087,75.3371935 C256.379087,77.5987738 255.110014,78.2275204 253.460831,79.4850136 C252.572548,79.6103542 251.810967,79.8617166 251.050068,80.113079 L251.050068,80.113079 Z M249.907016,86.147139 C246.481267,85.26703 242.167916,83.3807902 239.375681,81.2452316 C238.994891,80.6158038 238.614782,80.113079 238.360695,79.6103542 C237.217643,73.9543597 235.98876,69.8228883 237.51124,64.2915531 C238.067779,64.2915531 238.538488,64.7391008 239.125681,64.7820163 C239.209469,64.7867847 239.375,64.7459128 239.459469,64.736376 C239.92609,64.6784741 240.401567,64.2077657 240.879087,64.2486376 C241.095708,64.26703 241.315054,64.7588556 241.532357,64.7792916 C242.056199,65.2963215 242.69312,65.6314714 243.376362,65.5279292 C244.516689,65.3549046 245.791213,64.3780654 246.901567,64.0640327 C246.901567,61.5504087 244.197888,61.3841962 242.041213,61.3841962 C240.946526,61.4318801 239.85252,62.4080381 238.804155,62.852861 C238.394755,63.0258856 237.990804,62.9673025 237.599114,63.1444142 C237.646117,62.4448229 237.713556,61.8658038 237.81846,61.3876022 C238.095708,60.1246594 239.313011,58.976158 240.672003,58.8978202 C242.166553,58.8113079 243.629087,59.2697548 244.705381,59.6239782 C244.848433,59.0585831 244.83549,58.3065395 245.240123,57.7288828 C245.594346,57.222752 246.185627,57.0211172 246.705381,56.5974114 C247.699932,55.7881471 248.757153,54.7758856 249.654292,54.4802452 C250.368188,54.2970027 251.116826,54.3623978 252.065054,54.5967302 C252.993529,55.7207084 254.458106,56.6001362 254.929496,57.9311989 C255.039169,58.2377384 254.983311,58.6430518 254.983311,58.996594 C254.349114,59.6239782 253.864782,59.8712534 253.644755,60.3031335 C253.514646,60.5619891 253.60252,60.9134877 253.460831,61.3841962 C254.349114,61.006812 255.237398,60.7561308 256.252384,60.5047684 C258.157016,60.3589918 260.185627,60.263624 262.217643,60.5047684 C263.232629,61.510218 263.232629,63.1444142 263.486035,64.6525886 C263.866826,65.7840599 264.246935,66.9148501 264.628406,68.1723433 C264.628406,71.8651226 263.821185,77.2786104 261.353883,80.6961853 C259.695163,82.9986376 257.393392,84.0640327 255.364101,85.1416894 C253.460831,85.859673 251.683583,86.1328338 249.907016,86.147139 L249.907016,86.147139 Z M270.210831,96.4536785 C268.815054,95.0708447 268.434946,94.3174387 268.434946,92.1798365 C269.322548,90.6723433 270.210831,89.1641689 271.225817,87.6553134 L272.114782,87.6553134 C272.242166,87.9059946 272.495572,88.1580381 272.748978,88.5354223 C272.748978,91.3004087 273.129768,95.0708447 270.210831,96.4536785 L270.210831,96.4536785 Z M231.888624,99.4700272 C227.9547,95.0708447 229.477861,89.5401907 229.477861,84.010218 C228.969687,81.6212534 228.462875,79.23297 227.9547,76.9713896 C227.9547,73.7023161 229.223774,69.5544959 230.61955,66.6634877 C231.507834,61.1328338 232.395436,55.6014986 233.411104,50.0715259 C234.553474,48.4373297 236.583447,46.4257493 237.472411,44.7929155 C239.121594,44.1641689 241.152929,42.4046322 242.167916,40.8957766 C242.041213,38.3821526 241.279632,35.4911444 240.517371,32.9768392 C240.009877,29.5837875 239.503065,26.1893733 239.121594,22.9216621 C239.121594,18.270436 238.614782,10.1001362 241.279632,6.07765668 C241.659741,3.94073569 242.47173,2.76021798 243.61342,1 C246.912466,1 246.735354,3.4386921 248.385218,5.82697548 C248.766008,6.95776567 249.273501,8.08855586 249.780995,9.34604905 C252.572548,14.4993188 255.110014,20.280654 256.632493,25.9380109 C256.506471,28.4516349 256.379087,30.9666213 256.379087,33.479564 C256.18154,35.3440054 254.896117,37.5354223 255.137262,39.2888283 C255.205381,39.7786104 255.539169,39.9380109 255.871594,40.26703 C258.404973,41.4707084 260.534401,43.1498638 262.819142,45.0783379 C263.241485,45.4359673 263.823229,45.8017711 264.246935,46.1750681 C264.755109,46.9298365 265.261921,47.8092643 265.896798,48.6893733 C266.150204,49.6948229 266.404292,50.8256131 266.785082,51.9570845 C267.672684,58.6185286 268.18154,66.1614441 270.338215,72.5715259 C270.592302,75.0858311 270.845708,77.5987738 271.099796,80.2384196 C270.97173,81.8726158 270.845708,83.6328338 270.845708,85.3923706 C270.210831,86.7752044 268.307561,91.1743869 266.404292,91.1743869 C263.232629,89.1641689 262.723774,87.5292916 260.947888,84.1355586 L259.552793,84.1355586 C256.518733,86.0797003 254.300749,87.2173025 251.486717,87.3705722 C247.919278,87.5647139 242.082766,84.8555858 240.009877,84.1546322 C239.883856,86.5422343 239.883856,89.1641689 239.883856,91.5517711 C239.121594,95.6995913 235.695845,97.9625341 231.888624,99.4700272 L231.888624,99.4700272 Z M240.137262,103.241144 C239.503065,103.241144 239.63045,101.482289 239.63045,101.230245 L240.644755,101.230245 C240.771458,101.73297 240.899523,102.362398 241.152929,102.989782 C240.771458,102.989782 240.391349,103.115804 240.137262,103.241144 L240.137262,103.241144 Z M263.358651,104.247275 C263.232629,103.869891 263.232629,103.493188 263.232629,103.241144 C263.61342,102.865123 263.61342,102.739101 264.246935,102.989782 C264.120232,103.241144 264.120232,103.617847 264.120232,103.995232 C263.866826,103.995232 263.61342,104.121935 263.358651,104.247275 L263.358651,104.247275 Z M270.719005,104.623978 C269.704019,103.74455 268.689033,102.989782 267.672684,102.235695 C267.545981,101.858311 267.545981,101.482289 267.545981,101.230245 C268.942439,100.224796 270.845708,97.2077657 272.621594,97.2077657 C272.875681,97.8358311 273.257153,98.4652589 273.63658,99.2186649 C273.63658,100.853542 273.63658,103.617847 271.860695,104.497956 C271.479905,104.497956 271.099796,104.497956 270.719005,104.623978 L270.719005,104.623978 Z M263.105245,107.641008 C262.723774,107.263624 262.723774,106.509537 262.851158,106.006131 C264.374319,105.881471 263.993529,106.132834 264.374319,107.263624 C263.866826,107.388283 263.486035,107.514986 263.105245,107.641008 L263.105245,107.641008 Z M240.009877,107.641008 C239.375681,107.012943 239.63045,105.881471 239.883856,105.252725 L241.152929,105.252725 C241.659741,105.75545 241.787125,106.886921 241.152929,107.514986 C240.771458,107.514986 240.391349,107.514986 240.009877,107.641008 L240.009877,107.641008 Z M229.604564,109.275204 C227.9547,106.006131 226.685627,102.613079 228.462875,98.9679837 L229.477861,98.9679837 C230.873638,100.853542 233.665872,105.881471 232.52282,108.143733 C232.016008,108.395095 231.507834,108.771798 231.001022,109.149183 C230.491485,109.149183 229.984673,109.149183 229.604564,109.275204 L229.604564,109.275204 Z M246.608651,110.783379 C246.228542,109.90327 246.355245,109.149183 246.481267,108.269074 L247.750341,108.269074 C248.385218,108.89782 248.258515,109.526567 248.385218,110.280654 C247.750341,110.405995 247.116826,110.532698 246.608651,110.783379 L246.608651,110.783379 Z M263.866826,111.160763 C262.851158,110.532698 262.723774,110.154632 262.978542,109.023161 C263.740123,109.149183 264.501022,109.275204 265.261921,109.526567 L265.261921,110.783379 C264.755109,110.909401 264.246935,111.034741 263.866826,111.160763 L263.866826,111.160763 Z M242.548025,111.160763 C241.913828,110.532698 242.294619,109.777248 242.421322,109.023161 L243.182221,109.023161 C243.689714,109.526567 243.689714,110.280654 243.689714,111.034741 C243.309605,111.034741 242.928815,111.034741 242.548025,111.160763 L242.548025,111.160763 Z M214.63045,111.411444 C213.996253,110.783379 212.472411,110.657357 213.10797,109.400545 C215.391349,108.645777 216.915191,105.881471 218.945163,105.377384 C218.565736,107.514986 217.930177,110.02861 216.026907,111.285422 C215.518733,111.285422 215.01124,111.285422 214.63045,111.411444 L214.63045,111.411444 Z M260.947888,114.303134 C260.440395,113.800409 260.059605,113.423025 259.679496,113.044959 C259.932221,111.537466 260.186308,111.411444 261.456063,111.034741 C262.597071,111.537466 262.597071,112.165531 262.723774,113.297003 C262.090259,113.549046 261.456063,113.925749 260.947888,114.303134 L260.947888,114.303134 Z M249.146117,114.427793 C249.019414,114.176431 249.019414,113.925749 249.019414,113.674387 C249.273501,113.549046 249.527589,113.549046 249.907016,113.549046 C249.780995,113.800409 249.654292,114.05109 249.654292,114.303134 C249.400204,114.303134 249.273501,114.303134 249.146117,114.427793 L249.146117,114.427793 Z M245.212875,114.93188 C244.831403,114.680518 244.451975,114.427793 244.070504,114.303134 C244.070504,113.674387 244.070504,113.171662 244.197888,112.668256 C246.862738,111.034741 247.750341,114.303134 245.212875,114.93188 L245.212875,114.93188 Z M217.549387,115.685286 C217.295981,115.433924 217.041213,115.307902 216.787807,115.182561 C216.152929,114.303134 215.900204,113.800409 215.900204,112.668256 C216.661104,112.542916 217.423365,112.417575 218.184264,112.292234 C219.199251,111.537466 219.834128,110.783379 221.103202,110.405995 C220.976499,111.285422 220.976499,112.292234 220.976499,113.297003 C220.34094,113.925749 219.706744,114.554496 219.073229,115.182561 C218.565736,115.307902 218.057561,115.433924 217.549387,115.685286 L217.549387,115.685286 Z M258.66451,117.570845 C258.410422,117.445504 258.157016,117.320163 257.902929,117.320163 C257.902929,116.565395 257.394074,115.182561 258.029632,114.554496 C260.567779,114.554496 261.201975,116.942779 258.66451,117.570845 L258.66451,117.570845 Z M232.14203,117.570845 C232.14203,116.314033 232.268733,115.182561 232.395436,114.05109 C233.030313,114.303134 233.665872,114.554496 234.299387,114.805177 L236.456063,114.805177 L236.456063,115.433924 C235.060286,116.314033 233.538488,117.19346 232.14203,117.570845 L232.14203,117.570845 Z M249.907016,118.702316 C249.527589,118.450954 249.273501,118.19891 249.019414,117.948229 C249.019414,117.320163 249.019414,116.691417 249.146117,116.188011 C250.923365,115.307902 251.938351,116.06267 251.938351,117.948229 C251.176771,118.19891 250.542575,118.450954 249.907016,118.702316 L249.907016,118.702316 Z M259.298706,119.455722 C259.044619,119.205041 258.790531,118.952997 258.66451,118.827657 C259.298706,118.450954 259.932221,118.073569 260.694482,117.696866 C261.456063,116.06267 261.456063,115.182561 263.358651,114.805177 C263.358651,116.691417 263.740123,118.19891 261.963556,119.331744 C261.075272,119.331744 260.186308,119.331744 259.298706,119.455722 L259.298706,119.455722 Z M282.773501,119.581744 C279.347752,118.450954 279.855926,116.440054 279.601839,113.549046 C279.601839,113.171662 278.07936,108.395095 278.840259,107.641008 C281.378406,108.89782 280.743529,115.057221 282.266689,117.570845 C282.900886,117.696866 283.662466,117.948229 284.423365,118.19891 C284.423365,119.0797 283.535763,119.581744 282.773501,119.581744 L282.773501,119.581744 Z M244.451975,119.581744 C242.674728,119.581744 241.913828,116.816076 242.674728,115.559264 C244.197888,115.559264 245.720368,115.685286 247.242847,115.811308 C247.370232,116.816076 247.623638,117.822888 247.877725,118.952997 C246.735354,119.0797 245.592984,119.331744 244.451975,119.581744 L244.451975,119.581744 Z M220.849114,119.581744 C220.595027,119.455722 220.34094,119.331744 220.214918,119.205041 C220.214918,118.19891 221.864101,116.942779 222.371594,116.188011 C222.498297,115.559264 222.625681,114.93188 222.752384,114.303134 L223.387262,114.303134 C223.387262,116.06267 223.259877,117.822888 222.498297,119.455722 C221.864101,119.455722 221.355926,119.455722 220.849114,119.581744 L220.849114,119.581744 Z M241.405654,123.352861 C240.263965,123.352861 231.001022,123.855586 232.268733,121.21594 C238.488079,120.963896 244.705381,120.839237 250.923365,120.713215 C258.283038,120.713215 265.770095,120.839237 273.257153,120.963896 C273.763965,121.341962 274.652929,122.22139 274.271458,122.975477 C263.232629,123.10218 252.317779,123.226839 241.405654,123.352861 L241.405654,123.352861 Z M228.589578,142.333787 C228.081403,141.830381 227.701294,141.327657 227.57391,140.448229 C227.57391,135.544959 227.701294,130.769074 227.827997,125.992507 C227.9547,125.615804 228.081403,125.36376 228.208787,125.113079 C230.873638,124.861035 233.665872,124.736376 236.456063,124.610354 L275.667916,124.610354 C275.794619,124.861035 275.921322,125.113079 276.175409,125.490463 C276.175409,130.643052 276.936308,136.802452 276.175409,141.830381 C274.779632,141.956403 273.383174,142.081744 272.114782,142.207766 C257.521458,142.207766 243.055518,142.207766 228.589578,142.333787 L228.589578,142.333787 Z M208.539169,144.470027 C208.539169,142.081744 210.06233,140.824932 211.204019,138.688011 C212.347071,138.561308 213.614782,138.436649 214.883856,138.436649 C215.137943,138.938692 215.391349,139.442098 215.77282,140.070845 C215.77282,141.70436 210.06233,143.966621 208.539169,144.470027 L208.539169,144.470027 Z M291.529632,146.104223 C289.499659,144.972752 285.184946,142.333787 288.864782,140.572888 L289.88045,140.572888 C291.148842,142.081744 291.910422,144.218665 292.418597,146.104223 L291.529632,146.104223 Z M269.449932,146.355586 C268.561649,145.978202 267.672684,145.600817 266.785082,145.349455 C266.785082,142.835831 273.763965,143.841281 275.921322,144.092643 C275.921322,144.218665 275.921322,144.470027 276.048025,144.722071 C274.398842,146.355586 271.733992,146.230245 269.449932,146.355586 L269.449932,146.355586 Z M232.649523,146.858311 C231.38045,146.481608 229.604564,146.104223 229.604564,144.596049 C231.507834,143.841281 239.121594,143.087875 240.899523,144.847411 C238.994891,145.475477 237.217643,146.104223 235.441757,146.731608 C234.426771,146.731608 233.538488,146.731608 232.649523,146.858311 L232.649523,146.858311 Z M239.756471,151.760218 C239.503065,151.635559 239.375681,151.509537 239.248978,151.509537 C239.248978,151.258174 239.248978,151.006131 239.375681,150.880109 C239.63045,150.75545 240.009877,150.75545 240.391349,150.75545 L240.391349,151.509537 C240.137262,151.509537 239.883856,151.635559 239.756471,151.760218 L239.756471,151.760218 Z M197.626362,153.645777 C197.626362,152.891689 197.626362,152.262943 197.753747,151.635559 C199.02282,151.635559 198.896117,152.010899 199.150204,152.891689 C198.642711,153.143052 198.134537,153.394414 197.626362,153.645777 L197.626362,153.645777 Z M201.433583,153.771117 C201.054155,153.645777 200.800068,153.521117 200.545981,153.394414 C200.418597,153.143052 200.418597,152.891689 200.418597,152.640327 C200.800068,152.388283 201.179496,152.262943 201.68767,152.136921 C200.92609,151.382834 200.16451,150.75545 199.530313,150.126703 C199.530313,149.875341 199.657698,149.748638 199.784401,149.623297 C200.545981,149.875341 201.30688,150.126703 202.195163,150.378065 C202.195163,151.509537 202.195163,152.640327 202.321866,153.771117 L201.433583,153.771117 Z M246.355245,155.279973 C246.228542,155.02861 246.228542,154.776567 246.228542,154.651907 C246.355245,154.525886 246.608651,154.525886 246.862738,154.525886 C246.885218,155.012943 246.757834,155.264305 246.355245,155.279973 L246.355245,155.279973 Z M260.821185,155.909401 C260.567779,155.530654 260.313692,155.153951 260.059605,154.776567 C260.821185,154.776567 261.456063,154.776567 261.456063,155.656676 C261.201975,155.656676 260.947888,155.782698 260.821185,155.909401 L260.821185,155.909401 Z M240.137262,155.909401 C240.137262,155.656676 240.137262,155.405995 240.263965,155.153951 C240.644755,155.02861 241.025545,155.02861 241.405654,155.02861 C241.279632,155.153951 241.152929,155.405995 241.152929,155.656676 C240.771458,155.656676 240.391349,155.782698 240.137262,155.909401 L240.137262,155.909401 Z M252.699251,156.410763 C249.780995,155.909401 248.385218,154.525886 246.862738,152.010899 L246.862738,150.000681 C250.161104,149.623297 257.141349,148.869891 259.552793,150.000681 C259.552793,150.504087 259.552793,151.006131 259.679496,151.509537 C258.157016,154.651907 256.252384,156.285422 252.699251,156.410763 L252.699251,156.410763 Z M221.103202,156.91485 C218.81846,156.410763 216.533719,155.909401 214.250341,155.530654 C212.600477,155.405995 211.076635,155.405995 209.554837,155.405995 C207.650886,157.291553 206.001022,155.656676 205.367507,153.645777 C205.367507,151.131471 205.240123,151.131471 207.524864,150.000681 C209.174728,148.366485 210.82391,146.731608 212.600477,145.099455 C215.391349,143.716621 220.976499,140.070845 224.528951,140.070845 C224.528951,140.572888 224.528951,141.076975 224.655654,141.70436 C223.259877,143.087875 221.355926,143.716621 219.960831,145.099455 L219.960831,146.858311 C222.498297,150.75545 228.842984,149.875341 232.90361,150.000681 C233.030313,150.252044 233.157698,150.504087 233.411104,150.75545 C231.761921,152.010899 230.112057,153.269074 228.589578,154.651907 C226.177452,155.530654 223.640668,156.536785 221.103202,156.91485 L221.103202,156.91485 Z M300.286444,158.297003 C299.651567,156.91485 300.032357,155.909401 300.793937,154.651907 C302.569142,154.651907 302.316417,156.662125 301.554837,157.793597 C301.048025,157.919619 300.666553,158.04564 300.286444,158.297003 L300.286444,158.297003 Z M294.067779,158.799046 C292.798025,158.04564 290.768733,156.788147 289.88045,155.530654 L288.864782,155.530654 C285.947207,157.165531 283.154973,157.919619 279.855926,158.1703 C277.697888,157.793597 267.672684,153.521117 268.815054,149.875341 C272.621594,149.623297 277.951975,150.000681 281.378406,148.366485 C281.378406,147.86376 281.505109,147.361035 281.632493,146.858311 C281.125,146.230245 280.743529,145.72752 280.362738,145.223433 L279.855926,145.223433 L279.855926,144.722071 L279.475136,144.722071 C279.094346,143.464578 278.714237,142.961172 278.967643,141.452997 C280.616826,141.452997 282.394074,143.464578 283.662466,144.343324 C286.708106,145.853542 289.245572,147.98842 291.783719,150.126703 C292.291213,150.378065 292.925409,150.75545 293.560286,151.131471 C298.509877,151.131471 298.128406,155.909401 295.462875,158.548365 C294.955381,158.548365 294.447888,158.674387 294.067779,158.799046 L294.067779,158.799046 Z M257.013965,158.924387 C256.90906,158.80109 256.459469,158.083787 257.048025,158.047684 C257.279632,158.03406 257.434946,158.324251 257.521458,158.674387 C257.375681,158.884877 257.236717,158.986376 257.013965,158.924387 L257.013965,158.924387 Z M274.018052,159.930518 L274.018052,158.799046 L274.652929,158.799046 C274.652929,159.176431 274.779632,159.553815 274.906335,159.930518 L274.018052,159.930518 Z M241.787125,159.930518 C241.659741,159.679837 241.659741,159.427793 241.659741,159.176431 C241.913828,159.050409 242.167916,159.050409 242.548025,159.050409 L242.548025,159.930518 L241.787125,159.930518 Z M199.276226,159.930518 C198.387943,158.799046 197.753747,157.668256 197.501022,156.285422 C198.896117,156.285422 200.16451,157.165531 201.68767,157.165531 C201.814373,156.410763 202.06846,155.656676 202.321866,155.02861 C203.337534,155.02861 204.732629,157.291553 204.479223,158.297003 C202.448569,158.297003 201.054155,158.04564 200.037807,159.679837 C199.784401,159.679837 199.530313,159.805177 199.276226,159.930518 L199.276226,159.930518 Z M261.709469,160.181199 C261.582084,159.805177 261.456063,159.427793 261.456063,159.176431 C262.597071,159.176431 262.597071,159.427793 263.105245,160.181199 L261.709469,160.181199 Z M301.428134,161.314033 C300.793937,159.930518 300.286444,159.302452 298.889986,158.548365 C299.016689,156.662125 299.144074,154.776567 299.398161,153.017711 C300.286444,153.017711 301.68154,152.766349 302.189033,152.262943 C300.793937,151.760218 300.15906,151.760218 300.15906,150.252044 C304.981267,148.743188 303.711512,157.416213 303.2047,159.679837 C302.82391,160.433924 302.06233,161.061989 301.428134,161.314033 L301.428134,161.314033 Z M305.86955,161.816076 C304.34639,161.061989 305.361376,158.1703 305.615463,156.91485 L305.615463,152.640327 C304.219687,148.366485 304.854564,148.869891 308.787125,147.361035 C308.913828,147.109673 309.168597,146.858311 309.422684,146.606948 C307.137943,146.606948 304.854564,146.731608 302.569142,147.361035 C301.048025,148.240463 298.761921,148.743188 297.112738,147.98842 C296.098433,145.978202 292.798025,141.327657 292.798025,138.436649 C293.813692,137.305177 294.82936,136.173706 295.844346,135.042916 C295.971049,133.660082 296.224455,132.40327 297.240123,131.39782 C298.63658,131.020436 299.398161,130.265668 299.398161,128.758174 C298.889986,127.25 298.509877,125.867166 298.761921,124.358992 C299.77827,124.861035 300.92064,125.490463 302.06233,126.11921 C305.488079,133.785422 308.152929,141.830381 312.848433,148.869891 C313.355926,150.378065 313.862738,152.010899 314.498297,153.645777 C314.498297,154.776567 314.625,155.909401 314.751703,157.165531 C312.34094,160.307902 309.802793,161.439373 305.86955,161.816076 L305.86955,161.816076 Z M242.548025,162.067439 C242.294619,161.941417 242.167916,161.816076 242.041213,161.816076 C242.041213,161.564714 242.041213,161.314033 242.167916,161.188011 L243.055518,161.188011 C243.055518,161.314033 243.182221,161.564714 243.309605,161.816076 C243.055518,161.816076 242.802112,161.941417 242.548025,162.067439 L242.548025,162.067439 Z M260.821185,164.329019 C260.313692,164.079019 259.80688,163.827657 259.298706,163.575613 C259.80688,163.450272 260.313692,163.324251 260.821185,163.324251 C260.947888,163.450272 261.075272,163.575613 261.328678,163.827657 C261.075272,163.952997 260.947888,164.079019 260.821185,164.329019 L260.821185,164.329019 Z M272.621594,165.08515 L272.621594,163.952997 L273.257153,163.952997 L273.257153,164.833106 C273.003065,164.833106 272.748978,164.958447 272.621594,165.08515 L272.621594,165.08515 Z M231.001022,165.963896 C230.873638,165.713215 230.873638,165.586512 230.873638,165.461853 C231.127044,165.335831 231.38045,165.335831 231.634537,165.335831 C231.38045,165.461853 231.127044,165.713215 231.001022,165.963896 L231.001022,165.963896 Z M259.552793,166.21594 C259.425409,165.963896 259.298706,165.713215 259.298706,165.586512 C259.552793,165.586512 259.80688,165.713215 260.059605,165.838556 C259.80688,165.963896 259.679496,166.089918 259.552793,166.21594 L259.552793,166.21594 Z M251.55688,166.968665 C247.750341,166.21594 244.831403,162.570163 244.831403,158.674387 C246.608651,158.674387 247.116826,158.924387 248.258515,160.057221 L250.415872,160.057221 C251.810967,161.061989 254.475817,161.439373 255.998978,160.433924 C259.425409,160.433924 258.029632,162.696866 256.632493,164.833106 C255.744891,165.335831 254.856608,165.963896 254.095027,166.593324 C253.206744,166.717984 252.317779,166.844687 251.55688,166.968665 L251.55688,166.968665 Z M243.943801,186.830381 C242.548025,186.577657 241.152929,186.326294 239.756471,186.075613 C234.680177,184.316076 229.731267,182.682561 224.782357,181.047684 C224.655654,180.670981 224.528951,180.294278 224.402248,180.042916 C223.640668,173.756812 222.879768,167.472752 222.117507,161.314033 C222.117507,160.810627 222.244891,160.433924 222.371594,160.057221 C225.163147,159.050409 226.304837,157.541553 227.827997,160.557902 L227.827997,173.254768 C228.33549,176.145777 231.127044,179.538828 234.553474,177.905313 C235.949251,174.260218 236.202657,171.495232 234.806199,167.849455 C233.284401,165.209809 229.85797,158.422343 231.761921,155.530654 C233.157698,155.530654 235.315054,152.136921 236.837534,152.891689 C237.979905,156.159401 239.121594,159.427793 240.263965,162.696866 C242.041213,166.21594 244.705381,170.740463 249.146117,170.740463 C251.303474,172.123297 254.349114,170.991826 256.759877,170.740463 C258.157016,169.484332 259.552793,168.35218 260.947888,167.220708 C261.836172,165.335831 262.723774,163.575613 263.740123,161.816076 C264.755109,159.176431 265.770095,156.536785 266.785082,153.89782 C268.434946,153.89782 270.845708,155.656676 272.114782,156.788147 C272.114782,157.416213 272.114782,158.1703 272.242166,158.924387 C271.733992,160.433924 271.225817,162.067439 270.845708,163.701635 C270.210831,164.455722 269.576635,165.209809 268.942439,165.963896 C267.165872,168.980245 263.993529,173.380109 267.800068,176.145777 C268.689033,176.019755 269.576635,175.893733 270.464918,175.768392 C271.225817,175.014986 271.987398,174.385559 272.875681,173.756812 C273.383174,172.374659 273.890668,170.991826 274.398842,169.734332 C274.398842,166.340599 274.652929,163.073569 276.175409,160.057221 L277.825272,160.057221 C278.07936,160.307902 278.333447,160.557902 278.586853,160.810627 C278.206063,161.690054 277.951975,162.696866 277.697888,163.701635 C275.286444,167.849455 276.428815,172.752044 275.794619,177.277248 C274.525545,177.905313 273.257153,178.533379 272.114782,179.287466 C264.755109,181.802452 257.141349,184.944142 249.654292,186.703678 C247.750341,186.703678 245.847071,186.703678 243.943801,186.830381 L243.943801,186.830381 Z M243.563692,199.274523 C241.279632,198.771117 238.994891,198.393733 236.837534,198.01703 C231.888624,195.880109 226.558924,193.99455 221.864101,191.354905 L221.864101,188.465259 C222.625681,187.207084 223.513965,184.190736 224.528951,183.68733 C225.924728,184.064714 227.320504,184.442098 228.842984,184.81812 C233.284401,186.326294 237.726499,187.961172 242.294619,189.595368 C244.451975,189.595368 246.608651,189.595368 248.892711,189.720708 C255.618188,188.714578 261.963556,185.949591 268.054155,183.184605 C269.704019,182.682561 274.271458,180.419619 275.921322,182.053134 C276.428815,183.68733 278.714237,187.709809 277.190395,189.217984 C273.510559,191.605586 269.576635,193.869891 265.516008,195.628747 C264.246935,196.00545 262.978542,196.508856 261.709469,197.010899 C259.425409,197.513624 257.141349,198.01703 254.856608,198.645095 C251.050068,198.771117 247.242847,199.02248 243.563692,199.274523 L243.563692,199.274523 Z M249.907016,211.214578 C243.817098,210.46049 237.853202,209.706403 231.888624,208.952316 C230.366144,208.952316 221.610014,209.581063 221.229223,209.203678 C227.19312,205.055177 238.360695,207.444142 244.958787,208.323569 C246.481267,208.450272 248.004428,208.574932 249.527589,208.700954 C251.430858,208.574932 253.334128,208.450272 255.364101,208.323569 C257.141349,207.820845 259.044619,207.318801 260.947888,206.815395 C263.61342,206.689373 269.576635,205.558583 271.860695,206.689373 L271.860695,207.192779 C265.135218,207.946866 258.029632,208.700954 251.55688,211.089237 C250.923365,211.089237 250.415872,211.089237 249.907016,211.214578 L249.907016,211.214578 Z M249.400204,222.150545 C249.273501,221.899183 249.273501,221.64782 249.273501,221.396458 C249.527589,221.271117 249.780995,221.271117 250.161104,221.271117 L250.161104,222.025204 C249.907016,222.025204 249.654292,222.025204 249.400204,222.150545 L249.400204,222.150545 Z M241.787125,222.401907 C241.152929,222.025204 240.517371,221.64782 240.009877,221.271117 L240.009877,220.516349 C241.405654,220.768392 242.928815,221.019755 244.451975,221.396458 C244.451975,221.64782 244.578678,221.899183 244.705381,222.150545 C243.689714,222.150545 242.674728,222.276567 241.787125,222.401907 L241.787125,222.401907 Z M230.746253,222.401907 C230.23876,222.025204 229.731267,221.773161 229.223774,221.521798 C229.223774,219.762262 232.776907,220.138965 233.791213,220.642371 C233.791213,220.893052 233.791213,221.145777 233.918597,221.521798 C232.90361,222.150545 231.888624,222.276567 230.746253,222.401907 L230.746253,222.401907 Z M254.603202,222.65327 C254.22173,222.276567 253.968324,222.276567 253.968324,221.64782 C254.856608,221.271117 257.521458,221.019755 258.157016,221.64782 C257.013965,222.401907 255.998978,222.527929 254.603202,222.65327 L254.603202,222.65327 Z M268.054155,223.406676 C261.836172,221.019755 268.307561,220.390327 270.97173,221.019755 C270.97173,222.276567 269.069142,223.030654 268.054155,223.406676 L268.054155,223.406676 Z M248.004428,223.659401 C247.877725,223.406676 247.877725,223.155995 247.877725,222.904632 C248.004428,222.65327 248.131131,222.527929 248.385218,222.401907 C248.511921,222.77861 248.639305,223.155995 248.766008,223.659401 L248.004428,223.659401 Z M250.542575,224.286785 C250.415872,223.910082 250.288488,223.532698 250.288488,223.281335 C250.542575,223.281335 250.923365,223.281335 251.303474,223.406676 C251.050068,223.659401 250.795981,223.910082 250.542575,224.286785 L250.542575,224.286785 Z M240.899523,225.041553 C240.137262,224.538828 239.375681,224.036104 238.742166,223.532698 C240.391349,222.77861 242.421322,223.532698 244.197888,223.910082 L244.197888,224.538828 C243.563692,225.167575 241.787125,225.041553 240.899523,225.041553 L240.899523,225.041553 Z M254.603202,225.292916 C254.22173,224.916213 253.968324,224.916213 253.968324,224.286785 C255.364101,224.036104 256.759877,223.910082 258.283038,223.785422 C257.394074,225.167575 256.252384,225.292916 254.603202,225.292916 L254.603202,225.292916 Z M248.766008,225.292916 L248.766008,224.66485 L249.400204,224.66485 C249.400204,224.790191 249.527589,225.041553 249.654292,225.292916 L248.766008,225.292916 Z M279.475136,225.6703 C278.459469,224.790191 277.063692,224.036104 276.556199,222.904632 C278.714237,223.406676 279.347752,223.910082 279.855926,225.6703 L279.475136,225.6703 Z M285.311649,226.425068 C284.423365,225.041553 283.662466,223.659401 282.900886,222.401907 C281.759196,221.271117 280.616826,220.138965 279.475136,219.008174 C277.317779,217.877384 275.159741,216.871935 272.875681,216.493869 C269.069142,216.619891 265.389305,216.871935 261.709469,217.122616 C251.684264,217.122616 241.659741,216.619891 231.761921,215.48842 C227.701294,215.865804 223.640668,216.493869 219.834128,217.877384 C217.169278,219.510899 214.503747,221.145777 211.839578,222.77861 C210.697207,221.64782 210.697207,219.888283 210.697207,218.254087 C211.58549,212.722752 212.600477,207.192779 213.614782,201.788147 C214.63045,199.274523 216.152929,195.502044 218.691076,194.245913 C223.640668,194.245913 227.19312,196.634877 231.507834,199.148501 C234.553474,199.901907 237.599114,200.656676 240.644755,201.536104 C243.563692,201.662125 246.481267,201.788147 249.400204,201.913488 C256.759877,201.410763 263.866826,199.399864 270.464918,196.382834 C273.003065,194.748638 275.541213,192.612398 278.714237,192.612398 C283.662466,196.634877 284.550068,203.547684 286.200613,209.329019 C286.580722,211.592643 286.961512,213.980245 287.342302,216.368529 C287.342302,219.637602 287.088215,223.030654 286.073229,226.173025 C285.819823,226.173025 285.565736,226.298365 285.311649,226.425068 L285.311649,226.425068 Z M219.199251,226.926431 C219.199251,226.425068 219.326635,225.920981 219.452657,225.544278 C218.81846,225.544278 218.184264,225.544278 217.676771,225.6703 C217.676771,223.785422 220.722411,223.281335 221.990804,222.904632 C221.990804,223.155995 221.990804,223.532698 222.117507,223.910082 C222.498297,224.036104 222.879768,224.161444 223.387262,224.286785 C223.387262,225.041553 219.960831,226.675749 219.199251,226.926431 L219.199251,226.926431 Z M214.883856,227.807221 C214.883856,227.555858 214.883856,227.303815 215.01124,227.052452 L215.646117,227.052452 L215.646117,227.555858 C215.391349,227.555858 215.137943,227.680518 214.883856,227.807221 L214.883856,227.807221 Z M278.206063,228.057902 C277.190395,227.178474 276.175409,226.425068 275.286444,225.6703 L275.286444,225.041553 C276.301431,225.418937 277.317779,225.796322 278.459469,226.173025 C278.459469,226.675749 278.459469,227.178474 278.586853,227.807221 C278.459469,227.807221 278.333447,227.932561 278.206063,228.057902 L278.206063,228.057902 Z M216.026907,229.440736 C216.026907,228.81267 216.533719,229.064714 216.787807,228.938011 L216.787807,229.440736 L216.026907,229.440736 Z M205.621594,230.195504 C204.732629,229.566757 203.844346,229.064714 202.956744,228.560627 L202.956744,227.807221 C203.337534,227.429837 203.717643,227.052452 204.225817,226.80109 C204.986717,226.550409 206.382493,225.796322 207.144074,226.550409 C207.144074,227.680518 207.144074,228.81267 207.271458,229.944142 C206.63658,229.944142 206.128406,230.068801 205.621594,230.195504 L205.621594,230.195504 Z M214.883856,230.823569 C214.757153,230.572207 214.63045,230.320845 214.63045,230.195504 L215.391349,230.195504 L215.391349,230.823569 L214.883856,230.823569 Z M301.68154,231.8297 C301.428134,231.577657 301.174046,231.326294 300.92064,231.200272 C301.428134,230.698229 301.935627,230.572207 302.569142,231.200272 C302.189033,231.326294 301.935627,231.577657 301.68154,231.8297 L301.68154,231.8297 Z M303.965599,232.709128 C303.58549,232.709128 303.58549,231.8297 303.58549,231.577657 C303.838215,231.577657 304.092302,231.577657 304.473774,231.703678 L304.473774,232.457766 C304.219687,232.457766 304.092302,232.583787 303.965599,232.709128 L303.965599,232.709128 Z M289.88045,234.343324 C289.626362,234.217984 289.499659,234.091281 289.372275,234.091281 C289.372275,229.691417 289.626362,229.81812 294.321866,229.315395 C294.955381,229.315395 295.716962,229.315395 296.478542,229.440736 C296.478542,229.566757 296.478542,229.81812 296.605245,230.068801 C294.955381,231.452316 293.179496,233.086512 291.276226,234.217984 C290.768733,234.217984 290.260559,234.217984 289.88045,234.343324 L289.88045,234.343324 Z M205.49421,236.479564 C204.860695,236.103542 204.351839,235.726158 203.844346,235.348774 C203.844346,235.09673 203.844346,234.846049 203.97173,234.595368 C205.114101,234.846049 206.255109,235.223433 207.524864,235.600136 L207.524864,236.479564 L205.49421,236.479564 Z M296.478542,236.98297 C297.49421,233.840599 297.873638,233.96594 301.174046,233.588556 C301.428134,235.600136 297.873638,236.730926 296.478542,236.98297 L296.478542,236.98297 Z M283.02827,237.862398 C282.646798,237.360354 282.266689,236.857629 281.885899,236.479564 C279.094346,230.447548 276.175409,226.675749 269.704019,225.292916 C269.704019,223.030654 271.225817,223.030654 273.003065,221.521798 L273.003065,220.642371 C271.099796,220.265668 269.322548,219.762262 267.419959,219.762262 C265.389305,220.138965 263.358651,220.642371 261.328678,221.145777 L261.328678,221.773161 C263.866826,222.65327 266.404292,223.659401 269.069142,224.66485 C268.815054,224.790191 268.689033,224.916213 268.561649,225.167575 C260.694482,225.920981 252.699251,226.80109 244.705381,226.80109 C241.025545,226.173025 237.345708,225.544278 233.791213,224.916213 C231.38045,225.041553 228.969687,225.292916 226.685627,225.544278 C225.163147,226.173025 223.640668,226.80109 222.244891,227.429837 C220.976499,228.308583 218.81846,229.440736 218.184264,230.823569 C216.915191,230.823569 215.01124,233.714578 213.868869,234.468665 C212.219005,234.468665 212.600477,230.195504 212.726499,229.190054 C213.234673,229.064714 213.742166,228.938011 214.250341,228.81267 C214.250341,228.560627 214.250341,228.308583 214.377044,228.057902 C213.996253,227.932561 213.614782,227.807221 213.234673,227.807221 C215.77282,221.396458 222.625681,218.756812 229.351158,218.756812 L229.351158,219.385559 C227.701294,219.762262 226.052112,220.138965 224.402248,220.516349 L224.402248,221.271117 C226.304837,222.025204 228.208787,222.904632 230.23876,223.785422 L232.649523,223.785422 C233.791213,223.155995 235.949251,221.899183 236.71015,220.768392 C236.583447,220.012943 236.456063,219.385559 236.32936,218.756812 C240.009877,219.008174 243.689714,219.260218 247.496253,219.510899 L257.902929,219.510899 C263.358651,219.008174 276.682902,216.619891 279.855926,222.904632 L280.362738,222.904632 C281.378406,224.66485 282.394074,226.425068 283.535763,228.308583 C283.915872,229.440736 284.296662,230.572207 284.804837,231.8297 C284.550068,233.840599 284.296662,235.851499 284.169959,237.862398 L283.02827,237.862398 Z M207.77827,239.11921 C205.49421,237.98842 203.210831,236.857629 200.92609,235.726158 C199.784401,234.846049 198.642711,233.96594 197.501022,233.211853 C197.373638,232.96049 197.373638,232.709128 197.373638,232.457766 C199.02282,232.457766 200.418597,233.588556 201.941076,233.96594 C201.941076,231.955041 198.261921,229.944142 196.611376,230.94891 C196.484673,231.326294 196.484673,231.703678 196.484673,232.080381 C196.230586,232.080381 195.976499,232.080381 195.723093,232.206403 C191.916553,229.064714 199.784401,229.440736 201.433583,230.068801 C203.590259,231.074932 205.748297,232.206403 208.032357,233.337875 C208.793256,234.595368 210.315736,237.235014 209.935627,238.867847 C209.174728,238.867847 208.413147,238.993869 207.77827,239.11921 L207.77827,239.11921 Z M290.514646,240.754087 C290.007834,240.754087 290.260559,239.747956 290.260559,239.496594 C291.276226,239.245232 292.291213,238.993869 293.433583,238.867847 C292.925409,240.125341 291.657016,240.376703 290.514646,240.754087 L290.514646,240.754087 Z M265.770095,242.639646 C264.882493,240.878065 262.723774,240.376703 261.328678,239.11921 C261.328678,238.867847 261.456063,238.617166 261.582084,238.365804 C263.61342,238.867847 264.501022,239.747956 265.896798,241.13079 C265.896798,241.633515 266.024183,242.13624 266.150204,242.639646 L265.770095,242.639646 Z M287.469005,243.016349 C286.454019,241.382834 288.103883,238.617166 288.738079,237.108311 C290.133856,236.354223 291.529632,235.600136 292.925409,234.970708 C296.859332,231.955041 301.554837,227.178474 306.884537,230.320845 C306.884537,230.572207 306.884537,230.823569 307.011921,231.074932 C302.82391,236.98297 294.955381,242.639646 287.469005,243.016349 L287.469005,243.016349 Z M251.050068,245.656676 C250.923365,244.901907 250.923365,244.14782 250.923365,243.518392 C251.938351,242.13624 252.953338,240.754087 254.095027,239.496594 L254.603202,239.496594 C254.349114,241.884196 253.206744,244.650545 251.050068,245.656676 L251.050068,245.656676 Z M266.150204,262.247275 C265.643392,260.614441 263.993529,257.47139 265.135218,255.837193 C265.261921,255.711853 265.516008,255.711853 265.770095,255.711853 C266.404292,257.974114 267.419959,259.859673 266.657698,262.247275 L266.150204,262.247275 Z M293.560286,262.750681 C291.529632,262.121935 290.133856,260.111035 288.484673,258.980245 L288.484673,258.476158 L287.976499,258.476158 C287.088215,256.215259 284.550068,253.071526 282.773501,251.311989 C282.266689,251.185967 281.759196,251.061308 281.378406,251.061308 C278.714237,252.820845 282.520777,255.963215 283.282357,257.597411 C283.282357,261.367847 279.983311,259.733651 277.825272,259.733651 C277.190395,259.859673 276.682902,259.985695 276.175409,260.237057 C271.353202,260.237057 271.479905,255.334469 270.592302,251.688692 C269.704019,248.798365 268.18154,245.781335 266.024183,243.644414 C263.358651,242.262262 260.947888,240.125341 257.775545,240.125341 C257.141349,240.878065 256.506471,241.758856 255.998978,242.639646 C255.491485,242.890327 255.110014,243.141689 254.729905,243.393733 C254.729905,243.770436 250.542575,248.29564 249.907016,248.672343 C249.273501,246.410082 248.639305,244.273161 248.131131,242.13624 C246.862738,240.125341 246.101158,238.743188 244.197888,237.862398 C245.339578,239.873978 248.004428,243.393733 247.496253,245.906676 C247.116826,245.781335 246.862738,245.656676 246.608651,245.529973 C244.578678,243.518392 241.025545,240.125341 238.106608,240.125341 C236.32936,240.878065 230.746253,245.656676 229.604564,245.15327 C229.604564,243.393733 231.761921,241.508174 232.14203,239.747956 C229.984673,240.628065 227.19312,244.273161 226.304837,246.158038 C226.558924,246.661444 226.813011,247.164169 227.19312,247.792916 C227.19312,248.29564 227.19312,248.798365 227.320504,249.427112 C225.67064,252.820845 225.290531,256.088556 224.782357,259.859673 C223.894074,259.356267 223.00579,258.853542 222.244891,258.351499 C218.81846,258.476158 215.01124,259.356267 211.58549,258.728202 C211.712193,257.47139 211.839578,256.215259 211.965599,254.957766 C209.682221,252.694142 208.032357,257.722752 206.63658,258.728202 C206.001022,258.728202 205.49421,258.728202 204.986717,258.853542 C203.97173,258.225477 203.083447,257.597411 202.195163,257.094005 C198.896117,256.843324 196.864782,256.591281 195.342302,253.574932 C195.342302,251.940736 197.753747,251.815395 199.02282,251.438011 C198.515327,247.541553 192.296662,251.815395 190.266689,251.815395 C188.743529,251.311989 186.967643,250.054496 186.332766,248.672343 L185.825272,248.672343 C184.175409,245.656676 185.317779,246.158038 187.728542,245.027929 C188.236717,244.650545 188.743529,244.273161 189.378406,244.02248 C189.631812,243.26703 190.266689,242.010218 189.885899,241.256812 L188.870913,241.256812 C186.332766,242.513624 184.049387,243.393733 181.13045,243.393733 C179.22718,242.262262 177.449932,241.13079 175.673365,240.125341 C174.911785,239.370572 174.404973,238.617166 175.292575,237.736376 C180.876362,235.223433 187.22173,231.326294 193.439033,233.96594 C197.626362,236.730926 202.321866,239.370572 206.889986,241.256812 C208.286444,241.633515 209.808243,242.010218 211.331403,242.387602 C211.839578,243.518392 216.661104,252.694142 216.661104,247.038828 C215.900204,244.775886 214.757153,242.639646 214.757153,240.251362 C216.279632,238.239782 217.803474,236.228202 219.326635,234.217984 C220.34094,232.96049 221.483311,231.8297 222.625681,230.698229 C225.543937,229.064714 228.208787,228.308583 231.507834,227.680518 C236.583447,227.680518 241.405654,228.435967 246.355245,229.315395 C248.258515,229.315395 250.161104,229.440736 252.065054,229.566757 C254.983311,229.190054 257.902929,228.81267 260.947888,228.435967 C263.486035,227.680518 266.150204,227.429837 268.815054,227.429837 C273.510559,228.560627 278.333447,232.583787 279.729223,237.235014 C280.362738,238.490463 280.997616,239.747956 281.632493,241.13079 C281.505109,242.639646 281.378406,244.14782 281.378406,245.656676 C282.394074,246.661444 288.610695,245.405313 290.133856,245.27861 C295.082766,244.14782 299.651567,241.382834 303.58549,238.239782 C305.86955,235.976839 307.773501,232.96049 311.071866,232.206403 C314.878406,232.206403 324.776907,234.091281 326.045981,238.11376 C324.269414,238.743188 318.432221,240.502044 319.447207,243.518392 C320.842984,244.14782 322.23876,244.901907 323.635218,245.656676 L323.635218,246.535422 C322.112057,246.912807 320.716281,247.288828 319.320504,247.792916 C319.447207,248.672343 319.574591,249.553134 319.700613,250.557902 C318.939033,252.192779 316.781676,253.071526 315.132493,252.066076 C313.862738,252.066076 312.721049,251.940736 311.706063,252.568801 C312.213556,254.832425 314.878406,255.083106 315.512602,257.094005 C315.385218,257.220708 315.259196,257.345368 315.132493,257.597411 C314.116826,257.597411 313.101839,257.722752 312.087534,257.848093 C307.519414,260.111035 304.981267,260.739101 301.428134,257.220708 C299.905654,256.340599 299.144074,255.963215 297.240123,256.215259 C297.240123,257.974114 298.383174,259.482289 299.144074,260.991144 C297.747616,263.127384 296.098433,262.499319 293.560286,262.750681 L293.560286,262.750681 Z M231.001022,263.127384 C230.61955,262.373297 230.23876,261.745232 229.85797,261.117166 C229.85797,259.232289 229.984673,257.597411 230.873638,255.837193 C232.649523,255.837193 232.016008,256.46594 232.268733,257.848093 C231.888624,259.482289 231.634537,261.117166 231.38045,262.876022 C231.253747,262.876022 231.127044,263.002725 231.001022,263.127384 L231.001022,263.127384 Z M259.552793,266.899183 C258.283038,266.646458 257.013965,266.395777 255.744891,266.143733 C253.460831,264.384877 251.684264,262.750681 250.415872,260.111035 L250.415872,255.459809 C252.317779,250.557902 253.715599,247.038828 258.157016,243.895777 C267.419959,241.382834 269.195845,256.967984 269.195845,262.750681 C267.927452,264.133515 266.150204,265.641689 264.501022,266.395777 C262.851158,266.521117 261.201975,266.646458 259.552793,266.899183 L259.552793,266.899183 Z M236.456063,267.150545 C233.918597,266.646458 231.761921,266.019755 229.604564,264.636921 C229.097071,264.007493 228.589578,263.379428 228.208787,262.750681 C228.208787,258.476158 228.715599,253.951635 230.61955,250.054496 C232.52282,247.288828 235.441757,244.14782 238.742166,243.393733 C246.228542,245.781335 248.004428,253.700954 246.862738,260.864441 C245.974455,263.63079 243.309605,265.264305 240.899523,266.521117 C239.375681,266.646458 237.853202,266.899183 236.456063,267.150545 L236.456063,267.150545 Z M234.0453,269.538828 C232.016008,268.909401 229.351158,268.030654 227.701294,266.773161 C225.163147,266.646458 222.117507,267.024523 220.722411,264.636921 C220.468324,263.881471 220.214918,263.127384 220.087534,262.373297 C216.915191,262.750681 213.742166,263.127384 210.697207,263.504087 C206.889986,265.012943 206.255109,263.379428 202.575954,261.871253 C199.784401,261.242507 196.992847,260.487738 194.07391,260.237057 C193.058243,259.608311 192.17064,258.980245 191.281676,258.476158 C190.520777,255.459809 188.110014,255.459809 185.571866,254.203678 C184.175409,252.694142 182.779632,251.185967 181.384537,249.677793 C178.465599,247.541553 175.546662,245.529973 172.627044,243.518392 C170.851839,241.508174 169.201975,239.496594 166.791213,238.617166 C166.663828,237.98842 166.537125,237.360354 166.537125,236.857629 C169.83549,235.726158 173.135218,234.595368 176.561649,233.588556 C180.496253,231.955041 184.55688,230.320845 188.616826,228.81267 C192.93154,227.680518 197.246253,226.550409 201.68767,225.418937 C203.083447,224.66485 204.479223,223.910082 205.875681,223.281335 C206.255109,222.527929 206.63658,221.899183 207.017371,221.271117 C208.286444,211.968665 208.919959,201.662125 214.250341,193.617166 C216.787807,191.354905 218.945163,188.337875 220.722411,185.69891 C220.849114,184.69346 221.103202,183.68733 221.355926,182.682561 C220.849114,177.025886 220.34094,171.368529 219.960831,165.713215 C218.945163,161.061989 218.057561,159.805177 213.742166,158.1703 C210.44312,158.1703 207.271458,159.176431 204.986717,161.941417 C202.82936,162.946866 200.672684,163.952997 198.642711,165.08515 C196.230586,165.586512 193.819142,166.340599 191.281676,166.340599 C188.36342,165.838556 185.952657,165.461853 184.302793,163.198229 C182.018733,158.1703 180.368869,155.405995 182.398842,149.875341 C185.445163,144.470027 188.489441,139.190736 191.662466,133.912125 C192.677452,131.39782 193.946526,127.375341 195.850477,125.490463 C195.850477,125.113079 195.850477,124.861035 195.976499,124.610354 C194.961512,124.610354 194.707425,122.975477 194.707425,122.22139 C195.976499,120.587193 197.246253,119.0797 198.515327,117.570845 C200.291213,112.9203 204.860695,108.017711 208.15906,104.497956 C209.047343,103.869891 210.06233,103.241144 210.697207,102.362398 C210.697207,98.7166213 211.58549,97.8358311 214.63045,96.3276567 C218.565736,95.1961853 222.625681,95.4482289 226.685627,95.6995913 C226.685627,95.8256131 226.685627,96.0769755 226.813011,96.3276567 C224.655654,97.9625341 223.513965,97.3344687 224.402248,100.853542 C224.655654,101.356267 225.543937,102.362398 225.290531,102.989782 C223.640668,102.989782 223.133174,102.989782 222.625681,101.356267 C222.625681,97.9625341 223.00579,98.4652589 220.34094,97.4591281 C219.834128,97.5851499 219.326635,97.7104905 218.81846,97.9625341 C218.565736,99.0933243 218.184264,99.596049 217.169278,100.350136 C217.041213,100.601499 217.041213,100.853542 217.041213,101.104905 C217.803474,101.230245 218.565736,101.356267 219.452657,101.482289 C219.452657,103.366485 213.868869,104.121935 212.472411,104.247275 C209.428134,106.383515 207.524864,108.89782 205.367507,112.040872 C203.844346,114.427793 202.321866,116.816076 200.800068,119.205041 C199.911104,120.08515 199.40361,120.21049 199.40361,121.467302 C200.672684,121.467302 201.054155,121.341962 201.68767,120.336512 L202.195163,120.336512 L202.195163,119.833106 C202.82936,119.331744 203.464237,118.952997 204.225817,118.575613 C204.351839,118.952997 204.605926,119.331744 204.860695,119.833106 C204.860695,123.10218 204.225817,124.106948 201.179496,124.610354 C195.976499,129.762943 192.804155,136.425068 189.505109,142.835831 C186.84094,147.109673 182.652929,152.514986 184.810967,157.919619 C185.825272,159.302452 186.967643,160.810627 188.110014,162.319482 C188.997616,162.570163 189.885899,162.946866 190.774864,163.324251 C192.550068,163.324251 195.342302,163.450272 196.992847,162.696866 C196.992847,161.188011 195.088215,158.548365 194.454019,157.165531 C194.327316,155.656676 194.199932,154.275204 194.199932,152.891689 C194.454019,151.760218 194.707425,150.628747 194.961512,149.623297 C193.819142,148.492507 189.885899,149.748638 188.36342,149.875341 C189.124319,145.349455 199.150204,147.487057 201.68767,146.230245 C204.986717,142.71049 210.44312,136.677793 209.428134,131.145777 L208.793256,131.145777 C208.286444,132.277929 207.77827,133.408719 207.271458,134.665531 L206.509196,134.665531 C206.63658,133.660082 206.763283,132.654632 206.889986,131.773842 C206.382493,131.900545 205.875681,132.025886 205.49421,132.277929 C205.367507,130.769074 205.367507,129.260899 205.367507,127.752044 C204.860695,127.25 204.351839,126.745913 203.844346,126.36921 C203.844346,125.992507 203.844346,125.741826 203.97173,125.490463 C204.860695,125.113079 205.367507,124.106948 206.001022,123.352861 C206.889986,124.23297 207.144074,126.620572 207.271458,127.878065 C208.793256,127.878065 207.650886,125.992507 209.935627,126.872616 C210.315736,128.130109 210.697207,129.385559 211.204019,130.643052 C211.204019,132.529292 211.204019,135.042916 212.347071,136.55109 L213.996253,136.55109 C213.996253,136.300409 214.122956,136.173706 214.250341,136.048365 C214.250341,132.905995 212.472411,130.014986 211.965599,126.997956 C212.092302,126.872616 212.219005,126.872616 212.472411,126.872616 C212.980586,127.878065 213.614782,128.883515 214.250341,129.889646 C214.883856,129.889646 215.137943,129.260899 215.391349,128.758174 C218.184264,128.758174 217.549387,136.802452 217.549387,138.436649 C220.34094,139.317439 223.894074,138.311308 225.924728,136.300409 C225.924728,130.643052 226.052112,124.986376 226.177452,119.455722 C226.304837,119.0797 226.43154,118.827657 226.558924,118.575613 C228.715599,117.948229 227.19312,115.559264 226.813011,114.05109 C226.940395,112.417575 227.066417,110.783379 227.320504,109.149183 L228.081403,109.149183 C228.715599,109.90327 229.351158,110.783379 230.112057,111.662807 L231.001022,111.662807 C231.38045,110.280654 232.649523,109.400545 233.665872,108.395095 C234.553474,106.383515 235.949251,105.75545 233.665872,104.623978 C233.284401,103.493188 232.90361,102.362398 232.52282,101.230245 C233.538488,99.596049 237.472411,96.7050409 239.756471,97.2077657 C240.644755,99.9734332 245.847071,101.230245 248.258515,102.235695 C253.206744,103.115804 259.932221,101.858311 263.232629,97.5851499 C263.232629,96.0769755 262.723774,94.5688011 262.471049,93.1859673 L262.471049,89.9175749 C264.374319,89.9175749 266.277589,93.6880109 267.545981,94.9455041 C268.054155,95.1961853 268.561649,95.5735695 269.069142,95.9516349 C269.069142,98.4652589 267.927452,98.9679837 265.770095,100.601499 C263.993529,100.601499 264.628406,98.8426431 262.471049,99.8474114 C261.836172,100.350136 261.201975,100.853542 260.567779,101.482289 C257.394074,102.739101 254.22173,104.121935 250.795981,104.121935 C248.511921,103.617847 245.847071,102.362398 243.563692,102.362398 C243.182221,102.613079 242.928815,102.865123 242.674728,103.115804 C242.674728,104.75 242.674728,107.388283 244.958787,107.388283 C248.258515,106.132834 249.527589,107.892371 249.527589,110.783379 C250.415872,111.411444 251.430858,112.165531 252.445163,112.9203 C254.22173,112.9203 255.871594,113.674387 257.648842,113.674387 C258.918597,112.417575 258.790531,111.160763 260.821185,110.02861 C261.075272,109.526567 261.456063,109.023161 261.836172,108.645777 C261.709469,107.766349 261.582084,107.012943 261.582084,106.258174 C262.597071,104.121935 261.075272,101.73297 264.501022,101.73297 C266.657698,102.362398 268.434946,104.247275 270.210831,105.504768 C270.084128,106.132834 269.958106,106.76158 269.958106,107.514986 C270.592302,107.514986 271.225817,106.886921 271.353202,106.258174 C273.763965,105.75545 276.048025,101.607629 277.190395,99.4700272 L277.190395,97.3344687 C276.301431,96.3276567 275.413828,95.3228883 274.652929,94.3174387 C276.682902,94.8194823 278.07936,95.5735695 279.729223,96.8303815 C284.550068,97.8358311 288.103883,100.853542 292.418597,102.989782 L292.418597,103.493188 C292.672003,103.617847 293.052112,103.869891 293.433583,104.121935 C293.306199,104.372616 293.179496,104.623978 293.179496,104.875341 C292.544619,104.875341 291.910422,104.875341 291.276226,105.001362 C287.976499,103.617847 285.184946,101.104905 282.012602,99.8474114 C281.378406,99.8474114 280.743529,99.8474114 280.108651,99.9734332 C279.094346,102.613079 277.063692,104.75 275.033719,106.76158 C274.525545,109.149183 273.129768,113.171662 270.210831,113.171662 C269.830722,113.044959 269.449932,112.9203 269.069142,112.794278 C270.210831,117.445504 271.860695,114.680518 274.144755,112.417575 C274.271458,111.788147 274.398842,111.160763 274.652929,110.532698 L275.921322,110.532698 C276.301431,112.292234 276.301431,115.559264 274.652929,116.691417 C273.890668,116.691417 273.129768,116.816076 272.495572,116.942779 C272.621594,117.445504 272.748978,117.948229 272.875681,118.450954 C275.033719,118.575613 276.428815,117.570845 277.190395,119.833106 C277.444482,125.992507 277.697888,132.277929 277.951975,138.561308 C280.108651,138.561308 280.997616,139.442098 282.520777,140.824932 C282.773501,140.699591 283.02827,140.699591 283.282357,140.699591 C283.535763,136.300409 284.169959,131.773842 285.69312,127.626022 C285.947207,125.490463 286.200613,123.352861 286.580722,121.21594 C286.961512,121.090599 287.342302,121.090599 287.722411,121.090599 C287.722411,126.11921 286.200613,131.271798 285.184946,136.300409 C285.184946,137.55654 285.565736,138.311308 285.947207,139.317439 C286.326635,139.317439 286.708106,139.317439 287.215599,139.442098 C287.722411,138.688011 288.230586,138.059946 288.738079,137.430518 C289.372275,133.660082 290.133856,129.889646 290.895436,126.243188 L291.529632,126.243188 L291.529632,134.665531 C292.544619,134.665531 292.925409,133.785422 293.306199,133.031335 C293.306199,129.638283 293.433583,126.243188 293.560286,122.975477 C294.575272,124.358992 294.701975,125.741826 294.447888,127.375341 C294.701975,128.130109 294.955381,128.883515 295.336172,129.762943 C295.716962,129.762943 296.098433,129.762943 296.478542,129.889646 C296.478542,128.506812 296.478542,127.123978 296.605245,125.741826 C296.098433,122.975477 295.336172,120.21049 295.209469,117.320163 C294.82936,116.188011 294.067779,115.559264 294.447888,114.303134 C296.224455,115.559264 297.747616,116.565395 298.63658,118.450954 L299.016689,118.450954 C299.651567,120.08515 300.412466,121.844687 301.174046,123.603542 L302.569142,123.603542 C305.361376,120.839237 296.859332,113.171662 295.336172,112.165531 C294.067779,110.657357 292.672003,108.521117 290.387262,108.521117 C290.387262,111.160763 291.148842,114.176431 288.103883,115.307902 C285.947207,114.805177 285.311649,111.662807 284.677452,109.652589 C284.169959,109.400545 283.662466,109.275204 283.282357,109.149183 C283.282357,111.411444 284.677452,114.05109 285.058924,116.314033 L284.423365,116.314033 C283.662466,115.307902 283.02827,114.427793 282.394074,113.549046 C282.139986,112.417575 281.759196,109.275204 282.646798,108.395095 C282.773501,108.521117 283.02827,108.645777 283.282357,108.771798 C283.282357,108.521117 283.40906,108.269074 283.535763,108.143733 C282.773501,106.76158 282.139986,105.377384 281.505109,103.995232 C284.423365,103.995232 286.834128,109.400545 288.103883,111.411444 L288.610695,111.411444 C288.610695,109.023161 286.454019,106.886921 286.454019,104.497956 L286.961512,104.497956 C287.342302,104.875341 287.722411,105.252725 288.230586,105.75545 C289.626362,105.75545 291.02282,106.383515 292.418597,106.635559 C293.052112,106.383515 293.686308,106.258174 294.321866,106.132834 C295.082766,107.514986 295.971049,108.89782 296.859332,110.405995 C297.240123,110.909401 297.620232,111.537466 298.128406,112.165531 L298.63658,112.165531 C298.889986,113.171662 300.15906,114.05109 300.92064,114.427793 C301.554837,115.182561 302.189033,115.936649 302.950613,116.816076 C303.58549,118.073569 304.219687,119.331744 304.854564,120.587193 C304.854564,125.615804 306.123638,129.889646 307.645436,134.665531 C307.898842,135.168256 308.152929,135.670981 308.534401,136.300409 L309.041213,136.300409 C309.930177,139.56812 312.467643,143.212534 314.116826,146.104223 C315.259196,150.126703 318.305518,154.02248 316.654973,158.297003 C314.878406,161.314033 312.34094,162.696866 309.041213,163.827657 L302.82391,163.827657 C298.001703,163.198229 293.813692,160.557902 289.626362,158.1703 C287.215599,158.1703 283.154973,159.930518 281.632493,161.439373 C281.125,162.444823 280.616826,163.450272 280.236035,164.581063 C279.22173,169.484332 278.586853,174.51158 278.586853,179.538828 C278.967643,181.55109 279.475136,183.561308 279.983311,185.69891 C282.394074,190.474796 284.804837,195.252044 286.454019,200.405313 C287.469005,204.679837 288.484673,208.952316 289.499659,213.351499 C289.499659,216.871935 288.738079,222.401907 290.007834,225.796322 C290.641349,226.047684 291.276226,226.425068 291.910422,226.80109 C295.462875,227.303815 299.77827,227.052452 303.331403,226.80109 C308.407016,227.555858 313.483311,229.190054 318.432221,230.572207 C319.9547,230.823569 321.47718,231.074932 323.000341,231.452316 C325.157016,232.331063 331.248978,235.600136 329.599796,238.867847 C327.949251,239.747956 325.538488,240.754087 324.650204,242.513624 C325.411104,244.02248 328.075954,244.273161 329.599796,244.775886 C329.725817,245.405313 329.85252,246.033379 330.105926,246.787466 C328.963556,248.421662 327.060967,249.049728 325.157016,249.677793 C325.030313,250.181199 324.90361,250.809264 324.90361,251.438011 C323.888624,251.940736 323.253747,252.694142 322.620232,253.574932 C322.620232,254.328338 322.746935,255.083106 322.873638,255.963215 C321.603883,256.46594 320.462875,257.094005 319.320504,257.722752 C318.305518,258.225477 317.924046,259.608311 317.289169,260.363079 C315.385218,260.864441 313.610014,262.247275 311.833447,262.876022 L308.787125,262.876022 C307.773501,263.253406 306.757153,263.63079 305.86955,264.007493 C303.58549,264.007493 301.68154,264.510899 300.032357,266.143733 C297.747616,266.646458 294.447888,266.395777 292.16451,265.893052 C290.387262,264.510899 288.103883,261.871253 285.69312,261.871253 C284.043256,263.504087 282.520777,264.133515 280.362738,264.510899 C278.07936,263.002725 274.144755,264.007493 271.607289,264.007493 C269.704019,264.76158 269.069142,266.269755 267.672684,267.275886 C266.150204,267.77861 264.628406,268.281335 263.105245,268.909401 L257.013965,268.909401 C254.603202,267.903951 252.699251,266.395777 250.669278,264.76158 C249.780995,264.76158 249.019414,264.76158 248.258515,264.886921 C246.989441,265.893052 245.720368,266.899183 244.451975,268.030654 C241.152929,269.286104 237.599114,269.412807 234.0453,269.538828 L234.0453,269.538828 Z" id="Fill-145" fill="#00529C"></path>
    </g>
</svg>